<?xml version="1.0" encoding="utf-8"?>
<!-- Generator: Adobe Illustrator 19.1.0, SVG Export Plug-In . SVG Version: 6.00 Build 0)  -->
<svg version="1.1" id="Layer_1" xmlns="http://www.w3.org/2000/svg" xmlns:xlink="http://www.w3.org/1999/xlink" x="0px" y="0px"
	 viewBox="0 0 1143.8 413.4" style="enable-background:new 0 0 1143.8 413.4;" xml:space="preserve">
<style type="text/css">
	.st0{opacity:0.18;}
	.st1{fill:#FCD354;}
	.st2{fill:#4D4D4D;}
	.st3{fill:#CD5C5C;}
	.st4{opacity:0.55;}
</style>
<g class="st0">
	<rect x="174.3" class="st1" width="795.1" height="413.4"/>
</g>
<g>
	<path class="st2" d="M125,276.4h-4.2v-25.7h14.5v3.6H125v8h9.7v3.6H125V276.4z"/>
	<path class="st2" d="M149.4,256.6c0.8,0,1.5,0.1,2.1,0.2l-0.4,3.8c-0.6-0.1-1.2-0.2-1.8-0.2c-1.7,0-3,0.5-4,1.6s-1.5,2.5-1.5,4.2
		v10.2h-4.1V257h3.2l0.5,3.4h0.2c0.6-1.2,1.5-2.1,2.5-2.8S148.2,256.6,149.4,256.6z"/>
	<path class="st2" d="M172.3,266.7c0,3.2-0.8,5.7-2.4,7.4s-3.9,2.7-6.8,2.7c-1.8,0-3.4-0.4-4.8-1.2s-2.5-2-3.2-3.5s-1.1-3.3-1.1-5.3
		c0-3.2,0.8-5.6,2.4-7.4s3.9-2.7,6.8-2.7c2.8,0,5,0.9,6.7,2.7S172.3,263.6,172.3,266.7z M158.2,266.7c0,4.5,1.7,6.7,5,6.7
		c3.3,0,4.9-2.2,4.9-6.7c0-4.4-1.7-6.7-5-6.7c-1.7,0-3,0.6-3.8,1.7S158.2,264.5,158.2,266.7z"/>
	<path class="st2" d="M193.4,276.4h-4.1v-12c0-1.5-0.3-2.6-0.8-3.3s-1.4-1.1-2.6-1.1c-1.6,0-2.8,0.5-3.5,1.6s-1.1,2.8-1.1,5.2v9.7
		h-4.1V257h3.2l0.6,2.5h0.2c0.5-0.9,1.3-1.6,2.3-2.1s2.2-0.8,3.4-0.8c3,0,5,1,5.9,3.1h0.3c0.6-1,1.4-1.7,2.4-2.2s2.2-0.8,3.6-0.8
		c2.3,0,4,0.6,5.1,1.8s1.6,3,1.6,5.4v12.7h-4.1v-12c0-1.5-0.3-2.6-0.9-3.3s-1.5-1.1-2.6-1.1c-1.6,0-2.8,0.5-3.5,1.5
		s-1.1,2.5-1.1,4.6V276.4z"/>
	<path class="st2" d="M228.1,273.5c1,0,2-0.2,3-0.5v3.1c-0.5,0.2-1,0.4-1.8,0.5s-1.5,0.2-2.2,0.2c-3.9,0-5.9-2.1-5.9-6.2v-10.5h-2.7
		v-1.8l2.8-1.5l1.4-4.1h2.5v4.3h5.5v3.1h-5.5v10.4c0,1,0.2,1.7,0.7,2.2S227.3,273.5,228.1,273.5z"/>
	<path class="st2" d="M252.1,276.4h-4.1v-12c0-1.5-0.3-2.6-0.9-3.4s-1.6-1.1-2.9-1.1c-1.7,0-3,0.5-3.8,1.6s-1.2,2.8-1.2,5.2v9.7H235
		v-27.4h4.1v6.9c0,1.1-0.1,2.3-0.2,3.6h0.3c0.6-0.9,1.3-1.7,2.3-2.2s2.2-0.8,3.5-0.8c4.7,0,7.1,2.4,7.1,7.1V276.4z"/>
	<path class="st2" d="M266.3,276.8c-3,0-5.4-0.9-7.1-2.6s-2.6-4.2-2.6-7.3c0-3.2,0.8-5.7,2.4-7.5s3.8-2.7,6.5-2.7
		c2.6,0,4.6,0.8,6.1,2.3s2.2,3.7,2.2,6.4v2.2h-13c0.1,1.9,0.6,3.3,1.5,4.4s2.3,1.5,4.1,1.5c1.1,0,2.2-0.1,3.2-0.3s2.1-0.6,3.2-1.1
		v3.4c-1,0.5-2,0.8-3.1,1S267.7,276.8,266.3,276.8z M265.6,259.8c-1.3,0-2.4,0.4-3.2,1.2s-1.3,2-1.4,3.6h8.8c0-1.6-0.4-2.8-1.2-3.6
		S266.9,259.8,265.6,259.8z"/>
	<path class="st2" d="M292.1,276.4h-4.1v-27.4h4.1V276.4z"/>
	<path class="st2" d="M315.2,266.7c0,3.2-0.8,5.7-2.4,7.4s-3.9,2.7-6.8,2.7c-1.8,0-3.4-0.4-4.8-1.2s-2.5-2-3.2-3.5s-1.1-3.3-1.1-5.3
		c0-3.2,0.8-5.6,2.4-7.4s3.9-2.7,6.8-2.7c2.8,0,5,0.9,6.7,2.7S315.2,263.6,315.2,266.7z M301.1,266.7c0,4.5,1.7,6.7,5,6.7
		c3.3,0,4.9-2.2,4.9-6.7c0-4.4-1.7-6.7-5-6.7c-1.7,0-3,0.6-3.8,1.7S301.1,264.5,301.1,266.7z"/>
	<path class="st2" d="M336.4,257v2.3l-3.3,0.6c0.3,0.4,0.6,0.9,0.8,1.5s0.3,1.2,0.3,1.9c0,2-0.7,3.6-2.1,4.7s-3.3,1.7-5.7,1.7
		c-0.6,0-1.2,0-1.7-0.1c-0.9,0.6-1.3,1.2-1.3,1.9c0,0.4,0.2,0.8,0.6,1s1.2,0.3,2.3,0.3h3.4c2.1,0,3.8,0.5,4.9,1.4s1.7,2.2,1.7,4
		c0,2.2-0.9,3.9-2.7,5.1s-4.4,1.8-7.9,1.8c-2.6,0-4.7-0.5-6.1-1.4s-2.1-2.3-2.1-4c0-1.2,0.4-2.2,1.1-3s1.8-1.4,3.2-1.7
		c-0.6-0.2-1-0.6-1.4-1.1s-0.5-1.1-0.5-1.6c0-0.7,0.2-1.3,0.6-1.8s1-1,1.8-1.5c-1-0.4-1.8-1.1-2.5-2.1s-0.9-2.1-0.9-3.4
		c0-2.1,0.7-3.7,2-4.9s3.2-1.7,5.7-1.7c0.6,0,1.1,0,1.7,0.1s1.1,0.2,1.4,0.2H336.4z M321.1,279.5c0,0.9,0.4,1.6,1.2,2.1
		s1.9,0.7,3.4,0.7c2.2,0,3.9-0.3,5-1s1.7-1.5,1.7-2.6c0-0.8-0.3-1.4-0.9-1.8s-1.7-0.5-3.4-0.5H325c-1.2,0-2.1,0.3-2.8,0.8
		S321.1,278.5,321.1,279.5z M322.9,263.3c0,1.2,0.3,2.2,0.9,2.8s1.5,1,2.7,1c2.4,0,3.6-1.3,3.6-3.8c0-1.3-0.3-2.2-0.9-2.9
		s-1.5-1-2.7-1c-1.2,0-2.1,0.3-2.7,1S322.9,262,322.9,263.3z"/>
	<path class="st2" d="M357.2,266.7c0,3.2-0.8,5.7-2.4,7.4s-3.9,2.7-6.8,2.7c-1.8,0-3.4-0.4-4.8-1.2s-2.5-2-3.2-3.5s-1.1-3.3-1.1-5.3
		c0-3.2,0.8-5.6,2.4-7.4s3.9-2.7,6.8-2.7c2.8,0,5,0.9,6.7,2.7S357.2,263.6,357.2,266.7z M343.1,266.7c0,4.5,1.7,6.7,5,6.7
		c3.3,0,4.9-2.2,4.9-6.7c0-4.4-1.7-6.7-5-6.7c-1.7,0-3,0.6-3.8,1.7S343.1,264.5,343.1,266.7z"/>
	<path class="st2" d="M366.3,272.7c-0.6,2.2-1.6,5-3.1,8.4h-3c0.8-3.2,1.4-6.1,1.8-8.8h4.1L366.3,272.7z"/>
	<path class="st2" d="M388.2,273.5c1,0,2-0.2,3-0.5v3.1c-0.5,0.2-1,0.4-1.8,0.5s-1.5,0.2-2.2,0.2c-3.9,0-5.9-2.1-5.9-6.2v-10.5h-2.7
		v-1.8l2.8-1.5l1.4-4.1h2.5v4.3h5.5v3.1h-5.5v10.4c0,1,0.2,1.7,0.7,2.2S387.4,273.5,388.2,273.5z"/>
	<path class="st2" d="M412.2,276.4H408v-12c0-1.5-0.3-2.6-0.9-3.4s-1.6-1.1-2.9-1.1c-1.7,0-3,0.5-3.8,1.6s-1.2,2.8-1.2,5.2v9.7h-4.1
		v-27.4h4.1v6.9c0,1.1-0.1,2.3-0.2,3.6h0.3c0.6-0.9,1.3-1.7,2.3-2.2s2.2-0.8,3.5-0.8c4.7,0,7.1,2.4,7.1,7.1V276.4z"/>
	<path class="st2" d="M427.8,256.6c0.8,0,1.5,0.1,2.1,0.2l-0.4,3.8c-0.6-0.1-1.2-0.2-1.8-0.2c-1.7,0-3,0.5-4,1.6s-1.5,2.5-1.5,4.2
		v10.2h-4.1V257h3.2l0.5,3.4h0.2c0.6-1.2,1.5-2.1,2.5-2.8S426.6,256.6,427.8,256.6z"/>
	<path class="st2" d="M450.7,266.7c0,3.2-0.8,5.7-2.4,7.4s-3.9,2.7-6.8,2.7c-1.8,0-3.4-0.4-4.8-1.2s-2.5-2-3.2-3.5s-1.1-3.3-1.1-5.3
		c0-3.2,0.8-5.6,2.4-7.4s3.9-2.7,6.8-2.7c2.8,0,5,0.9,6.7,2.7S450.7,263.6,450.7,266.7z M436.6,266.7c0,4.5,1.7,6.7,5,6.7
		c3.3,0,4.9-2.2,4.9-6.7c0-4.4-1.7-6.7-5-6.7c-1.7,0-3,0.6-3.8,1.7S436.6,264.5,436.6,266.7z"/>
	<path class="st2" d="M469.2,276.4l-0.6-2.5h-0.2c-0.6,0.9-1.4,1.6-2.5,2.1s-2.3,0.8-3.6,0.8c-2.4,0-4.1-0.6-5.3-1.8
		s-1.7-2.9-1.7-5.3V257h4.2v12c0,1.5,0.3,2.6,0.9,3.3s1.6,1.1,2.9,1.1c1.7,0,3-0.5,3.8-1.6s1.2-2.8,1.2-5.2V257h4.1v19.4H469.2z"/>
	<path class="st2" d="M494.7,257v2.3l-3.3,0.6c0.3,0.4,0.6,0.9,0.8,1.5s0.3,1.2,0.3,1.9c0,2-0.7,3.6-2.1,4.7s-3.3,1.7-5.7,1.7
		c-0.6,0-1.2,0-1.7-0.1c-0.9,0.6-1.3,1.2-1.3,1.9c0,0.4,0.2,0.8,0.6,1s1.2,0.3,2.3,0.3h3.4c2.1,0,3.8,0.5,4.9,1.4s1.7,2.2,1.7,4
		c0,2.2-0.9,3.9-2.7,5.1s-4.4,1.8-7.9,1.8c-2.6,0-4.7-0.5-6.1-1.4s-2.1-2.3-2.1-4c0-1.2,0.4-2.2,1.1-3s1.8-1.4,3.2-1.7
		c-0.6-0.2-1-0.6-1.4-1.1s-0.5-1.1-0.5-1.6c0-0.7,0.2-1.3,0.6-1.8s1-1,1.8-1.5c-1-0.4-1.8-1.1-2.5-2.1s-0.9-2.1-0.9-3.4
		c0-2.1,0.7-3.7,2-4.9s3.2-1.7,5.7-1.7c0.6,0,1.1,0,1.7,0.1s1.1,0.2,1.4,0.2H494.7z M479.4,279.5c0,0.9,0.4,1.6,1.2,2.1
		s1.9,0.7,3.4,0.7c2.2,0,3.9-0.3,5-1s1.7-1.5,1.7-2.6c0-0.8-0.3-1.4-0.9-1.8s-1.7-0.5-3.4-0.5h-3.1c-1.2,0-2.1,0.3-2.8,0.8
		S479.4,278.5,479.4,279.5z M481.2,263.3c0,1.2,0.3,2.2,0.9,2.8s1.5,1,2.7,1c2.4,0,3.6-1.3,3.6-3.8c0-1.3-0.3-2.2-0.9-2.9
		s-1.5-1-2.7-1c-1.2,0-2.1,0.3-2.7,1S481.2,262,481.2,263.3z"/>
	<path class="st2" d="M515.4,276.4h-4.1v-12c0-1.5-0.3-2.6-0.9-3.4s-1.6-1.1-2.9-1.1c-1.7,0-3,0.5-3.8,1.6s-1.2,2.8-1.2,5.2v9.7
		h-4.1v-27.4h4.1v6.9c0,1.1-0.1,2.3-0.2,3.6h0.3c0.6-0.9,1.3-1.7,2.3-2.2s2.2-0.8,3.5-0.8c4.7,0,7.1,2.4,7.1,7.1V276.4z"/>
	<path class="st2" d="M546.5,276.4l-2.5-9.1c-0.3-1-0.9-3.2-1.7-6.7h-0.2c-0.7,3.2-1.2,5.4-1.6,6.7l-2.6,9h-4.6l-5.4-19.4h4.2
		l2.5,9.6c0.6,2.4,1,4.4,1.2,6.1h0.1c0.1-0.9,0.3-1.8,0.5-2.9s0.4-1.9,0.6-2.5l3-10.2h4.5l2.9,10.2c0.2,0.6,0.4,1.5,0.7,2.6
		s0.4,2.1,0.5,2.8h0.1c0.2-1.4,0.6-3.5,1.2-6l2.5-9.6h4.1l-5.5,19.4H546.5z"/>
	<path class="st2" d="M568.4,276.8c-3,0-5.4-0.9-7.1-2.6s-2.6-4.2-2.6-7.3c0-3.2,0.8-5.7,2.4-7.5s3.8-2.7,6.5-2.7
		c2.6,0,4.6,0.8,6.1,2.3s2.2,3.7,2.2,6.4v2.2h-13c0.1,1.9,0.6,3.3,1.5,4.4s2.3,1.5,4.1,1.5c1.1,0,2.2-0.1,3.2-0.3s2.1-0.6,3.2-1.1
		v3.4c-1,0.5-2,0.8-3.1,1S569.7,276.8,568.4,276.8z M567.7,259.8c-1.3,0-2.4,0.4-3.2,1.2s-1.3,2-1.4,3.6h8.8c0-1.6-0.4-2.8-1.2-3.6
		S569,259.8,567.7,259.8z"/>
	<path class="st2" d="M590.6,256.6c2.4,0,4.3,0.9,5.7,2.6s2,4.2,2,7.4c0,3.2-0.7,5.7-2.1,7.4s-3.3,2.7-5.7,2.7
		c-2.5,0-4.4-0.9-5.7-2.7h-0.3l-0.8,2.3h-3.1v-27.4h4.1v6.5c0,0.5,0,1.2-0.1,2.1s-0.1,1.6-0.1,1.8h0.2
		C586.1,257.6,588.1,256.6,590.6,256.6z M589.5,260c-1.7,0-2.9,0.5-3.6,1.5s-1.1,2.6-1.1,4.9v0.3c0,2.4,0.4,4.1,1.1,5.1
		s2,1.6,3.7,1.6c1.5,0,2.6-0.6,3.3-1.7s1.1-2.8,1.1-5C594.1,262.2,592.6,260,589.5,260z"/>
	<path class="st2" d="M616.2,270.9c0,1.9-0.7,3.4-2.1,4.4s-3.4,1.5-5.9,1.5c-2.6,0-4.7-0.4-6.2-1.2V272c2.3,1.1,4.4,1.6,6.4,1.6
		c2.5,0,3.8-0.8,3.8-2.3c0-0.5-0.1-0.9-0.4-1.2s-0.7-0.7-1.4-1s-1.5-0.8-2.7-1.2c-2.2-0.9-3.8-1.7-4.5-2.6s-1.2-2-1.2-3.4
		c0-1.7,0.7-3,2-3.9s3.2-1.4,5.5-1.4c2.3,0,4.4,0.5,6.5,1.4l-1.3,3.1c-2.1-0.9-3.9-1.3-5.3-1.3c-2.2,0-3.3,0.6-3.3,1.9
		c0,0.6,0.3,1.1,0.9,1.5s1.8,1,3.7,1.7c1.6,0.6,2.8,1.2,3.5,1.7s1.3,1.1,1.6,1.8S616.2,270,616.2,270.9z"/>
	<path class="st2" d="M620.4,251.9c0-0.7,0.2-1.3,0.6-1.7s1-0.6,1.7-0.6c0.7,0,1.3,0.2,1.7,0.6s0.6,1,0.6,1.7c0,0.7-0.2,1.3-0.6,1.7
		s-1,0.6-1.7,0.6c-0.8,0-1.3-0.2-1.7-0.6S620.4,252.6,620.4,251.9z M624.8,276.4h-4.1V257h4.1V276.4z"/>
	<path class="st2" d="M637.9,273.5c1,0,2-0.2,3-0.5v3.1c-0.5,0.2-1,0.4-1.8,0.5s-1.5,0.2-2.2,0.2c-3.9,0-5.9-2.1-5.9-6.2v-10.5h-2.7
		v-1.8l2.8-1.5l1.4-4.1h2.5v4.3h5.5v3.1h-5.5v10.4c0,1,0.2,1.7,0.7,2.2S637.1,273.5,637.9,273.5z"/>
	<path class="st2" d="M653.3,276.8c-3,0-5.4-0.9-7.1-2.6s-2.6-4.2-2.6-7.3c0-3.2,0.8-5.7,2.4-7.5s3.8-2.7,6.5-2.7
		c2.6,0,4.6,0.8,6.1,2.3s2.2,3.7,2.2,6.4v2.2h-13c0.1,1.9,0.6,3.3,1.5,4.4s2.3,1.5,4.1,1.5c1.1,0,2.2-0.1,3.2-0.3s2.1-0.6,3.2-1.1
		v3.4c-1,0.5-2,0.8-3.1,1S654.6,276.8,653.3,276.8z M652.6,259.8c-1.3,0-2.4,0.4-3.2,1.2s-1.3,2-1.4,3.6h8.8c0-1.6-0.4-2.8-1.2-3.6
		S653.9,259.8,652.6,259.8z"/>
	<path class="st2" d="M669.8,272.7c-0.6,2.2-1.6,5-3.1,8.4h-3c0.8-3.2,1.4-6.1,1.8-8.8h4.1L669.8,272.7z"/>
	<path class="st2" d="M691.8,273.5c1,0,2-0.2,3-0.5v3.1c-0.5,0.2-1,0.4-1.8,0.5s-1.5,0.2-2.2,0.2c-3.9,0-5.9-2.1-5.9-6.2v-10.5h-2.7
		v-1.8l2.8-1.5l1.4-4.1h2.5v4.3h5.5v3.1h-5.5v10.4c0,1,0.2,1.7,0.7,2.2S691,273.5,691.8,273.5z"/>
	<path class="st2" d="M715.9,266.7c0,3.2-0.8,5.7-2.4,7.4s-3.9,2.7-6.8,2.7c-1.8,0-3.4-0.4-4.8-1.2s-2.5-2-3.2-3.5s-1.1-3.3-1.1-5.3
		c0-3.2,0.8-5.6,2.4-7.4s3.9-2.7,6.8-2.7c2.8,0,5,0.9,6.7,2.7S715.9,263.6,715.9,266.7z M701.8,266.7c0,4.5,1.7,6.7,5,6.7
		c3.3,0,4.9-2.2,4.9-6.7c0-4.4-1.7-6.7-5-6.7c-1.7,0-3,0.6-3.8,1.7S701.8,264.5,701.8,266.7z"/>
	<path class="st2" d="M739.9,276.8c-2.5,0-4.4-0.9-5.7-2.7h-0.2c0.2,1.6,0.2,2.6,0.2,3v8H730V257h3.3c0.1,0.4,0.3,1.2,0.6,2.6h0.2
		c1.3-2,3.2-3,5.8-3c2.4,0,4.3,0.9,5.7,2.6s2,4.2,2,7.4s-0.7,5.7-2.1,7.4S742.3,276.8,739.9,276.8z M738.9,260
		c-1.6,0-2.8,0.5-3.6,1.4s-1.1,2.5-1.1,4.6v0.6c0,2.4,0.4,4.1,1.1,5.1s2,1.6,3.7,1.6c1.4,0,2.5-0.6,3.3-1.8s1.2-2.8,1.2-5
		c0-2.2-0.4-3.8-1.2-4.9S740.4,260,738.9,260z"/>
	<path class="st2" d="M762.3,256.6c0.8,0,1.5,0.1,2.1,0.2l-0.4,3.8c-0.6-0.1-1.2-0.2-1.8-0.2c-1.7,0-3,0.5-4,1.6s-1.5,2.5-1.5,4.2
		v10.2h-4.1V257h3.2l0.5,3.4h0.2c0.6-1.2,1.5-2.1,2.5-2.8S761.1,256.6,762.3,256.6z"/>
	<path class="st2" d="M785.2,266.7c0,3.2-0.8,5.7-2.4,7.4s-3.9,2.7-6.8,2.7c-1.8,0-3.4-0.4-4.8-1.2s-2.5-2-3.2-3.5s-1.1-3.3-1.1-5.3
		c0-3.2,0.8-5.6,2.4-7.4s3.9-2.7,6.8-2.7c2.8,0,5,0.9,6.7,2.7S785.2,263.6,785.2,266.7z M771.1,266.7c0,4.5,1.7,6.7,5,6.7
		c3.3,0,4.9-2.2,4.9-6.7c0-4.4-1.7-6.7-5-6.7c-1.7,0-3,0.6-3.8,1.7S771.1,264.5,771.1,266.7z"/>
	<path class="st2" d="M806.3,276.4h-4.1v-12c0-1.5-0.3-2.6-0.8-3.3s-1.4-1.1-2.6-1.1c-1.6,0-2.8,0.5-3.5,1.6s-1.1,2.8-1.1,5.2v9.7
		H790V257h3.2l0.6,2.5h0.2c0.5-0.9,1.3-1.6,2.3-2.1s2.2-0.8,3.4-0.8c3,0,5,1,5.9,3.1h0.3c0.6-1,1.4-1.7,2.4-2.2s2.2-0.8,3.6-0.8
		c2.3,0,4,0.6,5.1,1.8s1.6,3,1.6,5.4v12.7h-4.1v-12c0-1.5-0.3-2.6-0.9-3.3s-1.5-1.1-2.6-1.1c-1.6,0-2.8,0.5-3.5,1.5
		s-1.1,2.5-1.1,4.6V276.4z"/>
	<path class="st2" d="M841.6,266.7c0,3.2-0.8,5.7-2.4,7.4s-3.9,2.7-6.8,2.7c-1.8,0-3.4-0.4-4.8-1.2s-2.5-2-3.2-3.5s-1.1-3.3-1.1-5.3
		c0-3.2,0.8-5.6,2.4-7.4s3.9-2.7,6.8-2.7c2.8,0,5,0.9,6.7,2.7S841.6,263.6,841.6,266.7z M827.5,266.7c0,4.5,1.7,6.7,5,6.7
		c3.3,0,4.9-2.2,4.9-6.7c0-4.4-1.7-6.7-5-6.7c-1.7,0-3,0.6-3.8,1.7S827.5,264.5,827.5,266.7z"/>
	<path class="st2" d="M872.1,276.4H868v-12c0-1.5-0.3-2.6-0.8-3.3s-1.4-1.1-2.6-1.1c-1.6,0-2.8,0.5-3.5,1.6s-1.1,2.8-1.1,5.2v9.7
		h-4.1V257h3.2l0.6,2.5h0.2c0.5-0.9,1.3-1.6,2.3-2.1s2.2-0.8,3.4-0.8c3,0,5,1,5.9,3.1h0.3c0.6-1,1.4-1.7,2.4-2.2s2.2-0.8,3.6-0.8
		c2.3,0,4,0.6,5.1,1.8s1.6,3,1.6,5.4v12.7h-4.1v-12c0-1.5-0.3-2.6-0.9-3.3s-1.5-1.1-2.6-1.1c-1.6,0-2.8,0.5-3.5,1.5
		s-1.1,2.5-1.1,4.6V276.4z"/>
	<path class="st2" d="M902.3,276.4l-0.8-2.7h-0.1c-0.9,1.2-1.9,2-2.8,2.4s-2.2,0.6-3.7,0.6c-1.9,0-3.4-0.5-4.5-1.5s-1.6-2.5-1.6-4.4
		c0-2,0.7-3.5,2.2-4.5s3.8-1.6,6.8-1.7l3.4-0.1v-1c0-1.2-0.3-2.2-0.9-2.8s-1.5-0.9-2.7-0.9c-1,0-2,0.1-2.9,0.4s-1.8,0.6-2.6,1
		l-1.3-3c1.1-0.6,2.2-1,3.5-1.3s2.4-0.4,3.6-0.4c2.5,0,4.3,0.5,5.6,1.6s1.9,2.8,1.9,5.1v13.1H902.3z M896.2,273.6
		c1.5,0,2.7-0.4,3.6-1.3s1.4-2,1.4-3.5v-1.7l-2.5,0.1c-1.9,0.1-3.4,0.4-4.2,1s-1.3,1.5-1.3,2.7c0,0.9,0.3,1.5,0.8,2
		S895.1,273.6,896.2,273.6z"/>
	<path class="st2" d="M918.3,273.5c1,0,2-0.2,3-0.5v3.1c-0.5,0.2-1,0.4-1.8,0.5s-1.5,0.2-2.2,0.2c-3.9,0-5.9-2.1-5.9-6.2v-10.5h-2.7
		v-1.8l2.8-1.5l1.4-4.1h2.5v4.3h5.5v3.1h-5.5v10.4c0,1,0.2,1.7,0.7,2.2S917.5,273.5,918.3,273.5z"/>
	<path class="st2" d="M933.7,276.8c-3,0-5.4-0.9-7.1-2.6s-2.6-4.2-2.6-7.3c0-3.2,0.8-5.7,2.4-7.5s3.8-2.7,6.5-2.7
		c2.6,0,4.6,0.8,6.1,2.3s2.2,3.7,2.2,6.4v2.2h-13c0.1,1.9,0.6,3.3,1.5,4.4s2.3,1.5,4.1,1.5c1.1,0,2.2-0.1,3.2-0.3s2.1-0.6,3.2-1.1
		v3.4c-1,0.5-2,0.8-3.1,1S935,276.8,933.7,276.8z M932.9,259.8c-1.3,0-2.4,0.4-3.2,1.2s-1.3,2-1.4,3.6h8.8c0-1.6-0.4-2.8-1.2-3.6
		S934.2,259.8,932.9,259.8z"/>
	<path class="st2" d="M955.8,256.6c0.8,0,1.5,0.1,2.1,0.2l-0.4,3.8c-0.6-0.1-1.2-0.2-1.8-0.2c-1.7,0-3,0.5-4,1.6s-1.5,2.5-1.5,4.2
		v10.2h-4.1V257h3.2l0.5,3.4h0.2c0.6-1.2,1.5-2.1,2.5-2.8S954.6,256.6,955.8,256.6z"/>
	<path class="st2" d="M961.2,251.9c0-0.7,0.2-1.3,0.6-1.7s1-0.6,1.7-0.6c0.7,0,1.3,0.2,1.7,0.6s0.6,1,0.6,1.7c0,0.7-0.2,1.3-0.6,1.7
		s-1,0.6-1.7,0.6c-0.8,0-1.3-0.2-1.7-0.6S961.2,252.6,961.2,251.9z M965.6,276.4h-4.1V257h4.1V276.4z"/>
	<path class="st2" d="M983.6,276.4l-0.8-2.7h-0.1c-0.9,1.2-1.9,2-2.8,2.4s-2.2,0.6-3.7,0.6c-1.9,0-3.4-0.5-4.5-1.5s-1.6-2.5-1.6-4.4
		c0-2,0.7-3.5,2.2-4.5s3.8-1.6,6.8-1.7l3.4-0.1v-1c0-1.2-0.3-2.2-0.9-2.8s-1.5-0.9-2.7-0.9c-1,0-2,0.1-2.9,0.4s-1.8,0.6-2.6,1
		l-1.3-3c1.1-0.6,2.2-1,3.5-1.3s2.4-0.4,3.6-0.4c2.5,0,4.3,0.5,5.6,1.6s1.9,2.8,1.9,5.1v13.1H983.6z M977.5,273.6
		c1.5,0,2.7-0.4,3.6-1.3s1.4-2,1.4-3.5v-1.7l-2.5,0.1c-1.9,0.1-3.4,0.4-4.2,1s-1.3,1.5-1.3,2.7c0,0.9,0.3,1.5,0.8,2
		S976.5,273.6,977.5,273.6z"/>
	<path class="st2" d="M996.5,276.4h-4.1v-27.4h4.1V276.4z"/>
	<path class="st2" d="M1015.5,270.9c0,1.9-0.7,3.4-2.1,4.4s-3.4,1.5-5.9,1.5c-2.6,0-4.7-0.4-6.2-1.2V272c2.3,1.1,4.4,1.6,6.4,1.6
		c2.5,0,3.8-0.8,3.8-2.3c0-0.5-0.1-0.9-0.4-1.2s-0.7-0.7-1.4-1s-1.5-0.8-2.7-1.2c-2.2-0.9-3.8-1.7-4.5-2.6s-1.2-2-1.2-3.4
		c0-1.7,0.7-3,2-3.9s3.2-1.4,5.5-1.4c2.3,0,4.4,0.5,6.5,1.4l-1.3,3.1c-2.1-0.9-3.9-1.3-5.3-1.3c-2.2,0-3.3,0.6-3.3,1.9
		c0,0.6,0.3,1.1,0.9,1.5s1.8,1,3.7,1.7c1.6,0.6,2.8,1.2,3.5,1.7s1.3,1.1,1.6,1.8S1015.5,270,1015.5,270.9z"/>
	<path class="st2" d="M20.2,309.9c0,3.2-0.8,5.7-2.4,7.4S13.9,320,11,320c-1.8,0-3.4-0.4-4.8-1.2s-2.5-2-3.2-3.5s-1.1-3.3-1.1-5.3
		c0-3.2,0.8-5.6,2.4-7.4s3.9-2.7,6.8-2.7c2.8,0,5,0.9,6.7,2.7S20.2,306.8,20.2,309.9z M6,309.9c0,4.5,1.7,6.7,5,6.7
		c3.3,0,4.9-2.2,4.9-6.7c0-4.4-1.7-6.7-5-6.7c-1.7,0-3,0.6-3.8,1.7S6,307.7,6,309.9z"/>
	<path class="st2" d="M38.7,319.6l-0.6-2.5h-0.2c-0.6,0.9-1.4,1.6-2.5,2.1s-2.3,0.8-3.6,0.8c-2.4,0-4.1-0.6-5.3-1.8
		s-1.7-2.9-1.7-5.3v-12.7h4.2v12c0,1.5,0.3,2.6,0.9,3.3s1.6,1.1,2.9,1.1c1.7,0,3-0.5,3.8-1.6s1.2-2.8,1.2-5.2v-9.7h4.1v19.4H38.7z"
		/>
	<path class="st2" d="M57.7,299.8c0.8,0,1.5,0.1,2.1,0.2l-0.4,3.8c-0.6-0.1-1.2-0.2-1.8-0.2c-1.7,0-3,0.5-4,1.6s-1.5,2.5-1.5,4.2
		v10.2h-4.1v-19.4H51l0.5,3.4h0.2c0.6-1.2,1.5-2.1,2.5-2.8S56.5,299.8,57.7,299.8z"/>
	<path class="st2" d="M79.9,316.7c1,0,2-0.2,3-0.5v3.1c-0.5,0.2-1,0.4-1.8,0.5s-1.5,0.2-2.2,0.2c-3.9,0-5.9-2.1-5.9-6.2v-10.5h-2.7
		v-1.8l2.8-1.5l1.4-4.1h2.5v4.3h5.5v3.1h-5.5v10.4c0,1,0.2,1.7,0.7,2.2S79.1,316.7,79.9,316.7z"/>
	<path class="st2" d="M95.3,320c-3,0-5.4-0.9-7.1-2.6s-2.6-4.2-2.6-7.3c0-3.2,0.8-5.7,2.4-7.5s3.8-2.7,6.5-2.7
		c2.6,0,4.6,0.8,6.1,2.3s2.2,3.7,2.2,6.4v2.2h-13c0.1,1.9,0.6,3.3,1.5,4.4s2.3,1.5,4.1,1.5c1.1,0,2.2-0.1,3.2-0.3s2.1-0.6,3.2-1.1
		v3.4c-1,0.5-2,0.8-3.1,1S96.6,320,95.3,320z M94.6,303c-1.3,0-2.4,0.4-3.2,1.2s-1.3,2-1.4,3.6h8.8c0-1.6-0.4-2.8-1.2-3.6
		S95.9,303,94.6,303z"/>
	<path class="st2" d="M119.7,319.6l-0.8-2.7h-0.1c-0.9,1.2-1.9,2-2.8,2.4s-2.2,0.6-3.7,0.6c-1.9,0-3.4-0.5-4.5-1.5s-1.6-2.5-1.6-4.4
		c0-2,0.7-3.5,2.2-4.5s3.8-1.6,6.8-1.7l3.4-0.1v-1c0-1.2-0.3-2.2-0.9-2.8s-1.5-0.9-2.7-0.9c-1,0-2,0.1-2.9,0.4s-1.8,0.6-2.6,1
		l-1.3-3c1.1-0.6,2.2-1,3.5-1.3s2.4-0.4,3.6-0.4c2.5,0,4.3,0.5,5.6,1.6s1.9,2.8,1.9,5.1v13.1H119.7z M113.6,316.8
		c1.5,0,2.7-0.4,3.6-1.3s1.4-2,1.4-3.5v-1.7l-2.5,0.1c-1.9,0.1-3.4,0.4-4.2,1s-1.3,1.5-1.3,2.7c0,0.9,0.3,1.5,0.8,2
		S112.5,316.8,113.6,316.8z"/>
	<path class="st2" d="M144.8,319.6h-4.1v-12c0-1.5-0.3-2.6-0.8-3.3s-1.4-1.1-2.6-1.1c-1.6,0-2.8,0.5-3.5,1.6s-1.1,2.8-1.1,5.2v9.7
		h-4.1v-19.4h3.2l0.6,2.5h0.2c0.5-0.9,1.3-1.6,2.3-2.1s2.2-0.8,3.4-0.8c3,0,5,1,5.9,3.1h0.3c0.6-1,1.4-1.7,2.4-2.2s2.2-0.8,3.6-0.8
		c2.3,0,4,0.6,5.1,1.8s1.6,3,1.6,5.4v12.7H153v-12c0-1.5-0.3-2.6-0.9-3.3s-1.5-1.1-2.6-1.1c-1.6,0-2.8,0.5-3.5,1.5s-1.1,2.5-1.1,4.6
		V319.6z"/>
	<path class="st2" d="M189.5,309.9c0,3.2-0.8,5.7-2.4,7.4s-3.9,2.7-6.8,2.7c-1.8,0-3.4-0.4-4.8-1.2s-2.5-2-3.2-3.5s-1.1-3.3-1.1-5.3
		c0-3.2,0.8-5.6,2.4-7.4s3.9-2.7,6.8-2.7c2.8,0,5,0.9,6.7,2.7S189.5,306.8,189.5,309.9z M175.3,309.9c0,4.5,1.7,6.7,5,6.7
		c3.3,0,4.9-2.2,4.9-6.7c0-4.4-1.7-6.7-5-6.7c-1.7,0-3,0.6-3.8,1.7S175.3,307.7,175.3,309.9z"/>
	<path class="st2" d="M204,303.3h-4.7v16.3h-4.1v-16.3h-3.2v-1.9l3.2-1.3v-1.3c0-2.3,0.5-4,1.6-5.1s2.7-1.7,4.9-1.7
		c1.5,0,2.9,0.2,4.3,0.7l-1.1,3.1c-1-0.3-2-0.5-2.9-0.5c-0.9,0-1.6,0.3-2,0.9s-0.6,1.5-0.6,2.6v1.3h4.7V303.3z"/>
	<path class="st2" d="M223.9,316.7c1,0,2-0.2,3-0.5v3.1c-0.5,0.2-1,0.4-1.8,0.5s-1.5,0.2-2.2,0.2c-3.9,0-5.9-2.1-5.9-6.2v-10.5h-2.7
		v-1.8l2.8-1.5l1.4-4.1h2.5v4.3h5.5v3.1h-5.5v10.4c0,1,0.2,1.7,0.7,2.2S223,316.7,223.9,316.7z"/>
	<path class="st2" d="M246.7,319.6l-2.5-9.1c-0.3-1-0.9-3.2-1.7-6.7h-0.2c-0.7,3.2-1.2,5.4-1.6,6.7l-2.6,9h-4.6l-5.4-19.4h4.2
		l2.5,9.6c0.6,2.4,1,4.4,1.2,6.1h0.1c0.1-0.9,0.3-1.8,0.5-2.9s0.4-1.9,0.6-2.5l3-10.2h4.5l2.9,10.2c0.2,0.6,0.4,1.5,0.7,2.6
		s0.4,2.1,0.5,2.8h0.1c0.2-1.4,0.6-3.5,1.2-6l2.5-9.6h4.1l-5.5,19.4H246.7z"/>
	<path class="st2" d="M277.4,309.9c0,3.2-0.8,5.7-2.4,7.4s-3.9,2.7-6.8,2.7c-1.8,0-3.4-0.4-4.8-1.2s-2.5-2-3.2-3.5s-1.1-3.3-1.1-5.3
		c0-3.2,0.8-5.6,2.4-7.4s3.9-2.7,6.8-2.7c2.8,0,5,0.9,6.7,2.7S277.4,306.8,277.4,309.9z M263.3,309.9c0,4.5,1.7,6.7,5,6.7
		c3.3,0,4.9-2.2,4.9-6.7c0-4.4-1.7-6.7-5-6.7c-1.7,0-3,0.6-3.8,1.7S263.3,307.7,263.3,309.9z"/>
	<path class="st2" d="M307.5,319.6l-2.5-9.1c-0.3-1-0.9-3.2-1.7-6.7h-0.2c-0.7,3.2-1.2,5.4-1.6,6.7l-2.6,9h-4.6l-5.4-19.4h4.2
		l2.5,9.6c0.6,2.4,1,4.4,1.2,6.1h0.1c0.1-0.9,0.3-1.8,0.5-2.9s0.4-1.9,0.6-2.5l3-10.2h4.5l2.9,10.2c0.2,0.6,0.4,1.5,0.7,2.6
		s0.4,2.1,0.5,2.8h0.1c0.2-1.4,0.6-3.5,1.2-6l2.5-9.6h4.1l-5.5,19.4H307.5z"/>
	<path class="st2" d="M320.7,295.1c0-0.7,0.2-1.3,0.6-1.7s1-0.6,1.7-0.6c0.7,0,1.3,0.2,1.7,0.6s0.6,1,0.6,1.7c0,0.7-0.2,1.3-0.6,1.7
		s-1,0.6-1.7,0.6c-0.8,0-1.3-0.2-1.7-0.6S320.7,295.8,320.7,295.1z M325.1,319.6h-4.1v-19.4h4.1V319.6z"/>
	<path class="st2" d="M335.1,319.6H331v-27.4h4.1V319.6z"/>
	<path class="st2" d="M345.1,319.6H341v-27.4h4.1V319.6z"/>
	<path class="st2" d="M376.8,300.2v2.3l-3.3,0.6c0.3,0.4,0.6,0.9,0.8,1.5s0.3,1.2,0.3,1.9c0,2-0.7,3.6-2.1,4.7s-3.3,1.7-5.7,1.7
		c-0.6,0-1.2,0-1.7-0.1c-0.9,0.6-1.3,1.2-1.3,1.9c0,0.4,0.2,0.8,0.6,1s1.2,0.3,2.3,0.3h3.4c2.1,0,3.8,0.5,4.9,1.4s1.7,2.2,1.7,4
		c0,2.2-0.9,3.9-2.7,5.1s-4.4,1.8-7.9,1.8c-2.6,0-4.7-0.5-6.1-1.4s-2.1-2.3-2.1-4c0-1.2,0.4-2.2,1.1-3s1.8-1.4,3.2-1.7
		c-0.6-0.2-1-0.6-1.4-1.1s-0.5-1.1-0.5-1.6c0-0.7,0.2-1.3,0.6-1.8s1-1,1.8-1.5c-1-0.4-1.8-1.1-2.5-2.1s-0.9-2.1-0.9-3.4
		c0-2.1,0.7-3.7,2-4.9s3.2-1.7,5.7-1.7c0.6,0,1.1,0,1.7,0.1s1.1,0.2,1.4,0.2H376.8z M361.5,322.7c0,0.9,0.4,1.6,1.2,2.1
		s1.9,0.7,3.4,0.7c2.2,0,3.9-0.3,5-1s1.7-1.5,1.7-2.6c0-0.8-0.3-1.4-0.9-1.8s-1.7-0.5-3.4-0.5h-3.1c-1.2,0-2.1,0.3-2.8,0.8
		S361.5,321.7,361.5,322.7z M363.3,306.5c0,1.2,0.3,2.2,0.9,2.8s1.5,1,2.7,1c2.4,0,3.6-1.3,3.6-3.8c0-1.3-0.3-2.2-0.9-2.9
		s-1.5-1-2.7-1c-1.2,0-2.1,0.3-2.7,1S363.3,305.2,363.3,306.5z"/>
	<path class="st2" d="M380.2,295.1c0-0.7,0.2-1.3,0.6-1.7s1-0.6,1.7-0.6c0.7,0,1.3,0.2,1.7,0.6s0.6,1,0.6,1.7c0,0.7-0.2,1.3-0.6,1.7
		s-1,0.6-1.7,0.6c-0.8,0-1.3-0.2-1.7-0.6S380.2,295.8,380.2,295.1z M384.5,319.6h-4.1v-19.4h4.1V319.6z"/>
	<path class="st2" d="M394.9,319.6l-7.4-19.4h4.4l4,11.3c0.7,1.9,1.1,3.4,1.2,4.6h0.1c0.1-0.8,0.5-2.4,1.2-4.6l4-11.3h4.4l-7.4,19.4
		H394.9z"/>
	<path class="st2" d="M418.2,320c-3,0-5.4-0.9-7.1-2.6s-2.6-4.2-2.6-7.3c0-3.2,0.8-5.7,2.4-7.5s3.8-2.7,6.5-2.7
		c2.6,0,4.6,0.8,6.1,2.3s2.2,3.7,2.2,6.4v2.2h-13c0.1,1.9,0.6,3.3,1.5,4.4s2.3,1.5,4.1,1.5c1.1,0,2.2-0.1,3.2-0.3s2.1-0.6,3.2-1.1
		v3.4c-1,0.5-2,0.8-3.1,1S419.5,320,418.2,320z M417.4,303c-1.3,0-2.4,0.4-3.2,1.2s-1.3,2-1.4,3.6h8.8c0-1.6-0.4-2.8-1.2-3.6
		S418.8,303,417.4,303z"/>
	<path class="st2" d="M436.9,300.2h4.5l4,11c0.6,1.6,1,3,1.2,4.4h0.1c0.1-0.6,0.3-1.4,0.6-2.3s1.8-5.3,4.5-13.1h4.5l-8.3,22
		c-1.5,4-4,6.1-7.6,6.1c-0.9,0-1.8-0.1-2.7-0.3v-3.3c0.6,0.1,1.3,0.2,2.1,0.2c2,0,3.4-1.2,4.2-3.5l0.7-1.8L436.9,300.2z"/>
	<path class="st2" d="M476.3,309.9c0,3.2-0.8,5.7-2.4,7.4s-3.9,2.7-6.8,2.7c-1.8,0-3.4-0.4-4.8-1.2s-2.5-2-3.2-3.5s-1.1-3.3-1.1-5.3
		c0-3.2,0.8-5.6,2.4-7.4s3.9-2.7,6.8-2.7c2.8,0,5,0.9,6.7,2.7S476.3,306.8,476.3,309.9z M462.2,309.9c0,4.5,1.7,6.7,5,6.7
		c3.3,0,4.9-2.2,4.9-6.7c0-4.4-1.7-6.7-5-6.7c-1.7,0-3,0.6-3.8,1.7S462.2,307.7,462.2,309.9z"/>
	<path class="st2" d="M494.8,319.6l-0.6-2.5H494c-0.6,0.9-1.4,1.6-2.5,2.1s-2.3,0.8-3.6,0.8c-2.4,0-4.1-0.6-5.3-1.8
		s-1.7-2.9-1.7-5.3v-12.7h4.2v12c0,1.5,0.3,2.6,0.9,3.3s1.6,1.1,2.9,1.1c1.7,0,3-0.5,3.8-1.6s1.2-2.8,1.2-5.2v-9.7h4.1v19.4H494.8z"
		/>
	<path class="st2" d="M513.8,299.8c0.8,0,1.5,0.1,2.1,0.2l-0.4,3.8c-0.6-0.1-1.2-0.2-1.8-0.2c-1.7,0-3,0.5-4,1.6s-1.5,2.5-1.5,4.2
		v10.2h-4.1v-19.4h3.2l0.5,3.4h0.2c0.6-1.2,1.5-2.1,2.5-2.8S512.6,299.8,513.8,299.8z"/>
	<path class="st2" d="M538.8,299.8c2.4,0,4.3,0.9,5.7,2.6s2,4.2,2,7.4c0,3.2-0.7,5.7-2.1,7.4s-3.3,2.7-5.7,2.7
		c-2.5,0-4.4-0.9-5.7-2.7h-0.3l-0.8,2.3h-3.1v-27.4h4.1v6.5c0,0.5,0,1.2-0.1,2.1s-0.1,1.6-0.1,1.8h0.2
		C534.3,300.8,536.2,299.8,538.8,299.8z M537.7,303.2c-1.7,0-2.9,0.5-3.6,1.5s-1.1,2.6-1.1,4.9v0.3c0,2.4,0.4,4.1,1.1,5.1
		s2,1.6,3.7,1.6c1.5,0,2.6-0.6,3.3-1.7s1.1-2.8,1.1-5C542.2,305.4,540.7,303.2,537.7,303.2z"/>
	<path class="st2" d="M565,319.6l-0.6-2.5h-0.2c-0.6,0.9-1.4,1.6-2.5,2.1s-2.3,0.8-3.6,0.8c-2.4,0-4.1-0.6-5.3-1.8s-1.7-2.9-1.7-5.3
		v-12.7h4.2v12c0,1.5,0.3,2.6,0.9,3.3s1.6,1.1,2.9,1.1c1.7,0,3-0.5,3.8-1.6s1.2-2.8,1.2-5.2v-9.7h4.1v19.4H565z"/>
	<path class="st2" d="M587.2,314.1c0,1.9-0.7,3.4-2.1,4.4s-3.4,1.5-5.9,1.5c-2.6,0-4.7-0.4-6.2-1.2v-3.6c2.3,1.1,4.4,1.6,6.4,1.6
		c2.5,0,3.8-0.8,3.8-2.3c0-0.5-0.1-0.9-0.4-1.2s-0.7-0.7-1.4-1s-1.5-0.8-2.7-1.2c-2.2-0.9-3.8-1.7-4.5-2.6s-1.2-2-1.2-3.4
		c0-1.7,0.7-3,2-3.9s3.2-1.4,5.5-1.4c2.3,0,4.4,0.5,6.5,1.4l-1.3,3.1c-2.1-0.9-3.9-1.3-5.3-1.3c-2.2,0-3.3,0.6-3.3,1.9
		c0,0.6,0.3,1.1,0.9,1.5s1.8,1,3.7,1.7c1.6,0.6,2.8,1.2,3.5,1.7s1.3,1.1,1.6,1.8S587.2,313.2,587.2,314.1z"/>
	<path class="st2" d="M591.4,295.1c0-0.7,0.2-1.3,0.6-1.7s1-0.6,1.7-0.6c0.7,0,1.3,0.2,1.7,0.6s0.6,1,0.6,1.7c0,0.7-0.2,1.3-0.6,1.7
		s-1,0.6-1.7,0.6c-0.8,0-1.3-0.2-1.7-0.6S591.4,295.8,591.4,295.1z M595.8,319.6h-4.1v-19.4h4.1V319.6z"/>
	<path class="st2" d="M618.8,319.6h-4.1v-12c0-1.5-0.3-2.6-0.9-3.4s-1.6-1.1-2.9-1.1c-1.7,0-3,0.5-3.8,1.5s-1.2,2.8-1.2,5.2v9.7
		h-4.1v-19.4h3.2l0.6,2.5h0.2c0.6-0.9,1.4-1.6,2.5-2.1s2.3-0.8,3.6-0.8c4.7,0,7,2.4,7,7.1V319.6z"/>
	<path class="st2" d="M633,320c-3,0-5.4-0.9-7.1-2.6s-2.6-4.2-2.6-7.3c0-3.2,0.8-5.7,2.4-7.5s3.8-2.7,6.5-2.7c2.6,0,4.6,0.8,6.1,2.3
		s2.2,3.7,2.2,6.4v2.2h-13c0.1,1.9,0.6,3.3,1.5,4.4s2.3,1.5,4.1,1.5c1.1,0,2.2-0.1,3.2-0.3s2.1-0.6,3.2-1.1v3.4c-1,0.5-2,0.8-3.1,1
		S634.3,320,633,320z M632.2,303c-1.3,0-2.4,0.4-3.2,1.2s-1.3,2-1.4,3.6h8.8c0-1.6-0.4-2.8-1.2-3.6S633.6,303,632.2,303z"/>
	<path class="st2" d="M658.3,314.1c0,1.9-0.7,3.4-2.1,4.4s-3.4,1.5-5.9,1.5c-2.6,0-4.7-0.4-6.2-1.2v-3.6c2.3,1.1,4.4,1.6,6.4,1.6
		c2.5,0,3.8-0.8,3.8-2.3c0-0.5-0.1-0.9-0.4-1.2s-0.7-0.7-1.4-1s-1.5-0.8-2.7-1.2c-2.2-0.9-3.8-1.7-4.5-2.6s-1.2-2-1.2-3.4
		c0-1.7,0.7-3,2-3.9s3.2-1.4,5.5-1.4c2.3,0,4.4,0.5,6.5,1.4l-1.3,3.1c-2.1-0.9-3.9-1.3-5.3-1.3c-2.2,0-3.3,0.6-3.3,1.9
		c0,0.6,0.3,1.1,0.9,1.5s1.8,1,3.7,1.7c1.6,0.6,2.8,1.2,3.5,1.7s1.3,1.1,1.6,1.8S658.3,313.2,658.3,314.1z"/>
	<path class="st2" d="M675.8,314.1c0,1.9-0.7,3.4-2.1,4.4s-3.4,1.5-5.9,1.5c-2.6,0-4.7-0.4-6.2-1.2v-3.6c2.3,1.1,4.4,1.6,6.4,1.6
		c2.5,0,3.8-0.8,3.8-2.3c0-0.5-0.1-0.9-0.4-1.2s-0.7-0.7-1.4-1s-1.5-0.8-2.7-1.2c-2.2-0.9-3.8-1.7-4.5-2.6s-1.2-2-1.2-3.4
		c0-1.7,0.7-3,2-3.9s3.2-1.4,5.5-1.4c2.3,0,4.4,0.5,6.5,1.4l-1.3,3.1c-2.1-0.9-3.9-1.3-5.3-1.3c-2.2,0-3.3,0.6-3.3,1.9
		c0,0.6,0.3,1.1,0.9,1.5s1.8,1,3.7,1.7c1.6,0.6,2.8,1.2,3.5,1.7s1.3,1.1,1.6,1.8S675.8,313.2,675.8,314.1z"/>
	<path class="st2" d="M698.2,320c-3,0-5.4-0.9-7.1-2.6s-2.6-4.2-2.6-7.3c0-3.2,0.8-5.7,2.4-7.5s3.8-2.7,6.5-2.7
		c2.6,0,4.6,0.8,6.1,2.3s2.2,3.7,2.2,6.4v2.2h-13c0.1,1.9,0.6,3.3,1.5,4.4s2.3,1.5,4.1,1.5c1.1,0,2.2-0.1,3.2-0.3s2.1-0.6,3.2-1.1
		v3.4c-1,0.5-2,0.8-3.1,1S699.5,320,698.2,320z M697.4,303c-1.3,0-2.4,0.4-3.2,1.2s-1.3,2-1.4,3.6h8.8c0-1.6-0.4-2.8-1.2-3.6
		S698.7,303,697.4,303z"/>
	<path class="st2" d="M714.8,319.6l-7.4-19.4h4.4l4,11.3c0.7,1.9,1.1,3.4,1.2,4.6h0.1c0.1-0.8,0.5-2.4,1.2-4.6l4-11.3h4.4l-7.4,19.4
		H714.8z"/>
	<path class="st2" d="M738.2,320c-3,0-5.4-0.9-7.1-2.6s-2.6-4.2-2.6-7.3c0-3.2,0.8-5.7,2.4-7.5s3.8-2.7,6.5-2.7
		c2.6,0,4.6,0.8,6.1,2.3s2.2,3.7,2.2,6.4v2.2h-13c0.1,1.9,0.6,3.3,1.5,4.4s2.3,1.5,4.1,1.5c1.1,0,2.2-0.1,3.2-0.3s2.1-0.6,3.2-1.1
		v3.4c-1,0.5-2,0.8-3.1,1S739.5,320,738.2,320z M737.4,303c-1.3,0-2.4,0.4-3.2,1.2s-1.3,2-1.4,3.6h8.8c0-1.6-0.4-2.8-1.2-3.6
		S738.7,303,737.4,303z"/>
	<path class="st2" d="M767.5,319.6h-4.1v-12c0-1.5-0.3-2.6-0.9-3.4s-1.6-1.1-2.9-1.1c-1.7,0-3,0.5-3.8,1.5s-1.2,2.8-1.2,5.2v9.7
		h-4.1v-19.4h3.2l0.6,2.5h0.2c0.6-0.9,1.4-1.6,2.5-2.1s2.3-0.8,3.6-0.8c4.7,0,7,2.4,7,7.1V319.6z"/>
	<path class="st2" d="M799,319.6h-4.1v-12c0-1.5-0.3-2.6-0.8-3.3s-1.4-1.1-2.6-1.1c-1.6,0-2.8,0.5-3.5,1.6s-1.1,2.8-1.1,5.2v9.7
		h-4.1v-19.4h3.2l0.6,2.5h0.2c0.5-0.9,1.3-1.6,2.3-2.1s2.2-0.8,3.4-0.8c3,0,5,1,5.9,3.1h0.3c0.6-1,1.4-1.7,2.4-2.2s2.2-0.8,3.6-0.8
		c2.3,0,4,0.6,5.1,1.8s1.6,3,1.6,5.4v12.7h-4.1v-12c0-1.5-0.3-2.6-0.9-3.3s-1.5-1.1-2.6-1.1c-1.6,0-2.8,0.5-3.5,1.5
		s-1.1,2.5-1.1,4.6V319.6z"/>
	<path class="st2" d="M834.3,309.9c0,3.2-0.8,5.7-2.4,7.4s-3.9,2.7-6.8,2.7c-1.8,0-3.4-0.4-4.8-1.2s-2.5-2-3.2-3.5s-1.1-3.3-1.1-5.3
		c0-3.2,0.8-5.6,2.4-7.4s3.9-2.7,6.8-2.7c2.8,0,5,0.9,6.7,2.7S834.3,306.8,834.3,309.9z M820.1,309.9c0,4.5,1.7,6.7,5,6.7
		c3.3,0,4.9-2.2,4.9-6.7c0-4.4-1.7-6.7-5-6.7c-1.7,0-3,0.6-3.8,1.7S820.1,307.7,820.1,309.9z"/>
	<path class="st2" d="M848.9,299.8c0.8,0,1.5,0.1,2.1,0.2l-0.4,3.8c-0.6-0.1-1.2-0.2-1.8-0.2c-1.7,0-3,0.5-4,1.6s-1.5,2.5-1.5,4.2
		v10.2H839v-19.4h3.2l0.5,3.4h0.2c0.6-1.2,1.5-2.1,2.5-2.8S847.7,299.8,848.9,299.8z"/>
	<path class="st2" d="M863,320c-3,0-5.4-0.9-7.1-2.6s-2.6-4.2-2.6-7.3c0-3.2,0.8-5.7,2.4-7.5s3.8-2.7,6.5-2.7c2.6,0,4.6,0.8,6.1,2.3
		s2.2,3.7,2.2,6.4v2.2h-13c0.1,1.9,0.6,3.3,1.5,4.4s2.3,1.5,4.1,1.5c1.1,0,2.2-0.1,3.2-0.3s2.1-0.6,3.2-1.1v3.4c-1,0.5-2,0.8-3.1,1
		S864.4,320,863,320z M862.3,303c-1.3,0-2.4,0.4-3.2,1.2s-1.3,2-1.4,3.6h8.8c0-1.6-0.4-2.8-1.2-3.6S863.6,303,862.3,303z"/>
	<path class="st2" d="M896.8,319.6l-0.8-2.7h-0.1c-0.9,1.2-1.9,2-2.8,2.4s-2.2,0.6-3.7,0.6c-1.9,0-3.4-0.5-4.5-1.5s-1.6-2.5-1.6-4.4
		c0-2,0.7-3.5,2.2-4.5s3.8-1.6,6.8-1.7l3.4-0.1v-1c0-1.2-0.3-2.2-0.9-2.8s-1.5-0.9-2.7-0.9c-1,0-2,0.1-2.9,0.4s-1.8,0.6-2.6,1
		l-1.3-3c1.1-0.6,2.2-1,3.5-1.3s2.4-0.4,3.6-0.4c2.5,0,4.3,0.5,5.6,1.6s1.9,2.8,1.9,5.1v13.1H896.8z M890.6,316.8
		c1.5,0,2.7-0.4,3.6-1.3s1.4-2,1.4-3.5v-1.7l-2.5,0.1c-1.9,0.1-3.4,0.4-4.2,1s-1.3,1.5-1.3,2.7c0,0.9,0.3,1.5,0.8,2
		S889.6,316.8,890.6,316.8z"/>
	<path class="st2" d="M915.4,320c-2.5,0-4.4-0.9-5.7-2.7h-0.2c0.2,1.6,0.2,2.6,0.2,3v8h-4.1v-28.1h3.3c0.1,0.4,0.3,1.2,0.6,2.6h0.2
		c1.3-2,3.2-3,5.8-3c2.4,0,4.3,0.9,5.7,2.6s2,4.2,2,7.4s-0.7,5.7-2.1,7.4S917.8,320,915.4,320z M914.4,303.2c-1.6,0-2.8,0.5-3.6,1.4
		s-1.1,2.5-1.1,4.6v0.6c0,2.4,0.4,4.1,1.1,5.1s2,1.6,3.7,1.6c1.4,0,2.5-0.6,3.3-1.8s1.2-2.8,1.2-5c0-2.2-0.4-3.8-1.2-4.9
		S915.9,303.2,914.4,303.2z"/>
	<path class="st2" d="M937.8,320c-2.5,0-4.4-0.9-5.7-2.7h-0.2c0.2,1.6,0.2,2.6,0.2,3v8h-4.1v-28.1h3.3c0.1,0.4,0.3,1.2,0.6,2.6h0.2
		c1.3-2,3.2-3,5.8-3c2.4,0,4.3,0.9,5.7,2.6s2,4.2,2,7.4s-0.7,5.7-2.1,7.4S940.2,320,937.8,320z M936.8,303.2c-1.6,0-2.8,0.5-3.6,1.4
		s-1.1,2.5-1.1,4.6v0.6c0,2.4,0.4,4.1,1.1,5.1s2,1.6,3.7,1.6c1.4,0,2.5-0.6,3.3-1.8s1.2-2.8,1.2-5c0-2.2-0.4-3.8-1.2-4.9
		S938.3,303.2,936.8,303.2z"/>
	<path class="st2" d="M958.9,320c-3,0-5.4-0.9-7.1-2.6s-2.6-4.2-2.6-7.3c0-3.2,0.8-5.7,2.4-7.5s3.8-2.7,6.5-2.7
		c2.6,0,4.6,0.8,6.1,2.3s2.2,3.7,2.2,6.4v2.2h-13c0.1,1.9,0.6,3.3,1.5,4.4s2.3,1.5,4.1,1.5c1.1,0,2.2-0.1,3.2-0.3s2.1-0.6,3.2-1.1
		v3.4c-1,0.5-2,0.8-3.1,1S960.2,320,958.9,320z M958.1,303c-1.3,0-2.4,0.4-3.2,1.2s-1.3,2-1.4,3.6h8.8c0-1.6-0.4-2.8-1.2-3.6
		S959.4,303,958.1,303z"/>
	<path class="st2" d="M983.3,319.6l-0.8-2.7h-0.1c-0.9,1.2-1.9,2-2.8,2.4s-2.2,0.6-3.7,0.6c-1.9,0-3.4-0.5-4.5-1.5s-1.6-2.5-1.6-4.4
		c0-2,0.7-3.5,2.2-4.5s3.8-1.6,6.8-1.7l3.4-0.1v-1c0-1.2-0.3-2.2-0.9-2.8s-1.5-0.9-2.7-0.9c-1,0-2,0.1-2.9,0.4s-1.8,0.6-2.6,1
		l-1.3-3c1.1-0.6,2.2-1,3.5-1.3s2.4-0.4,3.6-0.4c2.5,0,4.3,0.5,5.6,1.6s1.9,2.8,1.9,5.1v13.1H983.3z M977.1,316.8
		c1.5,0,2.7-0.4,3.6-1.3s1.4-2,1.4-3.5v-1.7l-2.5,0.1c-1.9,0.1-3.4,0.4-4.2,1s-1.3,1.5-1.3,2.7c0,0.9,0.3,1.5,0.8,2
		S976.1,316.8,977.1,316.8z"/>
	<path class="st2" d="M996.1,319.6H992v-27.4h4.1V319.6z"/>
	<path class="st2" d="M1001.8,295.1c0-0.7,0.2-1.3,0.6-1.7s1-0.6,1.7-0.6c0.7,0,1.3,0.2,1.7,0.6s0.6,1,0.6,1.7
		c0,0.7-0.2,1.3-0.6,1.7s-1,0.6-1.7,0.6c-0.8,0-1.3-0.2-1.7-0.6S1001.8,295.8,1001.8,295.1z M1006.2,319.6h-4.1v-19.4h4.1V319.6z"/>
	<path class="st2" d="M1029.2,319.6h-4.1v-12c0-1.5-0.3-2.6-0.9-3.4s-1.6-1.1-2.9-1.1c-1.7,0-3,0.5-3.8,1.5s-1.2,2.8-1.2,5.2v9.7
		h-4.1v-19.4h3.2l0.6,2.5h0.2c0.6-0.9,1.4-1.6,2.5-2.1s2.3-0.8,3.6-0.8c4.7,0,7,2.4,7,7.1V319.6z"/>
	<path class="st2" d="M1051.3,300.2v2.3l-3.3,0.6c0.3,0.4,0.6,0.9,0.8,1.5s0.3,1.2,0.3,1.9c0,2-0.7,3.6-2.1,4.7s-3.3,1.7-5.7,1.7
		c-0.6,0-1.2,0-1.7-0.1c-0.9,0.6-1.3,1.2-1.3,1.9c0,0.4,0.2,0.8,0.6,1s1.2,0.3,2.3,0.3h3.4c2.1,0,3.8,0.5,4.9,1.4s1.7,2.2,1.7,4
		c0,2.2-0.9,3.9-2.7,5.1s-4.4,1.8-7.9,1.8c-2.6,0-4.7-0.5-6.1-1.4s-2.1-2.3-2.1-4c0-1.2,0.4-2.2,1.1-3s1.8-1.4,3.2-1.7
		c-0.6-0.2-1-0.6-1.4-1.1s-0.5-1.1-0.5-1.6c0-0.7,0.2-1.3,0.6-1.8s1-1,1.8-1.5c-1-0.4-1.8-1.1-2.5-2.1s-0.9-2.1-0.9-3.4
		c0-2.1,0.7-3.7,2-4.9s3.2-1.7,5.7-1.7c0.6,0,1.1,0,1.7,0.1s1.1,0.2,1.4,0.2H1051.3z M1036.1,322.7c0,0.9,0.4,1.6,1.2,2.1
		s1.9,0.7,3.4,0.7c2.2,0,3.9-0.3,5-1s1.7-1.5,1.7-2.6c0-0.8-0.3-1.4-0.9-1.8s-1.7-0.5-3.4-0.5h-3.1c-1.2,0-2.1,0.3-2.8,0.8
		S1036.1,321.7,1036.1,322.7z M1037.8,306.5c0,1.2,0.3,2.2,0.9,2.8s1.5,1,2.7,1c2.4,0,3.6-1.3,3.6-3.8c0-1.3-0.3-2.2-0.9-2.9
		s-1.5-1-2.7-1c-1.2,0-2.1,0.3-2.7,1S1037.8,305.2,1037.8,306.5z"/>
	<path class="st2" d="M1074.1,303.3h-4.7v16.3h-4.1v-16.3h-3.2v-1.9l3.2-1.3v-1.3c0-2.3,0.5-4,1.6-5.1s2.7-1.7,4.9-1.7
		c1.5,0,2.9,0.2,4.3,0.7l-1.1,3.1c-1-0.3-2-0.5-2.9-0.5c-0.9,0-1.6,0.3-2,0.9s-0.6,1.5-0.6,2.6v1.3h4.7V303.3z"/>
	<path class="st2" d="M1089.5,319.6l-0.8-2.7h-0.1c-0.9,1.2-1.9,2-2.8,2.4s-2.2,0.6-3.7,0.6c-1.9,0-3.4-0.5-4.5-1.5
		s-1.6-2.5-1.6-4.4c0-2,0.7-3.5,2.2-4.5s3.8-1.6,6.8-1.7l3.4-0.1v-1c0-1.2-0.3-2.2-0.9-2.8s-1.5-0.9-2.7-0.9c-1,0-2,0.1-2.9,0.4
		s-1.8,0.6-2.6,1l-1.3-3c1.1-0.6,2.2-1,3.5-1.3s2.4-0.4,3.6-0.4c2.5,0,4.3,0.5,5.6,1.6s1.9,2.8,1.9,5.1v13.1H1089.5z M1083.4,316.8
		c1.5,0,2.7-0.4,3.6-1.3s1.4-2,1.4-3.5v-1.7l-2.5,0.1c-1.9,0.1-3.4,0.4-4.2,1s-1.3,1.5-1.3,2.7c0,0.9,0.3,1.5,0.8,2
		S1082.3,316.8,1083.4,316.8z"/>
	<path class="st2" d="M1106.1,320c-2.9,0-5.2-0.9-6.7-2.6s-2.3-4.2-2.3-7.4c0-3.3,0.8-5.8,2.4-7.5s3.9-2.6,6.9-2.6
		c2.1,0,3.9,0.4,5.5,1.1l-1.2,3.3c-1.7-0.7-3.2-1-4.3-1c-3.4,0-5,2.2-5,6.7c0,2.2,0.4,3.8,1.3,4.9s2.1,1.6,3.7,1.6
		c1.8,0,3.6-0.5,5.2-1.4v3.6c-0.7,0.4-1.5,0.7-2.4,0.9S1107.3,320,1106.1,320z"/>
	<path class="st2" d="M1124.6,320c-3,0-5.4-0.9-7.1-2.6s-2.6-4.2-2.6-7.3c0-3.2,0.8-5.7,2.4-7.5s3.8-2.7,6.5-2.7
		c2.6,0,4.6,0.8,6.1,2.3s2.2,3.7,2.2,6.4v2.2h-13c0.1,1.9,0.6,3.3,1.5,4.4s2.3,1.5,4.1,1.5c1.1,0,2.2-0.1,3.2-0.3s2.1-0.6,3.2-1.1
		v3.4c-1,0.5-2,0.8-3.1,1S1125.9,320,1124.6,320z M1123.8,303c-1.3,0-2.4,0.4-3.2,1.2s-1.3,2-1.4,3.6h8.8c0-1.6-0.4-2.8-1.2-3.6
		S1125.1,303,1123.8,303z"/>
	<path class="st2" d="M1136.2,317.4c0-0.9,0.2-1.5,0.7-2s1.1-0.7,1.9-0.7c0.9,0,1.5,0.2,2,0.7s0.7,1.1,0.7,1.9c0,0.8-0.2,1.5-0.7,2
		s-1.1,0.7-1.9,0.7s-1.5-0.2-1.9-0.7S1136.2,318.3,1136.2,317.4z"/>
</g>
<g>
	<path class="st3" d="M224.3,155.7c-0.8,1.2-1.9,1.8-3.3,0.6c-3.9-3.4-4.8-7.7-3-15.3c4-16.9,13-42.4,18.4-52.8
		c0.9-1.7,2-1.8,2.8-0.4c1.9,3.2,2.1,7.2-1.1,15.8c-3.7,10-9.1,24.4-13.9,40.2c10.3-16.9,27.4-40.2,38.9-54.1
		c0.8-0.9,1.9-1.2,2.8,0.1c2.2,3.2,2.8,6,0,14.4c-3.6,10.4-8.2,24-12.4,40.1c11.2-18.3,32.7-46.8,42.5-57.3c1.3-1.3,2.4-1.1,2.7,0.4
		c0.7,3.9-0.8,8.7-6.4,16.1c-8.1,10.7-24.5,31.1-38,51.7c-0.9,1.3-1.9,1.9-3.3,0.6c-3.8-3.4-5.1-7.4-3.4-15.3
		c1.8-8.2,5.5-20.4,9.2-30.9C246.6,122.6,233.8,140.7,224.3,155.7z"/>
	<path class="st3" d="M294.6,153.1c9.2,0.4,17.3-8.4,22.1-15.8c0.6-0.9,1.4-0.9,1.9,0.1c0.4,0.9,0.1,4-1.9,6.9
		c-4.7,6.8-13.2,11.9-21.8,12c-14.1,0.2-19-13.7-11.8-28s18.5-20.1,24.1-16.9c2.8,1.7,4.8,3.3,6.5,5.8c2,2.7,1.1,9.4-3.6,15.1
		c-5.4,6.7-12.9,9.5-20.6,3.2C286.1,145.8,288.7,152.8,294.6,153.1z M303.8,127.6c3.6-4.7,6-10.4,4.4-11.7
		c-2.3-1.9-11.5,4.8-16.8,15.3c-0.3,0.7-0.7,1.3-0.9,1.9C296,136.6,300.6,131.8,303.8,127.6z"/>
	<path class="st3" d="M325.3,107.7c-0.7-0.1-0.8-0.8-0.4-1.9c2-5.8,8.4-17.5,12-21.9c1.3-1.6,2.3-1.1,2.8,0c0.9,2.2,0,4.8-1.2,6.8
		c-2.4,4.2-7.3,11.8-10.2,15.4C327.1,107.6,326.1,107.9,325.3,107.7z"/>
	<path class="st3" d="M353.7,114.4c1.3-0.9,2.2-1.1,3-0.2c2.1,2.3,4.8,7.2,1.6,10.9c-5,5.7-10.4,12.7-12.2,18.4
		c-1.8,5.8-0.4,10.1,2.8,10.2c4.3,0.2,9.7-6.7,13.2-14.7c0.4-0.9,1.1-1,1.6-0.1c0.6,1.2,0.7,3.9-0.6,6.9c-2.6,6.4-9,11.1-14.9,10.9
		c-8-0.3-11.2-7.7-8.4-16c2.4-7.3,8.9-15.2,13.3-20.3c-4.9,3.2-9.7,4.2-13,4.2c-4.2,7.8-14.9,23.5-17,33.6c-0.2,1-0.9,1.6-1.9,0.6
		c-3.2-3.3-3.2-8.4-0.2-14.1c2.6-4.9,10-15.3,14.1-21.2c-6.3-4.1,3.3-17.2,7.4-17.3c3.4-0.1,2.6,6.3-0.2,13.3
		C345.8,119.1,349.5,117.3,353.7,114.4z"/>
	<path class="st3" d="M375.7,153.1c9.2,0.4,17.3-8.4,22.1-15.8c0.6-0.9,1.4-0.9,1.9,0.1c0.4,0.9,0.1,4-1.9,6.9
		c-4.7,6.8-13.2,11.9-21.8,12c-14.1,0.2-19-13.7-11.8-28c7.2-14.3,18.5-20.1,24.1-16.9c2.8,1.7,4.8,3.3,6.5,5.8
		c2,2.7,1.1,9.4-3.6,15.1c-5.4,6.7-12.9,9.5-20.6,3.2C367.2,145.8,369.9,152.8,375.7,153.1z M385,127.6c3.6-4.7,6-10.4,4.4-11.7
		c-2.3-1.9-11.5,4.8-16.8,15.3c-0.3,0.7-0.7,1.3-0.9,1.9C377.2,136.6,381.7,131.8,385,127.6z"/>
	<path class="st3" d="M448.3,156.4c-9.3,0-11.7-6.8-8.3-16.4c3.7-10.8,13.3-22.3,11.5-23.3c-1.6-0.9-13.7,6.7-20.1,17.2
		c-4,6.5-8.1,14.3-10.8,21.1c-0.4,1-1.2,1.2-1.9,0.4c-1.8-2-2.8-5.1-0.4-11.8c3.9-11.1,27-50.2,36-61.4c1-1.3,2.1-1.2,2.7,0.1
		c1.4,3.2,1.1,8.8-3.1,15.8c-2.7,4.4-8.5,13.4-13.3,20.9c4.6-4.4,10.3-8.1,13.3-7.8c3.8,0.4,7.2,6,4.3,11.7
		c-2.4,4.9-7.8,13-10.3,18.8c-2.8,6.4-2.2,11.7,1.9,11.4c4.6-0.2,10.7-8.2,14.1-15.3c0.4-1,1.6-1,2-0.1c0.6,1.2,0.6,3.6-1.1,6.9
		C461.7,150.8,454.9,156.4,448.3,156.4z"/>
	<path class="st3" d="M520.8,156.3c-8.4-0.4-11.8-8-9-17c2.3-7.4,9-15.7,13.8-21c-4.9,3.1-9.9,4.2-13.3,4.2
		c-9.2,19.3-21.2,33.3-34.4,33.5c-14.1,0.2-18.9-13.5-11.7-27.8c7-13.8,18.3-20,23.9-16.8c2.8,1.7,4.8,3.2,6.5,5.7
		c1.9,2.7,0.8,9.2-3.7,14.9c-5.2,6.8-12.7,9.5-20.4,3.3c-3.6,10.1-0.8,17.3,4.9,17.5c12.2,0.6,24.4-17,30.5-31.1
		c-8.5-3.6,2.3-18.3,7-18.5c3.4-0.1,2.3,6.7-0.4,13.9c3.9-0.6,7.8-2.3,12.1-5.2c1.3-0.9,2.3-1.4,3.1-0.3c2.2,2.4,5,7.8,1.7,11.4
		c-5.2,5.8-10.9,13.3-12.8,19.3c-1.9,6.1-0.6,10.5,2.8,10.7c4.7,0.2,10.3-7.1,13.9-15.3c0.4-0.9,1.2-1.1,1.7-0.1
		c0.6,1.2,0.8,4.1-0.6,7.2C533.6,151.5,526.9,156.6,520.8,156.3z M486.6,127.5c3.6-4.6,5.9-10.3,4.4-11.5
		c-2.4-2.1-11.5,4.9-16.7,15.1c-0.3,0.6-0.6,1.3-0.9,1.9C479,136.3,483.3,131.7,486.6,127.5z"/>
	<path class="st3" d="M549.1,153.1c9.2,0.4,17.3-8.4,22.1-15.8c0.6-0.9,1.4-0.9,1.9,0.1c0.4,0.9,0.1,4-1.9,6.9
		c-4.7,6.8-13.2,11.9-21.8,12c-14.1,0.2-19-13.7-11.8-28s18.5-20.1,24.1-16.9c2.8,1.7,4.8,3.3,6.5,5.8c2,2.7,1.1,9.4-3.6,15.1
		c-5.4,6.7-12.9,9.5-20.6,3.2C540.6,145.8,543.2,152.8,549.1,153.1z M558.3,127.6c3.6-4.7,6-10.4,4.4-11.7
		c-2.3-1.9-11.5,4.8-16.8,15.3c-0.3,0.7-0.7,1.3-0.9,1.9C550.6,136.6,555.1,131.8,558.3,127.6z"/>
	<path class="st3" d="M600.5,108.5c-1.1-1.6-0.4-2.3,1.2-2.2c3.1,0.1,6.2-0.1,9.2-0.4c3.4-6.1,6.5-11.3,8.4-13.8
		c1-1.4,2.1-1.3,2.7,0c1.2,3.1,1.2,6.8-1.4,12.5c4.3-0.1,6,1.9,6.9,3.3c0.8,1.3,0.3,2.1-1.3,2.1c-2.4-0.3-5.9,0-8.7,0.4
		c-4.3,7.4-10.7,18.2-14.9,27.5c-3.7,8.1-2.4,15,2.2,15.2c5,0.2,11.3-7.7,15.4-16c0.7-1.3,1.9-1.6,2.3,0c0.6,1.8,0,3.8-1.1,6.3
		c-1.4,3.2-8.8,13-17.7,12.7c-7.3-0.2-13.2-8.4-7.9-21.2c2.3-5.6,7-14.9,11.8-23.6C604,111.4,601.4,109.7,600.5,108.5z"/>
	<path class="st3" d="M652.6,132.2c-2.3,9.4-9.3,20.6-17.5,23.4c-4,1.3-9.5,0.9-14-4.9c-4.9-6.4-3.2-16.1,1.8-25
		c4.2-7.5,11-14,17.7-14.4c3.4-0.2,5.3,0.8,7.5,3.8c2.6,3.4,5.9,4.2,5.2,12.2c-0.1,0.9-0.1,1.7-0.2,2.6c0.7,0,1.3-0.2,2.2-0.2
		c0.8,0,0.8,0.6,0.3,1.1C654.8,131.6,653.7,132.1,652.6,132.2z M643.1,129.4c-2.3-1.8-5-5.7-5.1-9.8c-3,2.6-6.2,6.2-8.5,10.4
		c-4.7,8.4-6.3,18.6-3.4,21.1c3.1,2.6,9.9-1.3,15.3-11.5c1.7-3.1,3-6.2,3.9-8.9C644.5,130.4,643.8,129.9,643.1,129.4z M646.9,119.5
		c-0.6-3.6-2.8-2.9-3.3,0.3c-0.6,3,0.7,6.2,2.4,7.9C646.9,124.3,647.2,121.5,646.9,119.5z"/>
	<path class="st3" d="M737.3,156.4c-8.5-0.4-12-7.9-9.2-16.9c2.3-7.5,9.2-15.8,13.9-21c-5,3-9.9,4.1-13.4,4.1
		c-8.1,18.2-20.6,33.6-34.5,33.6c-14.1,0-18.8-13.7-11.5-27.8c7.1-13.8,18.3-20.1,23.9-16.8c3,1.8,4.9,3.8,6.1,6.2
		c2.3,4.6-2.2,10.5-4.3,16.3c-0.6,1.6-0.8,1.9-2.3,1.1c-2.7-1.3-4.2-4.8-2.7-9.7c1.3-4,4.9-8.9,3.1-10.1c-2-1.4-10.2,5.3-15.3,15.7
		c-6.1,12.4-3.8,21.4,2.8,21.8c12.1,0.6,24.8-16.8,30.6-31.1c-8.7-3.3,2.2-18.3,6.9-18.4c3.4-0.1,2.3,6.7-0.4,13.9
		c3.9-0.6,7.9-2.3,12.1-5.3c1.2-0.9,2.4-1.3,3.3-0.2c2,2.3,4.8,7.5,1.4,11.3c-5.2,5.9-10.7,13.3-12.5,19.3c-2,6.1-0.8,10.4,2.8,10.7
		c4.4,0.3,10.1-7,13.7-15.2c0.4-1,1.2-1.1,1.7-0.1c0.6,1.2,0.8,4-0.6,7.2C749.8,151.7,743.1,156.7,737.3,156.4z"/>
	<path class="st3" d="M765.3,153.1c9.2,0.4,17.3-8.4,22.1-15.8c0.6-0.9,1.4-0.9,1.9,0.1c0.4,0.9,0.1,4-1.9,6.9
		c-4.7,6.8-13.2,11.9-21.8,12c-14.1,0.2-19-13.7-11.8-28s18.5-20.1,24.1-16.9c2.8,1.7,4.8,3.3,6.5,5.8c2,2.7,1.1,9.4-3.6,15.1
		c-5.4,6.7-12.9,9.5-20.6,3.2C756.8,145.8,759.5,152.8,765.3,153.1z M774.6,127.6c3.6-4.7,6-10.4,4.4-11.7
		c-2.3-1.9-11.5,4.8-16.8,15.3c-0.3,0.7-0.7,1.3-0.9,1.9C766.8,136.6,771.3,131.8,774.6,127.6z"/>
	<path class="st3" d="M825.6,111.7c1-1.4,1.9-1.7,2.7-0.7c1.7,2,2.6,6.8-0.1,12.3c-2.4,5-8,13.3-10.7,19.2c-2.8,6.2-2.9,11,0.9,10.8
		c4.6-0.2,10.7-7.8,14.5-15.4c0.6-1,1.3-1.1,1.8-0.1s0.4,3.8-1,6.9c-2.9,6.1-9.9,12.2-16,11.9c-6-0.3-9.1-3.9-9.1-9.1
		c-3.6,4.6-8.5,8.7-13.9,8.7c-10.3,0-12.4-14.1-3.2-27.5c9-13.1,17.8-18.1,23.3-18.1c4.8,0,7,3.7,6.8,8
		C823.1,115.8,824.4,113.5,825.6,111.7z M816.7,116.3c-3.6-0.3-11.7,6.9-17.8,16.8c-5.9,9.5-7.3,19.3-3,19.4c4.6,0.1,10.3-7,16-16.8
		C819,123.5,820,116.6,816.7,116.3z"/>
	<path class="st3" d="M837.5,108.5c-1.1-1.6-0.4-2.3,1.2-2.2c3.1,0.1,6.2-0.1,9.2-0.4c3.4-6.1,6.5-11.3,8.4-13.8
		c1-1.4,2.1-1.3,2.7,0c1.2,3.1,1.2,6.8-1.4,12.5c4.3-0.1,6,1.9,6.9,3.3c0.8,1.3,0.3,2.1-1.3,2.1c-2.4-0.3-5.9,0-8.7,0.4
		c-4.3,7.4-10.7,18.2-14.9,27.5c-3.7,8.1-2.4,15,2.2,15.2c5,0.2,11.3-7.7,15.4-16c0.7-1.3,1.9-1.6,2.3,0c0.6,1.8,0,3.8-1.1,6.3
		c-1.4,3.2-8.8,13-17.7,12.7c-7.3-0.2-13.2-8.4-7.9-21.2c2.3-5.6,7-14.9,11.8-23.6C840.9,111.4,838.4,109.7,837.5,108.5z"/>
	<path class="st3" d="M867.6,153.1c9.2,0.4,17.3-8.4,22.1-15.8c0.6-0.9,1.4-0.9,1.9,0.1c0.4,0.9,0.1,4-1.9,6.9
		c-4.7,6.8-13.2,11.9-21.8,12c-14.1,0.2-19-13.7-11.8-28s18.5-20.1,24.1-16.9c2.8,1.7,4.8,3.3,6.5,5.8c2,2.7,1.1,9.4-3.6,15.1
		c-5.4,6.7-12.9,9.5-20.6,3.2C859,145.8,861.7,152.8,867.6,153.1z M876.8,127.6c3.6-4.7,6-10.4,4.4-11.7
		c-2.3-1.9-11.5,4.8-16.8,15.3c-0.3,0.7-0.7,1.3-0.9,1.9C869,136.6,873.6,131.8,876.8,127.6z"/>
	<path class="st3" d="M901.6,155.9c-1.3,1.7-4.6,1-6.1-1.6c-1.8-2.9-1.2-6.2,0.6-8.1c1.7-1.8,4.9-0.6,6.3,2.6
		C903.6,151.4,902.9,154.4,901.6,155.9z M930.2,86.5c1.4,3.1,1.2,8.5-3.3,16.8c-6.1,11-15.4,28.4-21.1,40.7c-0.6,1.1-1,1.3-1.9,0.4
		c-1.7-1.8-2.8-5.4-0.3-12.1c4.4-11.9,15.5-33.9,23.9-46.1C928.3,85,929.5,85,930.2,86.5z"/>
</g>
<g>
</g>
<g class="st4">
	<line class="st2" x1="466.7" y1="200" x2="699.7" y2="200"/>
	<rect x="466.7" y="198" class="st2" width="233" height="3"/>
</g>
</svg>
