<?xml version="1.0" encoding="utf-8"?>
<!-- Generator: Adobe Illustrator 18.1.1, SVG Export Plug-In . SVG Version: 6.00 Build 0)  -->
<!DOCTYPE svg PUBLIC "-//W3C//DTD SVG 1.1//EN" "http://www.w3.org/Graphics/SVG/1.1/DTD/svg11.dtd">
<svg version="1.1" id="Layer_1" xmlns="http://www.w3.org/2000/svg" xmlns:xlink="http://www.w3.org/1999/xlink" x="0px" y="0px"
	 viewBox="0 0 1280 800" enable-background="new 0 0 1280 800" xml:space="preserve">
<g id="New_Symbol">
	<g>
		<path fill="#333333" d="M532.2,703.8c0-11.6,4-22.2,12.2-32c7.9-9.7,16.4-14.6,25.6-14.6c4.3,0,7.6,1.2,9.4,3.7
			c1.8,2.4,2.7,5.5,2.7,9.1c0,3.3-0.9,6.4-2.4,9.1c-1.5,2.4-3.7,3.7-6.4,3.7c-1.8,0-3.7-0.9-4.9-2.7c1.8-0.9,3.3-2.7,4.6-5.5
			c1.2-2.7,1.8-5.5,1.8-8.2c0-3-1.2-4.3-3.7-4.3c-6.1,0-12.2,4.9-18.6,14.9c-6.4,9.7-9.7,19.2-9.7,28c0,9.7,4.3,14.6,12.5,14.6
			c7,0,14-3,20.7-8.8c6.7-5.8,12.2-13.4,15.8-22.8l2.1,1.8c-4,10.7-9.7,19.2-18,26.2c-7.9,6.7-16.1,10.4-24.7,10.4
			c-5.8,0-10.4-1.8-14-5.8C534,716.6,532.2,711.1,532.2,703.8z"/>
		<path fill="#333333" d="M588.8,694c5.5-11,10-21.9,14-33.2c-1.2-1.2-1.8-2.4-1.8-4.3c0-3,0.9-5.8,2.7-8.2c1.8-2.4,3.3-3.7,4.6-3.7
			c1.5,0,2.4,1.5,2.4,4.3c0,0.6-0.3,1.5-0.6,3.3c-0.3,1.8-0.6,2.7-0.6,3c0,1.5,0.9,2.7,2.7,4.6c1.8,1.5,3.7,3,6.1,4.6
			c2.1,1.5,4.3,3.3,6.1,6.1c1.8,2.7,2.7,5.8,2.7,9.1c0,4-1.5,9.1-4.3,15.8c-2.7,6.7-4.3,11.3-4.3,13.4c0,3.3,1.8,5.2,5.2,5.2
			c5.2,0,10.7-3,16.4-8.8c6.1-5.8,10.4-11.6,12.5-17.4l2.1,1.8c-3.7,7.9-8.8,15.2-15.5,21.3c-6.7,6.1-13.7,9.4-20.4,9.4
			c-4,0-7-1.2-9.1-3.3c-2.1-2.1-3.3-4.9-3.3-8.2c0-3.3,1.5-9.1,4.9-16.7c3-7.6,4.9-13.1,4.9-15.8c0-1.2-0.3-2.4-0.6-3.3
			c-0.3-1.2-0.6-1.8-0.9-2.7c-0.3-0.6-0.9-1.2-1.8-2.1l-1.8-1.8c-0.3-0.3-1.2-0.9-2.4-1.8c-1.2-0.9-1.8-1.2-2.1-1.5
			c-5.5,14-10.7,25.3-15.5,33.5L588.8,694z"/>
		<path fill="#333333" d="M645.8,703.8c0-10.7,4.9-21.6,14.3-33.2c9.7-11.3,19.5-17.1,29.2-17.1c7,0,10.7,3.7,10.7,10.7
			c0,8.5-4.6,16.1-13.4,22.5S668,697.1,657.7,698c-0.3,2.1-0.6,4-0.6,6.4c0,9.7,4.6,14.6,13.4,14.6c7,0,14-3,21-8.8
			c7-5.8,12.8-13.4,17.4-21.9l2.1,1.5c-4.6,10.4-11,18.6-19.2,25s-16.4,9.4-25,9.4c-6.7,0-11.9-1.8-15.5-5.5
			C647.6,714.4,645.8,709.9,645.8,703.8z M658.6,694.6c7.9-3,15.5-7.3,22.8-13.1s11-12.2,11-18.6c0-2.7-1.2-4-3.7-4
			c-5.5,0-11.3,4-17.4,11.6C665.3,677.9,661,686.1,658.6,694.6z"/>
		<path fill="#333333" d="M700.9,710.2c0-7,2.4-14.6,7-22.8c4.9-8.5,11-15.5,18.3-21.6c7.6-6.1,14.9-9.1,21.9-9.1
			c4.6,0,8.2,1.2,11.3,3.7c3,2.4,4.6,5.8,4.6,9.4c0,4.9-2.7,7.6-8.5,7.6c0.6-2.1,0.9-4.3,0.9-6.1c0-6.4-2.7-9.7-8.5-9.7
			c-4.9,0-10.4,3-16.1,8.8c-5.8,5.8-10.4,12.8-13.7,20.4c-3.7,7.6-5.5,14.3-5.5,20.1c0,4.6,1.5,6.7,4.6,6.7c2.1,0,4.6-0.9,7.3-3
			c2.7-2.1,5.2-4.3,7.6-6.7c2.1-2.4,4.9-5.8,8.2-9.7c3-4.3,5.5-7.3,7-9.4l6.1-9.1c4.6,0.9,7,2.1,7,4.3c0,0.9-1.8,4.6-5.2,10.4
			c-3.3,6.1-5.2,10.7-5.2,13.7c0,2.1,0.6,3.7,1.5,5.2c0.9,1.5,2.4,2.4,4.6,2.4c3.3,0,7.6-2.4,12.5-7.3c5.2-4.9,10-11.6,14.9-20.4
			l1.8,1.8c-3.7,9.1-8.5,16.7-14.9,22.8c-6.4,5.8-12.8,8.8-19.2,8.8c-4,0-7-1.2-9.1-3.7c-2.1-2.4-3-5.2-3-8.5c0-1.5,0.3-3,0.6-5.2
			c-5.2,7-9.7,11.9-13.7,15.2c-4,3.3-8.2,4.9-12.2,4.9c-3.7,0-6.7-1.2-9.1-3.7C702.1,718.4,700.9,714.7,700.9,710.2z"/>
		<path fill="#333333" d="M779.8,707.1c0-10,3.3-24.1,10-42c-2.7-0.6-4.9-0.9-6.1-1.5v-3c4.3,0.6,6.7,0.6,7.6,0.6
			c5.2-13.4,10.4-24.7,16.1-34.4c5.8-9.7,10.4-14.6,13.7-14.6c0.9,0,1.8,0.3,2.4,0.9c0.6,0.6,1.2,1.5,1.2,2.7c0,1.8-1.2,4.9-3.3,9.1
			c-2.1,4.3-5.5,10-9.4,17.4c-4,7.3-7.3,13.7-10,19.5h6.4c9.4,0,17.7-0.3,24.7-0.9v3c-12.2,1.5-21.9,2.1-29.2,2.1
			c-0.3,0-0.6,0-0.9,0h-2.4c-6.4,14.6-9.4,27.1-9.4,37.8c0,5.2,0.6,8.8,2.1,11s4,3,7.3,3c5.8,0,11.6-2.7,17.4-7.9
			c5.8-5.2,11-12.5,15.2-21.9l2.1,1.8c-4.3,10-10,18.3-17.1,25c-7,6.7-14.6,9.7-22.5,9.7C784.7,724.5,779.8,718.7,779.8,707.1z"/>
		<path fill="#333333" d="M828.5,706.2c0-4.6,1.2-10.7,3.7-18.3c2.4-7.6,5.5-14.6,9.7-21c4-6.4,7.9-9.7,11.6-9.7
			c2.4,0,3.7,1.2,3.7,4c0,1.5-1.5,4.6-4.6,9.7c-3,4.9-6.1,10.7-8.8,17.1c-3,6.4-4.6,11.9-4.6,16.7c0,4,0.6,7,1.8,8.2
			c1.2,1.5,3.3,2.1,6.4,2.1c8.8,0,17.7-8.8,26.5-26.8l1.5,1.8c-3.3,9.7-7.9,17.4-14.3,22.8c-6.1,5.5-12.8,8.2-19.8,8.2
			c-4.3,0-7.6-1.2-9.7-4C829.4,714.1,828.5,710.5,828.5,706.2z M855.3,635.2c0-2.4,1.5-4.6,4.3-6.4c2.7-1.8,5.5-2.7,8.5-2.7
			c3.7,0,5.8,1.8,5.8,5.2c0,2.4-1.2,4.6-3.7,6.4c-2.4,2.1-4.9,3-7.6,3C857.4,641,855.3,638.9,855.3,635.2z"/>
		<path fill="#333333" d="M872.4,704.1c0-2.1,0.3-9.7,0.9-22.8c0-2.4,0.3-4.3,0.6-5.2c0.3-0.9,0.6-1.8,1.5-2.1
			c0.6-0.6,1.8-0.9,3.7-0.9c1.8,0,3,0.3,3.7,1.2c0.6,0.6,0.9,2.1,0.9,4.6c0,2.4-0.3,7-0.9,13.4c-0.6,6.7-0.9,11.6-0.9,14.6
			c0,6.4,1.2,9.7,4,9.7c3.7,0,8.2-4,13.7-11.9c5.5-7.9,10.4-16.7,14.6-26.5c0.6-13.1,3.3-19.8,8.2-19.8c1.8,0,3.3,0.6,4.3,2.1
			c0.9,1.5,1.5,3,1.5,4.6c0,0.9-0.6,2.4-1.5,4.3c-0.9,1.8-1.8,4.3-2.7,7.6c-0.9,3.3-1.5,7-1.5,11.6c0,8.8,2.7,13.4,7.9,13.4
			c4.9,0,9.4-4.3,13.7-12.8l2.1,1.8c-4.3,9.7-9.7,14.9-17.1,14.9c-8.2,0-13.1-5.8-14.6-17.1c-4.6,9.4-10,17.7-16.1,24.7
			c-6.1,6.7-11.6,10.4-16.7,10.4C875.4,723.3,872.4,716.9,872.4,704.1z"/>
		<path fill="#333333" d="M938.1,703.8c0-10.7,4.9-21.6,14.3-33.2c9.7-11.3,19.5-17.1,29.2-17.1c7,0,10.7,3.7,10.7,10.7
			c0,8.5-4.6,16.1-13.4,22.5S960.4,697.1,950,698c-0.3,2.1-0.6,4-0.6,6.4c0,9.7,4.6,14.6,13.4,14.6c7,0,14-3,21-8.8
			c7-5.8,12.8-13.4,17.4-21.9l2.1,1.5c-4.6,10.4-11,18.6-19.2,25c-8.2,6.4-16.4,9.4-25,9.4c-6.7,0-11.9-1.8-15.5-5.5
			C940,714.4,938.1,709.9,938.1,703.8z M950.9,694.6c7.9-3,15.5-7.3,22.8-13.1c7.3-5.8,11-12.2,11-18.6c0-2.7-1.2-4-3.7-4
			c-5.5,0-11.3,4-17.4,11.6C957.6,677.9,953.1,686.1,950.9,694.6z"/>
	</g>
	<path fill="#839E3D" d="M607.5,283.5c-1.2,1.4-3.5,0-2.8-1.6c3-6.1,5.3-12.2,6.9-18.6c2.8-11,2.5-23.2-2.8-33.3
		c-5.5-10.3-16.2-16.9-23.6-26.1c-0.2-0.2-0.2-0.5-0.5-0.7c-1.2-6.6-2.8-12.9-4.4-19.3c-0.2-1.4,1.2-2.3,2.3-1.9
		c5.5,2.8,16.9,7,18.7,8.2c6.9,4.7,12.9,10.8,16.6,18.3c10.4,20.4,5.5,49.8-6.2,68.6C610.7,279.3,609.1,281.7,607.5,283.5z"/>
	<path opacity="0.19" enable-background="new    " d="M611.9,263.4c2.8-11,2.5-23.2-2.8-33.1c-5.5-10.3-16.2-16.9-23.6-26.1
		c0,0,0-0.2-0.2-0.2c9.9,3.1,21.7,12,27.5,23.7c7.9,16.2,3.2,34.5-4.6,46.7C609.6,270.6,611,267.1,611.9,263.4z"/>
	<path fill="#A9BE21" d="M597.8,167.8c-38.1-29.6-78.1-53.5-116.2-65.1c-100.2-30.8-187.6-8.5-189.9-8l0,0l0,0
		c0,0.5-0.2,0.9-0.2,1.4c-2.5,22.1,46.9,113.7,131.7,158.5c38.3,20.2,81.1,37.8,130,28.2c12.9-12.4,23.3-27,31.2-43.4
		c2.5-5.6,4.9-11.3,6.7-17.1c4.6-14.8,7.4-31,7.4-48.1C598,172,597.8,169.9,597.8,167.8z"/>
	<path fill="#C4CD58" d="M520.7,29.7c44.3,31,74.8,82.9,77.1,138.1c-38.1-29.6-78.1-53.5-116.2-65.1c-100.2-30.8-187.6-8.5-189.9-8
		C293.8,91.9,380.7-12.6,520.7,29.7z"/>
	<path fill="#C4CD58" d="M289.2,96.1c-0.2,0.9-4.6,13.2-4.6,13.2c-20.1,41.3-21.2,86.7-15.9,131.7c-0.7-1.2-1.2-2.1-1.8-3.3l0,0
		C231,167.3,263.1,82.5,322,36.3c44.6-35,105.1-45.8,158.7-27c14.1,4.9,27.7,12,40,20.4c-140-42-226.8,62.2-228.9,65.1l0,0l0,0
		c0,0.5-0.2,0.9-0.2,1.4L289.2,96.1z"/>
	<path fill="#A0B534" d="M423,254.7C338.2,210,289,118.2,291.3,96.1h-2.1c-0.2,0.9-4.6,13.4-4.6,13.4
		c-20.1,41.3-21.2,86.7-15.9,131.7c31.4,57.8,100.7,87.1,163.5,87.1c10.9,0,21.7-0.9,32.1-2.6c34.6-5.6,65.4-20.7,88.7-43
		C504,292.5,461.3,274.9,423,254.7z"/>
	<path fill="#A0B534" d="M316.5,90c3-0.5,6.2-0.9,9.7-1.2C323,89.3,319.7,89.8,316.5,90z"/>
	<g>
		<defs>
			<path id="SVGID_1_" d="M597.8,167.8c-2.3-55-32.8-107.1-77.1-138.1c-12.5-8.7-25.9-15.5-40-20.4C427.1-9.5,366.6,1.3,322,36.5
				c-58.9,46-91,130.8-55.2,201.3l0,0c0.5,1.2,1.2,2.1,1.6,3.3l0,0c31.4,57.8,100.7,87.1,163.5,87.1c10.9,0,21.7-0.9,32.1-2.6
				c34.6-5.6,65.4-20.7,88.7-43c12.9-12.4,23.3-27,31.2-43.4c2.5-5.6,4.9-11.3,6.7-17.1c4.6-14.8,7.4-31,7.4-48.1
				C598,172,597.8,169.9,597.8,167.8z"/>
		</defs>
		<clipPath id="SVGID_2_">
			<use xlink:href="#SVGID_1_"  overflow="visible"/>
		</clipPath>
		<g id="Lines_1_" clip-path="url(#SVGID_2_)">
			<g>
				<path fill="#FFFFFF" d="M279.1,118.2c0,0-0.9,3.3-2.3,8.9c-0.5,2.8-1.4,5.9-2.1,9.9c-0.2,1.9-0.7,4-1.2,6.1
					c-0.2,2.1-0.7,4.5-0.9,6.8c-0.5,4.7-0.9,10.1-1.2,15.5c-0.2,2.8-0.2,5.6-0.2,8.5s0,5.9,0,8.9c0.2,3.1,0.2,6.1,0.5,9.2
					c0.2,3.1,0.5,6.3,0.7,9.4c0.2,3.1,0.7,6.3,1.2,9.6s0.9,6.3,1.4,9.6c0.9,6.3,2.1,12.9,3.2,19c0.7,3.1,1.4,6.3,1.8,9.4
					c0.7,3.1,1.4,6.1,2.1,9.2c1.4,5.9,2.8,11.7,3.9,17.1c1.4,5.4,2.5,10.6,3.7,15.5c2.3,9.6,4.4,17.6,5.5,23.2
					c1.4,5.6,2.1,8.9,2.1,8.9l-7.2,2.3c0,0-1.2-3.1-3.2-8.5c-2.1-5.4-4.9-13.2-7.9-22.8c-1.6-4.7-3.2-9.9-4.9-15.3
					c-1.6-5.4-3.5-11.3-4.9-17.4c-0.7-3.1-1.6-6.1-2.3-9.2c-0.7-3.3-1.4-6.3-2.1-9.6c-1.4-6.6-2.5-13.2-3.7-19.7
					c-0.5-3.3-0.9-6.6-1.4-10.1c-0.5-3.3-0.7-6.8-0.9-10.1c-0.5-6.6-0.7-13.2-0.7-19.7c0-3.3,0-6.3,0.2-9.4c0.2-3.1,0.5-6.1,0.7-8.9
					c0.5-2.8,0.5-5.9,1.2-8.5c0.5-2.8,0.9-5.4,1.4-8c0.5-2.6,1.2-4.9,1.6-7.3c0.7-2.3,1.2-4.5,1.6-6.3c0.9-4,2.3-7.5,3.2-10.3
					c0.9-2.8,1.8-4.7,2.5-6.3c0.7-1.4,0.9-2.1,0.9-2.1L279.1,118.2z"/>
			</g>
			<g>
				<path fill="#FFFFFF" d="M292.7,90.3c0,0,1.4-0.5,3.7-1.2c2.5-0.7,6-1.6,10.6-2.6c4.6-0.9,10.2-2.1,16.4-3.1
					c3.2-0.5,6.7-0.9,10.2-1.4c1.8-0.2,3.7-0.5,5.5-0.7c1.8-0.2,3.9-0.5,5.8-0.5c3.9-0.5,8.1-0.7,12.5-0.9c4.4-0.2,8.8-0.5,13.4-0.5
					c9.2-0.2,18.7-0.2,28.6,0.5c5.1,0.5,9.9,0.7,15.2,1.2c5.1,0.5,10.2,1.2,15.5,1.6c5.1,0.9,10.4,1.6,15.7,2.6
					c5.3,0.9,10.4,2.1,15.7,3.3c5.3,0.9,10.4,2.6,15.5,4c2.5,0.7,5.1,1.4,7.6,2.1c0.7,0.2,1.2,0.2,2.1,0.7l1.8,0.7l3.7,1.2
					c10.2,3.5,19.9,7.5,28.9,12c9,4.5,17.6,9.2,25.4,13.9c7.9,4.7,15,9.4,21.7,14.1c6.5,4.5,12.5,8.9,17.6,12.9
					c5.1,4,9.5,7.5,13.2,10.6c3.7,3.1,6.2,5.4,8.1,7c1.8,1.6,2.8,2.6,2.8,2.6l-5.3,7.3c0,0-4.4-3.1-11.8-8.2
					c-3.7-2.6-8.3-5.6-13.6-9.2c-5.8-4.5-11.8-8.2-18.5-12.4c-6.7-4-13.9-8.2-21.7-12.4s-16.2-8.5-24.7-12.4
					c-8.8-4-18-7.5-27.3-10.8l-3.7-1.2l-1.8-0.7c-0.5-0.2-1.2-0.2-1.6-0.5c-2.5-0.7-4.9-1.4-7.4-1.9c-4.9-1.4-9.9-2.8-14.8-3.8
					c-5.1-1.2-9.9-2.3-15-3.3c-5.1-0.9-9.9-1.6-15-2.6c-5.1-0.7-9.9-1.4-14.8-1.9c-4.9-0.7-9.7-0.9-14.6-1.4
					c-9.5-0.7-18.9-1.2-27.7-1.4c-4.4-0.2-8.8,0-12.9,0c-4.2,0-8.1,0-12,0.2c-1.8,0-3.9,0.2-5.5,0.2c-1.8,0.2-3.7,0.2-5.3,0.2
					c-3.5,0.2-6.9,0.5-9.9,0.7c-6.2,0.5-11.8,1.2-16.2,1.6c-4.4,0.5-7.9,1.2-10.4,1.4c-2.3,0.5-3.7,0.7-3.7,0.7L292.7,90.3z"/>
			</g>
			<g>
				<path fill="#FFFFFF" d="M295.2,91.2c0,0,1.2,0.7,3,2.1c2.1,1.4,5.1,3.5,8.8,6.1c7.6,5.4,18.7,12.7,32.1,21.4
					c6.7,4.2,14.1,8.9,21.7,13.6c7.9,4.7,15.9,9.6,24.7,14.6c4.2,2.6,8.8,4.9,13.2,7.5c2.3,1.2,4.4,2.6,6.7,3.8
					c2.3,1.2,4.6,2.3,6.9,3.8c2.3,1.2,4.6,2.3,6.9,3.8c2.3,1.2,4.6,2.3,6.9,3.5c4.6,2.3,9.5,4.7,14.1,7l7.2,3.5l1.8,0.9l0.9,0.2
					l0.9,0.5l3.7,1.6c4.9,2.3,9.5,4.2,14.3,6.1c9.5,4,18.9,7.5,28.2,10.8c9.2,3.3,18.2,5.9,27,8c8.5,2.3,16.9,3.8,24.5,4.9
					c3.9,0.5,7.6,1.2,11.1,1.4c1.8,0.2,3.5,0.2,5.1,0.5c1.6,0,3.2,0.2,4.9,0.2c3.2,0.2,6,0.2,8.8,0.2c1.4,0,2.8,0,3.9,0
					s2.5,0,3.5-0.2c2.3-0.2,4.4-0.2,6-0.2c1.8-0.2,3.2-0.2,4.6-0.5c2.5-0.2,3.9-0.5,3.9-0.5l1.4,8.9c0,0-1.4,0.2-3.7,0.7
					c-1.2,0.2-2.8,0.5-4.6,0.9c-2.1,0.5-3.9,0.7-6.5,0.9c-1.2,0.2-2.5,0.2-3.7,0.5c-1.4,0-2.8,0.2-4.2,0.2c-3,0.2-6,0.5-9.5,0.5
					c-1.6,0-3.5,0-5.1,0c-1.8,0-3.7,0-5.5-0.2c-3.7,0-7.6-0.5-11.8-0.7c-8.1-0.7-17.1-1.9-26.1-4c-9.2-1.9-18.7-4.5-28.4-7.5
					c-9.7-3.1-19.6-6.6-29.6-10.6c-4.9-2.1-9.9-4.2-14.8-6.3l-3.7-1.6l-1.8-0.9l-1.8-0.9l-7.6-2.3c-4.9-2.3-9.7-4.7-14.6-7.3
					c-2.3-1.2-4.9-2.6-7.2-3.8c-2.3-1.2-4.6-2.6-6.9-3.8c-4.6-2.6-9.2-5.2-13.9-7.7c-4.6-2.6-9-5.2-13.2-8c-4.4-2.6-8.5-5.2-12.7-8
					c-4.2-2.6-8.1-5.2-12-7.7c-7.6-5.2-14.8-10.3-21.5-15c-13.2-9.6-23.6-17.8-31-24c-3.7-3.1-6.5-5.4-8.3-7c-1.8-1.6-3-2.6-3-2.6
					L295.2,91.2z"/>
			</g>
			<g>
				<path fill="#FFFFFF" d="M296.2,94.7L296.2,94.7l-0.2,1.2v0.5v0.2l0,0l0,0c0,0,0,0.2,0-0.2v1.4v0.7c0,0.2,0,0.2,0,0.5l0.2,0.9
					c0.2,1.4,0.7,3.3,1.2,4.9c0.9,3.5,2.3,6.8,3.7,10.3c3,6.8,6.5,13.4,10.4,20s7.9,12.9,12.2,19c4.4,6.1,8.8,12.2,13.6,18.1
					c9.5,11.7,19.9,22.8,30.7,32.9c10.9,10.3,22.6,19.7,34.9,27.9c6.2,4.2,12.5,8.2,18.9,11.7l4.9,2.6l5.1,2.6
					c3.5,1.9,6.7,3.3,10.2,5.2c6.7,3.3,13.6,6.3,20.3,9.4c3.5,1.4,6.9,2.8,10.4,4l5.3,1.9l5.3,1.6c3.5,1.2,7.2,1.9,10.6,2.8
					c3.7,0.7,7.2,1.6,10.9,2.1c7.2,1.4,14.6,1.9,21.7,2.1c3.7,0,7.4,0.2,11.1-0.2l5.5-0.2l5.5-0.7c3.7-0.5,7.4-1.2,10.9-1.9
					c3.7-0.7,7.2-1.6,10.9-2.6l2.8,8.5c-7.4,2.8-15,5.2-22.6,6.8l-5.8,1.2l-6,0.7c-3.9,0.7-7.9,0.7-11.8,1.2
					c-7.9,0.2-15.9,0-23.8-0.9c-3.9-0.2-7.9-1.2-11.8-1.9c-3.9-0.9-7.9-1.6-11.5-2.6c-7.6-1.9-15.2-4.5-22.6-7.3
					c-7.4-2.8-14.6-5.9-21.7-9.2c-3.5-1.6-7.2-3.5-10.6-5.2l-5.1-2.6l-5.3-2.8c-6.9-3.8-13.6-8-20.3-12.4
					c-6.5-4.5-12.9-9.2-18.9-14.3c-6-4.9-12-10.1-17.8-15.7c-5.8-5.4-11.1-11.3-16.4-17.1c-5.3-5.9-10.2-12-15-18.3
					c-4.9-6.3-9.2-12.7-13.6-19.5c-4.2-6.6-8.3-13.6-11.8-20.7c-3.7-7-6.9-14.3-9.7-22.1c-1.4-3.8-2.5-7.7-3.5-11.7
					c-0.5-2.1-0.7-4.2-0.9-6.6V99c0-0.2,0-0.7,0-0.9v-0.7l0.2-1.4c0-0.5,0-0.2,0-0.5v-0.2V95v-0.5l0.2-1.2l-0.2,1.2l0,0h9.5V94.7z"
					/>
			</g>
			<g>
				<path fill="#FFFFFF" d="M291.5,97.6L291.5,97.6L291.5,97.6L291.5,97.6c0.2-0.9,0-0.2,0.2-0.5l0,0l0,0l0,0c0,0.2,0,0.5-0.2,0.7
					c0,0.7-0.2,1.6-0.5,3.1c-0.2,2.6-0.7,6.8-0.9,11.7c0,1.4-0.2,2.6-0.2,4.2c0,1.4,0,2.8,0,4.5c-0.2,3.1,0,6.3,0,9.9
					c0.2,7,0.7,15,1.8,23.7c0.5,4.2,1.4,8.7,2.1,13.4c0.5,2.3,0.9,4.7,1.4,7c0.5,2.3,0.9,4.7,1.6,7c0.7,2.3,1.4,4.7,2.1,7.3
					c0.7,2.3,1.6,4.7,2.5,7.3c1.6,4.9,3.7,9.6,5.8,14.6c0.9,2.6,2.3,4.7,3.5,7.3c1.4,2.3,2.3,4.9,3.9,7.3c3,4.7,5.5,9.4,9,13.9
					c1.6,2.3,3.2,4.5,4.9,6.8c1.8,2.1,3.7,4.2,5.5,6.3l2.8,3.3c0.9,1.2,2.1,2.1,3,3.1l6,5.9l1.6,1.4l0,0c0,0,0.2,0.2,0,0l0.2,0.2
					l0.5,0.5l0.9,0.7l3.2,2.8c2.1,1.9,4.2,3.5,6.5,5.2s4.4,3.3,6.9,4.9l3.5,2.3l3.5,2.1c9.5,5.9,19.4,11,29.1,15.3
					c9.9,4.2,19.6,7.7,29.1,10.6c9.5,2.8,18.5,5.2,27,6.8c2.1,0.5,4.2,0.9,6.2,1.2c2.1,0.5,4.2,0.7,6,1.2c3.9,0.7,7.6,1.4,11.1,1.9
					c6.9,1.2,13.2,1.9,18.2,2.3c10.2,0.9,15.9,1.4,15.9,1.4l-0.2,8.9c0,0-1.4,0-4.2,0s-6.9,0-12,0c-5.3-0.2-11.5-0.5-18.7-0.9
					c-7.4-0.5-15.5-1.4-24.3-2.8c-4.4-0.7-9-1.6-13.9-2.3c-4.9-1.2-9.7-2.1-14.6-3.5c-9.9-2.6-20.6-5.9-31-10.1
					c-10.6-4.2-21.2-9.4-31.6-15.7l-3.9-2.3l-3.7-2.6c-2.5-1.6-5.1-3.5-7.4-5.4c-2.5-1.9-5.1-4-7.4-5.9l-3.5-2.8l-0.9-0.7l-0.5-0.5
					l-0.2-0.2l-0.2-0.2l-1.6-1.6l-6.5-6.6c-1.2-1.2-2.3-2.1-3.2-3.3l-3-3.5c-2.1-2.3-3.9-4.7-6-7c-1.8-2.3-3.7-4.9-5.3-7.5
					c-3.7-4.9-6.5-10.3-9.7-15.5c-1.6-2.6-2.8-5.4-3.9-8c-1.2-2.6-2.8-5.2-3.7-8c-1.2-2.8-2.1-5.4-3.2-8c-0.5-1.4-0.9-2.6-1.4-4
					s-0.9-2.6-1.2-4c-0.7-2.6-1.8-5.2-2.3-8c-0.7-2.6-1.4-5.2-1.8-7.7c-0.7-2.6-1.2-5.2-1.6-7.7c-0.5-2.6-0.9-4.9-1.4-7.5
					c-0.7-4.9-1.4-9.6-1.6-14.3c-0.9-9.2-0.7-17.6-0.5-25.1c0.2-3.8,0.2-7.3,0.7-10.6c0.2-1.6,0.2-3.3,0.5-4.7
					c0.2-1.4,0.5-2.8,0.5-4c0.7-5.4,1.6-9.4,2.1-12.2c0.2-1.4,0.5-2.6,0.7-3.3c0-0.5,0.2-0.7,0.2-0.7c0-0.2,0.2-0.5,0.2-0.7l0,0l0,0
					L291.5,97.6z"/>
			</g>
			<g>
				<path fill="#FFFFFF" d="M289.9,90.7L289.9,90.7l-1.6,1.2c4.2-5.6,8.5-10.3,13.2-15c4.6-4.7,9.5-9.2,14.6-13.4
					c5.1-4.2,10.4-8.2,15.7-12.2c2.8-1.9,5.3-3.8,8.3-5.6l4.2-2.6l4.2-2.6c5.8-3.3,11.5-6.3,17.6-9.2c3-1.4,6-2.6,9-4
					c3-1.2,6.2-2.3,9.2-3.5c3.2-1.2,6.2-2.1,9.5-3.1c3.2-0.9,6.5-1.9,9.5-2.6c3.2-0.7,6.5-1.4,9.7-2.1c3.2-0.7,6.5-1.2,9.7-1.6
					c3.2-0.7,6.5-0.9,9.9-1.2c3.2-0.5,6.7-0.5,9.9-0.7l5.1-0.9h5.1c3.2,0,6.7,0,9.9,0.2c3.2,0.2,6.7,0.2,9.9,0.7l9.9,1.2
					c3.2,0.5,6.5,1.2,9.7,1.6l4.9,0.9l4.9,1.2c3.2,0.7,6.5,1.4,9.5,2.3l9.5,2.8c6.2,1.9,12.5,4.2,18.5,6.8c6,2.6,12,5.2,17.8,8.2
					c5.8,3.1,11.5,6.1,17.1,9.4l-4.2,8c-5.8-2.6-11.5-4.9-17.6-7.3c-5.8-2.3-11.8-4.5-17.8-6.3c-6-1.9-12-3.8-18-5.2l-9-2.6
					c-3-0.7-6-1.2-9-1.9l-4.6-0.9l-4.6-0.7c-3-0.5-6-0.9-9.2-1.2l-9.2-0.7c-3-0.2-6.2-0.2-9.2-0.2c-3-0.2-6.2,0-9.2,0h-4.6l-4.6,0.2
					c-6.2,0.2-12.2,1.2-18.2,1.9c-3,0.5-6,0.9-9,1.6c-3,0.7-6,1.2-9,1.9c-3,0.7-6,1.6-9,2.3l-8.8,2.8c-3,0.9-5.8,2.1-8.8,3.1
					c-2.8,1.2-5.8,2.3-8.5,3.5c-5.5,2.6-11.3,5.2-16.9,8c-5.5,2.8-10.9,6.1-16.2,9.4c-5.3,3.3-10.4,6.8-15.5,10.6
					s-9.9,7.5-14.8,11.7c-2.3,2.1-4.6,4.2-6.9,6.3s-4.6,4.5-6.7,6.6l-0.9,0.9l-0.9,0.5l0,0L289.9,90.7z"/>
			</g>
		</g>
	</g>
	<path fill="#A1625D" d="M278.6,122.7c-8.1,0-14.8-5.4-21-10.8c-8.5-7.5-20.1-22.1-25.9-31.2c-1.4-2.1-0.7-3.8-0.2-4.5
		c0.5-0.7,1.6-2.1,4.2-2.1c1.2,0,2.8,0.2,4.4,0.7c-0.9-0.7-1.6-1.2-2.3-1.6l-1.2-0.7c-4.6-3.1-8.1-5.9-11.3-8.5l-0.7-0.5
		c-2.5-2.1-8.8-7.7-3.9-13.9c2.5-3.1,6.7-3.3,9.9-3.3c0.9,0,2.1,0,2.8-0.2c-0.5-0.7-0.9-1.6-1.4-2.3c-1.2-1.6-2.3-3.3-2.8-5.2
		c-1.8-5.9-1.2-12.2,1.8-18.8c0.7-1.4,2.1-2.3,3.5-2.3c1.6,0,3,0.9,3.5,2.3c0.5,1.2,1.8,3.3,3.9,6.6c0.2,0.2,0.5,0.5,0.5,0.7
		c3.5,5.9,6,10.3,8.5,14.3l1.2,1.6c4.9,7.5,10.4,15.7,17.3,20.4c4.2,2.6,8.5,3.3,13.4,3.8c4.2,0.5,8.5,1.2,12.9,3.1
		c9.9,4.5,14.6,16.4,10.9,27.2c-2.5,7.5-9,16-16.4,20.9c-1.4,0.9-3,1.9-4.6,2.6C283.7,122.2,281.1,122.7,278.6,122.7z"/>
	<path fill="#FFFFFF" d="M234.7,21.2c0.2,0,0.2,0,0.5,0.2c1.2,2.3,4.4,7.3,4.6,7.5c2.8,4.9,5.8,9.6,8.8,14.3
		c5.3,8,11.3,17.8,19.4,23c8.5,5.4,18.2,3.3,27,7c8.5,3.8,12,14.1,9,22.8c-2.3,6.8-8.5,14.6-15,19c-1.4,0.9-2.8,1.6-3.9,2.3
		c-2.1,0.9-4.2,1.4-6.2,1.4c-6.9,0-13.4-5.2-18.7-9.9c-8.1-7-19.4-21.1-25.2-30.3c-0.5-0.9-0.2-1.2,0.9-1.2c2.1,0,7.2,1.6,9.9,1.6
		c0.7,0,1.2,0,1.6-0.5c0.2-0.2,0.5-0.7,0.2-1.2c-1.2-3.5-6-6.3-8.8-8.2c-3.7-2.6-7.4-5.2-10.9-8.2c-2.5-2.1-7.2-5.6-4.2-9.4
		c2.5-3.1,8.5-1.4,12-2.6c5.3-1.9-1.6-7.5-2.8-11.7C231.3,31.8,232.4,26.4,234.7,21.2C234.3,21.2,234.5,21.2,234.7,21.2 M234.7,14.2
		c-2.8,0-5.5,1.6-6.7,4.2c-3.5,7.5-4.2,14.6-2.1,21.4c0.5,1.2,0.9,2.1,1.4,3.3c-3,0.2-6.7,1.2-9.2,4.5c-3.2,4-5.3,10.3,4.2,18.8
		l0.5,0.5c2.1,1.9,4.4,3.8,7.2,5.9c-0.9,0.7-1.6,1.6-1.8,2.1c-1.4,2.6-1.2,5.4,0.5,8c6,9.4,17.8,24.2,26.6,31.9
		c4.9,4.5,13.2,11.5,23.3,11.5c3,0,6.2-0.7,9-2.1c1.6-0.7,3.5-1.9,5.1-3.1c7.9-5.4,14.8-14.1,17.6-22.5c4.4-12.7-1.4-26.5-12.7-31.7
		c-4.9-2.1-9.7-2.8-14.1-3.3c-4.6-0.5-8.5-1.2-12-3.3C264.7,56,259.7,48,254.8,41l-1.2-1.6c-2.5-4-5.3-8.2-8.5-14.1l0,0l0,0
		c0,0-0.2-0.2-0.5-0.7c-2.8-4-3.5-5.6-3.7-6.1C240,15.8,237.5,14.2,234.7,14.2L234.7,14.2z"/>
	<path opacity="0.2" enable-background="new    " d="M288.8,115.4c-1.4,0.9-2.8,1.6-3.9,2.3c-9.7,4.5-18-2.3-24.9-8.5
		c-8.1-7-19.4-21.1-25.2-30.3c-2.1-3.5,10.2,1.9,12.2,0c4.4,2.6,15.5,19,25.2,27C279.5,112.1,286,109.3,288.8,115.4z"/>
	<g>
		<g>
			<g>
				<path d="M361.7,561.2c-3.3,0-6.7-0.3-9.1-0.9c-9.4-2.4-17.7-8.5-23.8-17.7c-5.2-7.9-8.8-18-10.4-28.3
					c-3.3-23.8,2.7-48.7,16.7-68.2c1.5-2.1,3-4,4.9-6.1c1.2-8.5,5.8-17.1,12.2-24.1c10-10.7,23.4-16.7,36.5-16.7
					c14.3,0,27.7,5.5,37.2,14.9c9.7,9.7,15.5,24.4,15.5,39c0,13.4-2.7,28.3-7.3,41.7c-5.5,14.9-11.9,27.4-20.1,37.5
					c-9.1,11.6-18,20.1-31.1,25C376.3,560,368.4,561.2,361.7,561.2L361.7,561.2z M343.4,461.7c-0.3,1.2-0.6,2.1-0.9,3.3
					c-3,10.7-3.7,22.5-2.4,35.3c1.2,11.9,5.8,33.2,22.2,43.9c3.7,2.4,7.9,4,11.9,4c1.5,0,2.7-0.3,4-0.6c3.3-0.9,6.7-3,10-6.4
					c10-9.7,16.1-23.8,21.9-38.1c7.3-18.6,10-33.5,8.2-47.2c-1.5-13.4-7.6-25.6-16.7-33.8c-2.4-2.1-6.1-5.2-10.4-7.3
					c-4,2.4-7.9,4.9-11.9,7.3c-6.7,4-13.4,7.9-19.2,13.1c-0.3,6.4,1.2,12.8,4.6,18.6c4.9,8.5,13.1,14.9,23.4,18.3
					c0.3,0,0.9,0.3,1.5,0.3c3.3,0.6,5.2,1.2,5.5,2.4c0.3,0.9,0.3,1.5-0.3,2.4c-1.5,2.7-8.2,4.3-8.2,4.3c-2.7,0.6-5.5,0.6-8.2,0.6
					c-7.6,0-14.6-1.8-20.7-5.2C351.6,472.6,346.7,467.5,343.4,461.7z M379.6,411.1c-2.7,0-5.5,0.6-7.6,1.8c-3,1.8-5.5,4.3-7,6.7
					c6.4-3.3,12.8-6.1,19.8-7.9C383,411.1,381.5,411.1,379.6,411.1z"/>
				<path d="M388.5,400.5c14.3,0,27.4,5.5,36.2,14.6c9.7,10,15.2,24.1,15.2,38.4c0,13.4-2.7,28-7.3,41.1
					c-4.9,13.4-11.3,26.2-20.1,37.2c-8.8,11-17.4,19.8-30.5,24.7c-5.8,2.1-13.4,3.7-20.1,3.7c-3,0-6.4-0.3-9.1-0.9
					c-20.1-4.9-30.8-25.9-33.5-45.1c-3.3-23.4,2.7-48.1,16.7-67.3c1.5-2.1,3.3-4.3,4.9-6.1c-0.6,4-0.6,7.6,0.3,11.6
					c0.6,2.1,1.2,4.3,2.1,6.4c-0.6,2.1-1.5,4-1.8,6.1c-3,11.6-3.7,23.8-2.4,35.6c1.8,16.7,8.2,35,22.8,44.8c3.7,2.4,8.2,4,12.5,4
					c1.5,0,3-0.3,4.3-0.6c4-0.9,7.6-3.7,10.7-6.7c10.4-10.4,16.7-25.3,22.2-38.7c6.1-15.2,10.4-31.4,8.2-47.8
					c-1.5-13.1-7.3-25.6-17.1-34.7c-3-3-7-5.8-11.3-7.9c0.9-0.6,1.8-1.2,2.7-2.1c-0.6,0-1.2,0.3-1.8,0.3c-1.2,0.3-2.4,0.3-3.3,0.6
					c-3-1.2-6.1-2.1-9.4-2.1c-2.7,0-5.5,0.6-8.2,2.1c-4,2.1-6.7,5.8-8.8,9.7c-0.3,0.6-0.3,0.9-0.6,1.5c-7.9,4.9-14.9,10.7-21,17.7
					c1.2-8.8,5.8-17.4,11.9-23.8C362.3,407.2,375.1,400.5,388.5,400.5 M389.1,411.7c0.9,0.3,1.5,0.6,2.4,1.2
					c-10.7,7.3-22.5,12.5-32,21c0.3-4,0.9-7.6,2.7-11.3C370.2,417.8,379.6,413.9,389.1,411.7 M359.2,434c-0.3,6.7,1.2,13.7,4.6,19.5
					c5.2,9.1,14.3,15.5,24.1,18.9c0.9,0.3,5.8,0.9,6.1,1.8c0.9,2.7-6.1,4.6-7.6,4.9c-2.7,0.6-5.2,0.6-7.9,0.6c-7,0-14-1.5-20.4-5.2
					c-6.4-3.7-11.9-9.4-14.9-16.4C346.7,449.2,351.9,440.7,359.2,434L359.2,434 M388.5,398c-13.4,0-27.1,6.1-37.5,17.1
					c-6.7,7-11,15.5-12.5,24.4c-1.5,1.8-3,4-4.6,5.8c-14.3,19.8-20.4,44.8-17.1,69.1c1.5,10.7,5.2,21,10.7,28.9
					c6.4,9.4,14.9,15.8,24.7,18.3c2.7,0.6,6.1,1.2,9.4,1.2c6.7,0,14.6-1.5,21-3.7c13.1-4.9,22.2-13.7,31.7-25.6
					c8.2-10.4,14.9-22.8,20.4-37.8c4.9-13.4,7.6-28.3,7.6-42c0-14.9-5.8-29.8-15.8-39.9C416.8,403.8,403.1,398,388.5,398L388.5,398z
					 M369.9,416c0.9-0.6,1.8-1.2,2.7-1.8c1.8-0.9,4-1.5,6.1-1.8C375.7,413.2,372.6,414.5,369.9,416L369.9,416z M361.7,435.2
					c5.5-4.9,11.9-8.5,18.6-12.5c3.7-2.1,7.6-4.3,11.3-6.7c4,2.1,7.3,4.9,9.7,7c8.8,8.2,14.6,19.8,16.1,33.2
					c1.8,13.7-0.9,28.3-8.2,46.6c-5.8,14.3-11.6,28-21.6,37.8c-3.3,3-6.4,5.2-9.4,6.1c-1.2,0.3-2.4,0.6-3.7,0.6
					c-3.7,0-7.6-1.2-11.3-3.7c-7-4.6-18.9-16.1-21.6-42.9c-1.2-12.5-0.6-24.4,2.1-34.7c0-0.3,0-0.6,0.3-0.9
					c3.3,5.2,7.9,9.4,13.4,12.5c6.4,3.7,13.7,5.5,21.3,5.5c2.7,0,5.5-0.3,8.5-0.6c0,0,7-1.2,9.1-4.9c0.6-0.9,0.6-2.1,0.3-3.3
					c-0.6-1.8-2.7-2.4-6.4-3c-0.6,0-1.2-0.3-1.2-0.3c-10-3.3-18-9.7-22.5-17.7C363.2,447,361.7,441,361.7,435.2L361.7,435.2z
					 M343.1,441.6c4.3-4.9,9.1-9.1,14.6-13.1c-0.3,1.5-0.6,2.7-0.6,4.3c-5.5,5.2-10,11.6-13.4,18.9v-0.3
					C342.8,448.3,342.8,444.9,343.1,441.6L343.1,441.6z"/>
			</g>
		</g>
		<g>
			<g>
				<path d="M229.8,561.2c-3.3,0-6.7-0.3-9.1-0.9c-9.4-2.4-17.7-8.5-23.8-17.7c-5.2-7.9-8.8-18-10.4-28.3
					c-3.3-23.8,2.7-48.7,16.7-68.2c1.5-2.1,3-4,4.9-6.1c1.2-8.5,5.8-17.1,12.2-24.1c10-10.7,23.4-16.7,36.5-16.7
					c14.3,0,27.7,5.5,37.2,14.9c9.7,9.7,15.5,24.4,15.5,39c0,13.4-2.7,28.3-7.3,41.7c-5.5,14.9-11.9,27.4-20.1,37.5
					c-9.1,11.6-18,20.1-31.1,25C244.1,560,236.5,561.2,229.8,561.2L229.8,561.2z M211.5,461.7c-0.3,1.2-0.6,2.1-0.9,3.3
					c-3,10.7-3.7,22.5-2.4,35.3c1.2,11.9,5.8,33.2,22.2,43.9c3.7,2.4,7.9,4,11.9,4c1.5,0,2.7-0.3,4-0.6c3.3-0.9,6.7-3,10-6.4
					c10-9.7,16.1-23.8,21.9-38.1c7.3-18.6,10-33.5,8.2-47.2c-1.5-13.4-7.6-25.6-16.7-33.8c-2.4-2.1-6.1-5.2-10.4-7.3
					c-4,2.4-7.9,4.9-11.9,7.3c-6.7,4-13.4,7.9-19.2,13.1c-0.3,6.4,1.2,12.8,4.6,18.6c4.9,8.5,13.1,14.9,23.4,18.3
					c0.3,0,0.9,0.3,1.5,0.3c3.3,0.6,5.2,1.2,5.5,2.4c0.3,0.9,0.3,1.5-0.3,2.4c-1.5,2.7-8.2,4.3-8.2,4.3c-2.7,0.6-5.5,0.6-8.2,0.6
					c-7.6,0-14.6-1.8-20.7-5.2C219.7,472.6,214.9,467.5,211.5,461.7z M247.8,411.1c-2.7,0-5.5,0.6-7.6,1.8c-3,1.8-5.5,4.3-7,6.7
					c6.4-3.3,12.8-6.1,19.8-7.9C251.1,411.1,249.3,411.1,247.8,411.1z"/>
				<path d="M256.6,400.5c14.3,0,27.4,5.5,36.2,14.6c9.7,10,15.2,24.1,15.2,38.4c0,13.4-2.7,28-7.3,41.1
					c-4.9,13.4-11.3,26.2-20.1,37.2c-8.8,11-17.4,19.8-30.5,24.7c-5.8,2.1-13.4,3.7-20.1,3.7c-3,0-6.4-0.3-9.1-0.9
					c-20.1-4.9-30.8-25.9-33.5-45.1c-3.3-23.4,2.7-48.1,16.7-67.3c1.5-2.1,3.3-4.3,4.9-6.1c-0.6,4-0.6,7.6,0.3,11.6
					c0.6,2.1,1.2,4.3,2.1,6.4c-0.6,2.1-1.5,4-1.8,6.1c-3,11.6-3.7,23.8-2.4,35.6c1.8,16.7,8.2,35,22.8,44.8c3.7,2.4,8.2,4,12.5,4
					c1.5,0,3-0.3,4.3-0.6c4-0.9,7.6-3.7,10.7-6.7c10.4-10.4,16.7-25.3,22.2-38.7c6.1-15.2,10.4-31.4,8.2-47.8
					c-1.5-13.1-7.3-25.6-17.1-34.7c-3-3-7-5.8-11.3-7.9c0.9-0.6,1.8-1.2,2.7-2.1c-0.6,0-1.2,0.3-1.8,0.3c-1.2,0.3-2.4,0.3-3.3,0.6
					c-3-1.2-6.1-2.1-9.4-2.1c-2.7,0-5.5,0.6-8.2,2.1c-4,2.1-6.7,5.8-8.8,9.7c-0.3,0.6-0.3,0.9-0.6,1.5c-7.9,4.9-14.9,10.7-21,17.7
					c1.2-8.8,5.8-17.4,11.9-23.8C230.4,407.2,243.2,400.5,256.6,400.5 M257.2,411.7c0.9,0.3,1.5,0.6,2.4,1.2
					c-10.7,7.3-22.5,12.5-32,21c0.3-4,0.9-7.6,2.7-11.3C238.3,417.8,247.8,413.9,257.2,411.7 M227.4,434c-0.3,6.7,1.2,13.7,4.6,19.5
					c5.2,9.1,14.3,15.5,24.1,18.9c0.9,0.3,5.8,0.9,6.1,1.8c0.9,2.7-6.1,4.6-7.6,4.9c-2.7,0.6-5.2,0.6-7.9,0.6c-7,0-14-1.5-20.4-5.2
					c-6.4-3.7-11.9-9.4-14.9-16.4C214.9,449.2,220.1,440.7,227.4,434L227.4,434 M256.6,398c-13.4,0-27.1,6.1-37.5,17.1
					c-6.7,7-11,15.5-12.5,24.4c-1.5,1.8-3,4-4.6,5.8C187.8,465,181.7,490,185,514.4c1.5,10.7,5.2,21,10.7,28.9
					c6.4,9.4,14.9,15.8,24.7,18.3c2.7,0.6,6.1,1.2,9.4,1.2c6.7,0,14.6-1.5,21-3.7c13.1-4.9,22.2-13.7,31.7-25.6
					c8.2-10.4,14.9-22.8,20.4-37.8c4.9-13.4,7.6-28.3,7.6-42c0-14.9-5.8-29.8-15.8-39.9C284.9,403.8,271.2,398,256.6,398L256.6,398z
					 M238,416c0.9-0.6,1.8-1.2,2.7-1.8c1.8-0.9,4-1.5,6.1-1.8C243.8,413.2,240.8,414.5,238,416L238,416z M229.8,435.2
					c5.5-4.9,11.9-8.5,18.6-12.5c3.7-2.1,7.6-4.3,11.3-6.7c4,2.1,7.3,4.9,9.7,7c8.8,8.2,14.6,19.8,16.1,33.2
					c1.8,13.7-0.9,28.3-8.2,46.6c-5.8,14.3-11.6,28-21.6,37.8c-3.3,3-6.4,5.2-9.4,6.1c-1.2,0.3-2.4,0.6-3.7,0.6
					c-3.7,0-7.6-1.2-11.3-3.7c-7-4.6-18.9-16.1-21.6-42.9c-1.2-12.5-0.6-24.4,2.1-34.7c0-0.3,0-0.6,0.3-0.9
					c3.3,5.2,7.9,9.4,13.4,12.5c6.4,3.7,13.7,5.5,21.3,5.5c2.7,0,5.5-0.3,8.5-0.6c0,0,7-1.2,9.1-4.9c0.6-0.9,0.6-2.1,0.3-3.3
					c-0.6-1.8-2.7-2.4-6.4-3c-0.6,0-1.2-0.3-1.2-0.3c-10-3.3-18-9.7-22.5-17.7C231.3,447,229.8,441,229.8,435.2L229.8,435.2z
					 M211.2,441.6c4.3-4.9,9.1-9.1,14.6-13.1c-0.3,1.5-0.6,2.7-0.6,4.3c-5.5,5.2-10,11.6-13.4,18.9v-0.3
					C210.9,448.3,210.9,444.9,211.2,441.6L211.2,441.6z"/>
			</g>
		</g>
		<g>
			<g>
				<path d="M477.4,561.2c-3.3,0-6.7-0.3-9.4-0.9c-8.5-2.1-16.4-7.6-22.2-15.5c-4.9-6.7-10.4-16.4-7.6-25.9
					c1.5-5.2,4.9-9.7,9.4-12.8c1.2-0.9,2.7-1.2,4.3-1.2c0.9,0,1.8,0.3,2.7,0.6c1.5,0.9,2.4,2.4,2.7,3.3c0.6,1.8,0.9,3.7,1.5,5.2
					c0.3,1.5,0.9,3.3,1.5,4.9c1.2,3.3,2.7,6.7,4.3,9.7c3.7,6.4,8.2,11.3,13.7,14.9c3.7,2.4,7.9,4,11.9,4c1.5,0,2.7-0.3,4-0.6
					c3-0.9,6.1-2.7,9.4-5.8c3.3-3.3,4.6-6.4,5.5-11.3c0.3-2.1,1.2-7.3,0.3-14c-0.6-4.9-2.1-8.8-4.3-12.5
					c-4.6-7.9-13.1-12.8-21.3-17.4c-10-5.5-20.4-11.3-24.1-23.1c-3-9.7-2.1-24.7,19.5-42c9.4-7.6,24.1-18.3,40.8-21.6
					c4.3-0.9,7.9-1.2,11.6-1.2c4.9,0,8.8,0.9,12.5,2.4c5.2,2.4,7.9,7.3,7,12.5c-0.9,4.6-5.8,8.8-10.7,8.8l0,0c-4.3,0-7.6-1.8-11-4
					c-2.4-1.5-4.9-2.7-7.6-3.3c-1.5-0.3-3-0.6-4.9-0.6c-5.2,0-11,1.5-15.8,4.6c-7.6,4.6-16.4,14-18.6,25.9
					c-2.4,14.6,8.2,20.1,19.5,25.6c2.4,1.2,5.2,2.4,7.6,4c10,5.8,17.4,14,20.7,23.4c5.8,15.5,1.2,33.5-11.9,46.6l0,0l0,0
					c-4.9,4.6-9.7,8.2-15.2,10.7c-1.5,0.6-3,1.5-4.9,2.1C491.7,560,484.1,561.2,477.4,561.2z"/>
				<path d="M531.3,399.8c4.3,0,8.2,0.6,11.9,2.4c4.3,2.1,7.3,6.1,6.4,11.3c-0.9,4.3-5.2,7.6-9.4,7.9l0,0c-7,0-11.9-5.8-18.3-7.3
					c-1.5-0.3-3.3-0.6-4.9-0.6c-5.8,0-11.6,1.8-16.4,4.9c-7.9,4.9-17.1,14.6-19.2,26.8c-3.3,18.9,14,23.1,27.4,31.1
					c10.4,6.1,17.1,14,20.4,22.8c5.8,15.2,1.2,32.6-11.6,45.4l0,0c-4.6,4.3-9.1,7.6-14.9,10.4c-1.5,0.6-3,1.5-4.6,2.1
					c-5.8,2.1-13.4,3.7-20.1,3.7c-3,0-6.4-0.3-9.1-0.9c-8.8-2.1-16.1-7.9-21.6-14.9c-5.2-6.7-10-16.1-7.3-24.7
					c1.5-4.9,4.6-9.1,8.8-11.9c1.2-0.6,2.4-1.2,3.7-1.2c0.6,0,1.5,0.3,2.1,0.6c0.9,0.6,1.8,1.8,2.1,2.7c1.2,3.3,1.5,7,2.7,10.4
					c1.2,3.3,2.7,6.7,4.6,9.7c3.3,6.1,8.2,11.6,14,15.2c3.7,2.4,8.2,4,12.5,4c1.5,0,3-0.3,4.3-0.6c3.7-0.9,7-3.3,10-6.1
					c3.7-3.7,4.9-7,5.8-11.9c0.3-1.8,1.2-7.3,0.3-14.6c-0.6-4.6-2.1-9.1-4.3-12.8c-10.7-18-38.7-19.2-45.4-39.9
					c-5.2-16.7,7-31.1,18.9-40.8c11.9-9.4,25.3-18.3,40.2-21.3C523.4,400.5,527.3,399.8,531.3,399.8 M531.3,397.4L531.3,397.4
					c-3.7,0-7.3,0.3-11.9,1.2c-17.1,3.3-31.7,14-41.4,21.9c-17.4,14-24.4,29.2-19.8,43.5c4,12.2,14.6,18,24.7,23.8
					c8.5,4.6,16.4,9.1,21,16.7c2.1,3.3,3.3,7.6,4,12.2c0.9,6.7,0,11.9-0.3,13.7c-0.9,4.6-2.1,7.3-5.2,10.7c-3,2.7-6.1,4.6-8.8,5.5
					c-1.2,0.3-2.4,0.6-3.7,0.6c-3.7,0-7.6-1.2-11.3-3.7c-5.2-3.3-9.7-8.5-13.1-14.6c-1.5-2.7-3-6.1-4.3-9.4c-0.6-1.5-0.9-3-1.2-4.9
					c-0.3-1.8-0.9-3.7-1.5-5.5c-0.6-1.8-1.8-3.3-3.3-4.3c-0.9-0.6-2.1-0.9-3.3-0.9c-1.5,0-3.3,0.6-4.9,1.5c-4.9,3-8.5,7.9-10,13.4
					c-2.1,7.9,0.6,17.1,7.9,26.8c6.1,7.9,14.3,13.7,22.8,15.8c2.7,0.6,6.1,1.2,9.4,1.2c6.7,0,14.6-1.5,21-3.7
					c1.8-0.6,3.3-1.2,4.9-2.1c5.5-2.7,10.4-6.1,15.5-11l0,0l0,0l0,0h0.3l0,0c13.4-13.4,18.3-32,12.2-47.8c-3.7-9.7-11-18-21.3-24.1
					c-2.4-1.5-5.2-2.7-7.6-4c-11.3-5.8-21-10.7-18.6-24.4c2.1-11.6,10.7-20.4,18-25.3c4.6-2.7,10-4.6,15.2-4.6c1.5,0,3,0.3,4.6,0.6
					c2.4,0.6,4.9,1.8,7.3,3.3c3.3,2.1,7,4,11.6,4l0,0c5.5,0,10.7-4.6,11.9-9.7c1.2-5.5-1.8-11-7.6-13.7
					C540.4,398.3,536.2,397.4,531.3,397.4L531.3,397.4z"/>
			</g>
		</g>
		<g>
			<g>
				<path d="M674.7,561.6c-1.5,0-3,0-4.9-0.3c-7.3-0.6-12.5-7.6-13.1-17.4c-1.2,0.6-2.7,1.2-3.3,1.5c-0.6,0.3-1.2,0.6-1.5,0.6
					c-20.1,10.4-37.5,15.2-53,15.2c-3,0-6.1-0.3-9.1-0.6c-5.8-0.6-11-2.1-15.5-4.3c-16.7-7.6-23.4-22.2-25.9-33.2
					c-3-13.7-2.1-29.5,2.7-43.5c7-19.2,17.4-37.2,30.8-52.7c8.8-10,26.8-27.4,46.6-28.3c0.3,0,0.9,0,1.2,0c4.9,0,8.5,1.2,11.3,3.7
					c3.3,3,5.2,7.6,5.5,14.3c1.2,21.3-8.2,40.2-16.1,52.4c-13.4,20.1-32,36.5-53.9,46.9c-0.6,0.3-0.9,0.6-1.5,0.6
					c-1.2,0.6-2.1,0.9-3,0.9c2.4,5.5,5.8,10.4,9.7,14.6c9.1,9.1,21.3,14.3,35,14.3c6.1,0,12.5-1.2,18.6-3c1.2-0.3,3.7-1.5,6.4-2.7
					c1.5-0.6,3-1.5,4.6-2.1c5.8-2.7,10-7.9,11.9-14l0.3-1.5c0.6-1.8,0.9-3.7,1.2-5.2c0.3-1.2,0.6-2.7,0.9-4
					c2.4-13.1,8.2-43.2,21.9-113l0.6-3.3c0.6-3.3,1.2-6.7,1.8-10c8.5-43.9,17.4-89.5,36.8-129.7c4.6-9.1,9.4-18.6,18.6-23.8
					c3.7-2.1,6.1-3,7.9-3c4.6,0,5.2,5.2,5.5,10.4c1.8,23.8-3.3,50.6-7.3,68.5c-7.3,31.7-19.8,76.4-46,101.1c-0.3,2.1-0.6,4-1.2,6.1
					c-0.3,1.5-0.6,3-0.9,4.6c12.8-15.2,28.6-24.4,43.2-24.4c4.3,0,8.5,0.6,12.5,2.1c24.7,9.1,27.4,39.3,22.2,62.1
					c-5.5,24.1-19.5,47.5-40.8,68.5C714,551.2,694.2,561.6,674.7,561.6L674.7,561.6z M670.5,537.5c0,0.3,0.3,0.3,0.3,0.6
					c0.3,0.9,0.9,1.5,1.5,2.4c0.9,1.2,1.8,2.7,3.3,3.7c2.1,1.5,4.6,2.7,7,3.3c1.2,0.3,2.4,0.3,3.7,0.3c6.4,0,13.7-3,21.9-8.5
					c6.4-4.6,12.5-10.4,19.8-18.9c11.6-13.4,25.9-35.3,28.9-62.4c1.8-17.1-1.2-29.5-9.4-38.4c-2.7-3-8.2-8.8-14.9-8.8h-0.3
					c-19.5,0-34.7,45.1-41.4,64.3c-2.1,6.4-4,11.9-5.5,16.4l-1.5,7.9c-0.9,4.6-1.8,8.8-2.4,13.4c-0.3,1.8-0.6,3.7-0.9,5.2
					c-0.3,1.5-0.6,3.3-0.9,4.9c0,0.6-0.3,0.9-0.3,1.5c-0.6,2.7-0.9,5.8-3,8.2c-1.2,1.5-2.7,2.7-4,3.7
					C671.7,536.6,671.1,536.9,670.5,537.5C670.8,537.2,670.5,537.5,670.5,537.5z M622.3,412.9c-3,0-6.7,1.8-8.8,3.7
					c-18,13.1-33.5,33.2-40.8,52.1c-5.8,14.9-6.4,31.1-2.1,44.5c2.1-2.1,4.6-4,7-5.8c8.8-6.4,19.2-14.3,27.1-23.8
					c10-11.9,17.1-27.1,21.3-45.4c0-0.3,0.3-0.6,0.3-1.2c0.9-3.3,2.4-9.4,1.2-16.7c-0.6-3.3-0.9-5.5-2.1-6.4
					C624.2,413.2,623.3,412.9,622.3,412.9z M739.9,250.9c-0.6,1.5-1.2,2.7-1.5,4.3c-0.3,0.9-0.6,2.1-1.2,3
					c-6.1,16.1-10.7,32.9-14.9,48.4c-6.1,23.4-10.7,47.5-14.9,70c5.5-11,10.4-22.5,14.6-35.3l1.2-3.3
					C731.7,311.5,742.6,279.3,739.9,250.9z"/>
				<path d="M748.7,232.4c2.7,0,4,2.7,4.6,9.1c1.8,22.2-2.4,46.6-7.3,68.2c-7,31.7-19.8,76.7-46,100.5c-0.3,2.1-0.9,4.3-1.2,6.4
					c-0.6,3-1.2,6.1-1.8,9.1c11-14.6,27.7-27.7,45.4-27.7c4,0,8.2,0.6,12.2,2.1c24.4,9.1,26.5,38.7,21.3,60.6
					c-6.1,26.2-21.6,49.3-40.5,67.9c-15.2,14.9-36.5,31.7-60.6,31.7c-1.5,0-3,0-4.6-0.3c-7.6-0.6-11.9-8.8-12.2-18.3
					c-2.7,1.5-5.8,2.7-6.7,3c-16.1,8.2-34.4,14.9-52.7,14.9c-3,0-5.8-0.3-8.8-0.6c-5.2-0.6-10.4-2.1-15.2-4.3
					c-28-12.5-31.7-49-22.5-75.2c6.7-19.2,17.4-36.8,30.8-52.4c11.3-12.8,28-27.1,45.7-27.7c0.3,0,0.9,0,1.2,0c4,0,7.6,0.9,10.7,3.3
					c3.7,3.3,4.9,8.5,5.2,13.4c1.2,18.3-5.8,36.5-15.8,51.8c-13.1,20.1-32,36.2-53.6,46.6c-0.6,0.3-0.9,0.6-1.5,0.6
					c-0.9,0.3-2.1,0.9-3,0.9c-0.3,0-0.9,0-1.2-0.3c2.4,6.1,5.8,11.9,10.7,16.7c9.1,9.4,21.9,14.6,35.6,14.6c6.1,0,12.5-0.9,18.9-3.3
					c1.8-0.6,6.1-2.7,11-5.2c6.1-2.7,10.7-8.2,12.5-14.9c0.6-2.4,1.2-4.9,1.8-6.7c0.3-1.2,0.6-2.7,0.9-4
					c6.1-31.4,21.3-109.3,22.8-116.3c9.1-46.6,18-96.2,38.7-139.2c4.3-8.8,9.1-18,18-23.1C744.5,233.3,746.9,232.4,748.7,232.4
					 M704.6,384.3c7.3-13.4,13.1-27.4,18.3-42.6c9.4-27.7,22.5-64.6,17.7-95.3c-1.8,4-3,7.9-4.3,11c-6.1,15.8-10.7,32.3-14.9,48.7
					C714.3,331.9,709.4,358.1,704.6,384.3 M686,548.8c8.2,0,16.4-4.6,22.5-8.8c7.6-5.5,14-12.2,20.1-19.2
					c15.2-17.7,26.8-39.6,29.2-63c0.9-9.7,1.8-27.1-9.7-39.3c-3-3-8.5-9.1-15.8-9.1c0,0,0,0-0.3,0c-20.4,0-35.9,45.7-42.6,65.2
					c-2.1,6.4-4,11.9-5.5,16.7c-1.5,7-2.7,14.3-4.3,21.3c-0.6,3.3-1.5,6.7-2.1,10c-0.6,3.3-0.9,6.4-3,9.1c-1.5,1.8-3.7,3.3-5.5,4.9
					c-0.6,0.3-0.9,0.6-0.6,1.2c0,0.3,0.3,0.6,0.3,0.9c0.3,0.9,0.9,1.8,1.5,2.4c0.9,1.5,2.1,3,3.3,4c2.1,1.8,4.9,3,7.6,3.3
					C683.5,548.8,684.8,548.8,686,548.8 M570,515.6c2.1-3,5.2-5.2,7.9-7.3c9.7-7,19.5-14.6,27.4-24.1c11-13.1,17.7-29.2,21.6-46
					c0.6-2.7,3-9.7,1.5-18.6c-0.6-3.7-0.9-5.8-2.7-7c-0.9-0.6-2.1-0.9-3.3-0.9c-3.3,0-7.3,2.1-9.7,4c-18.6,13.7-34.1,33.8-41.1,52.4
					C565.7,483.3,564.5,500.6,570,515.6 M748.7,229.9v2.4V229.9c-2.1,0-4.6,0.9-8.5,3.3c-9.1,5.5-14.3,14.9-18.9,24.1
					c-19.5,40.2-28.3,85.9-36.8,130c-0.6,3.3-1.2,6.7-1.8,10l-0.6,3.3c-13.7,69.7-19.5,99.9-21.9,113c-0.3,1.2-0.6,2.7-0.9,4
					c-0.3,1.5-0.9,3.3-1.2,5.2c0,0.6-0.3,1.2-0.3,1.5c-1.5,5.8-5.8,10.7-11,13.1c-1.5,0.6-3,1.5-4.6,2.1c-2.7,1.2-5.2,2.4-6.4,2.7
					c-6.1,2.1-12.2,3-18,3c-13.1,0-25.3-4.9-34.1-14c-3.7-3.7-6.7-7.9-8.8-12.8c0.6-0.3,1.2-0.3,1.8-0.6c0.6-0.3,0.9-0.6,1.5-0.6
					c22.2-10.7,41.1-27.1,54.5-47.2c8.2-12.5,17.7-31.7,16.4-53.3c-0.3-7-2.4-12.2-5.8-15.2c-3-2.7-7-4-12.2-4c-0.6,0-0.9,0-1.5,0
					c-20.4,0.9-38.4,18.3-47.5,28.6c-13.7,15.8-24.1,33.5-31.1,53c-5.2,14.3-6.1,30.5-3,44.2c3.7,16.1,13.1,28,26.5,34.1
					c4.9,2.1,10,3.7,15.8,4.3c3,0.3,6.1,0.6,9.1,0.6c15.8,0,33.2-4.9,53.6-15.2c0.3,0,0.9-0.3,1.5-0.6c0.6-0.3,1.2-0.6,2.1-0.9
					c1.2,9.4,6.7,16.1,14,16.7c1.5,0,3.3,0.3,4.9,0.3c19.8,0,39.9-10.7,62.1-32.3c21.3-21,35.6-44.8,41.1-69.1
					c3-12.8,3-25.9,0.3-36.2c-3.3-13.4-11.6-22.8-23.1-27.1c-4.3-1.5-8.5-2.4-13.1-2.4c-14,0-28.9,7.9-41.4,21.3c0,0,0,0,0-0.3
					c0.3-1.8,0.6-3.7,0.9-5.8c26.5-24.7,39-69.7,46-101.4c8.5-37.8,8.2-57.3,7.3-68.8C755.1,237.2,754.5,229.9,748.7,229.9
					L748.7,229.9z M710,367.9c4-19.8,7.9-40.5,13.4-60.9c4-15.8,8.5-32.6,14.9-48.4c0.3-0.6,0.6-1.2,0.9-2.1
					c1.2,26.8-8.8,56.6-17.4,81.3l-1.2,3.3C717.4,350.5,714,359.3,710,367.9L710,367.9z M686.6,491.5c1.5-4.6,3.3-10,5.5-16.4
					c5.8-17.4,21.6-63.3,40.2-63.3l0,0c6.4,0,11.3,5.5,14,8.5c7.9,8.5,11,20.7,9.1,37.5c-2.7,26.8-17.1,48.4-28.6,61.8
					c-7.3,8.5-13.4,14.3-19.8,18.6c-7.9,5.5-15.2,8.5-21.3,8.5c-1.2,0-2.4,0-3.3-0.3c-2.1-0.3-4.6-1.5-6.7-3c-1.2-0.9-2.1-2.4-3-3.3
					c-0.3-0.6-0.9-1.2-1.2-1.8c0.3-0.3,0.6-0.6,0.9-0.6c1.5-1.2,3-2.4,4.3-4c2.1-2.7,2.7-5.8,3-8.8c0-0.6,0.3-0.9,0.3-1.5
					c0.3-1.5,0.6-3.3,0.9-4.9c0.3-1.8,0.6-3.7,0.9-5.2c0.9-4.6,1.8-8.8,2.4-13.4C685.7,497,686,494.3,686.6,491.5L686.6,491.5z
					 M570.9,510.7c-3.7-12.8-2.7-27.7,2.7-41.7c7-18.6,22.5-38.4,40.5-51.5c2.4-1.8,5.8-3.3,8.2-3.3c0.9,0,1.5,0.3,2.1,0.6
					c0.9,0.6,1.2,2.7,1.8,5.5c1.2,7-0.3,13.1-1.2,16.1c0,0.6-0.3,0.9-0.3,1.2c-4.3,18.3-11.3,33.2-21,45.1
					c-7.9,9.4-18,17.1-27.1,23.4C574.5,507.7,572.7,509.2,570.9,510.7L570.9,510.7z"/>
			</g>
		</g>
		<g>
			<path d="M1110.5,782.9c-6.4,0-12.8-1.2-18.6-3.3c-19.5-7.6-34.1-28.9-36.5-53c-2.1-20.1,3.7-42.3,16.1-64.3
				c11.9-20.7,25.9-34.4,42-40.8c6.1-2.4,12.8-3.7,19.2-3.7c14.6,0,27.4,5.8,35,16.1s9.7,24.7,5.8,38.1
				c-3.7,11.9-12.5,22.8-24.1,30.1c-9.7,6.1-21.3,9.1-32.9,9.1c-7.6,0-14.9-1.2-21.9-4c-1.5-0.6-3-1.2-4-2.7c-0.9-1.2-0.9-3-0.3-4.6
				c0.9-2.1,2.7-4,4.9-4.6c0.9-0.3,1.5-0.3,2.4-0.3c2.4,0,4.9,0.9,7.3,1.8l0,0c8.5,3,15.2,4.6,21.3,4.6c4,0,7.6-0.6,11-1.8
				c8.5-3.3,15.5-11.3,18.3-21c2.4-9.1,1.5-19.2-2.7-28.6c-4.6-10.4-14.6-20.4-26.8-20.4c-0.3,0-0.9,0-1.2,0
				c-7.3,0.3-14.9,4.6-23.1,13.1c-15.5,15.5-26.2,35-29.2,54.5c-3.7,21.6,1.8,43.5,14.3,59.1c8.8,10.7,20.1,17.1,31.4,17.1
				c0.3,0,0.6,0,0.9,0c10.4-0.3,21.3-6.4,29.2-16.4c7.3-9.1,11.9-20.7,16.1-31.7c21.3-57.3,35.9-116.3,49.6-176.9
				c-11.6,8.5-26.8,14-39.6,14c-5.8,0-11-0.9-15.5-3c-8.5-3.7-14.9-11.3-18.9-21.3c-5.8,6.7-13.1,12.5-20.4,16.7
				c-5.8,3-11,4.6-15.5,4.6c-10.7,0-18.3-8.5-21.6-25c-3-14.9,0.3-26.5,3.7-39c1.5-5.2,3-10.4,4.3-16.1c1.5-8.2,0.9-18.9-6.4-24.1
				c-3-2.1-6.4-2.1-10.4-2.1c-4.3,0-8.8,0-12.5-3.3c-4,9.7-7.6,19.8-11.6,29.5c-4.6,11.6-9.1,23.8-13.7,35.3
				c-2.4,6.4-7.6,16.1-11.6,21.3c-5.8,7.9-12.2,14.3-18.9,18.3c-6.1,4-13.4,6.1-20.1,6.1c-3,0-6.1-0.6-8.5-1.5
				c-7.6-2.7-12.8-10.7-15.5-23.8c-3-14.9,0.3-26.5,3.7-39c1.5-5.2,3-10.4,4.3-16.1c1.5-8.2,0.9-18.9-6.4-24.1
				c-3-2.1-6.4-2.1-10.4-2.1c-4.3,0-8.8,0-12.5-3.3c-4,9.7-7.6,19.8-11.6,29.5c-4.6,11.9-9.4,24.4-14.3,36.5
				c-4.9,12.5-12.5,23.8-21.3,32c-6.1,5.8-12.5,9.1-20.1,11c-7.6,1.8-15.5,2.1-22.8,2.4c-2.7,0-5.8,0-8.8,0c-7,0-12.8-0.3-18-1.2
				c-10-1.8-18.6-5.5-25-10.7c-7.6-6.4-13.1-16.4-15.5-28c-4-18.9,0.3-39.9,12.5-62.7c9.4-17.7,21-32.6,34.7-44.2
				c10.7-8.8,20.4-14,30.1-15.5c1.5-0.3,3-0.3,4.6-0.3c4.9,0,8.8,1.2,11.6,4c3.7,3.3,5.5,8.2,5.8,15.8c0.6,14.6-4,30.1-13.4,46
				c-12.5,21-31.4,39-53,49.9c-2.7,1.5-5.8,2.7-9.1,3.7c8.8,18,28.9,30.8,48.1,30.8c1.2,0,2.1,0,3.3,0c5.2-0.3,10.7-2.1,15.8-4.9
				c21.6-11.3,30.1-33.8,38.4-55.7l0.3-0.9c2.7-7.6,5.8-15.5,8.2-23.1c3.3-9.1,6.7-18.9,10.4-28.3c1.2-3.3,2.4-7.3,3.7-11.6
				c3.3-11.3,7.3-23.8,14-30.1c3-2.7,5.8-4.3,7.9-4.3c1.5,0,2.7,0.6,3.7,1.8c1.8,2.4,1.8,6.7,0.6,11.9c-0.9,3-2.1,6.1-3.7,9.1
				c-3.3,7.9-7,16.4-2.4,23.8c3,4.9,7.6,4.9,13.4,4.9c4.9,0,10,0,14.3,3.7c11.6,9.4,8.2,25.6,4.6,36.8c-2.4,7-5.2,16.1-6.1,24.7
				c-1.2,10.7,0,21.9,3,30.5c1.5,4,3.7,6.4,5.8,7.3c0.3,0,0.6,0.3,0.9,0.3c0.3,0,0.9,0,1.5,0c2.7,0,5.5-1.5,7-2.4
				c6.7-4.3,11.3-11.3,15.8-18.9c4.9-7.9,9.1-16.1,12.8-24.7c4.9-11.6,9.1-23.8,13.1-35.3c3.3-9.1,6.7-18.9,10.4-28.3
				c1.2-3.3,2.4-7.3,3.7-11.6c3.3-11.3,7.3-23.8,14-30.1c3-2.7,5.8-4.3,7.9-4.3c1.5,0,2.7,0.6,3.7,1.8c1.8,2.4,1.8,6.7,0.6,11.9
				c-0.9,3-2.1,6.1-3.7,9.1c-3.3,7.9-7,16.4-2.4,23.8c3,4.9,7.6,4.9,13.4,4.9c4.9,0,10,0,14.3,3.7c11.6,9.4,8.2,25.6,4.6,36.8
				c-3.7,11.6-7.6,23.8-5.5,37.8c1.2,8.5,3.3,15.2,6.4,20.4c2.4,4,3.7,5.8,4.9,5.8c0.9,0,2.4-0.9,4.6-2.7c2.7-2.4,5.2-5.5,7-8.2
				c1.2-1.5,2.4-3,3.7-4.6c1.2-1.2,2.1-2.7,3.3-4.3c3-4,4-9.4,4.9-14c0.9-5.5,1.8-11,3.3-16.4c2.1-7,4.9-14,7.6-21l24.4-61.2
				c1.5-3.7,3-7.9,6.1-11c2.4-2.7,5.8-4.3,8.8-4.3c1.2,0,2.1,0.3,3,0.6l0.9,0.3l-0.3,1.2c-4,14-9.7,27.7-14.9,40.8
				c-7.6,18.6-15.2,37.5-18.9,57.3c-3.3,18-1.5,30.8,5.8,39.9c6.1,7.9,14.9,12.5,23.4,12.5c2.4,0,4.9-0.3,7-1.2
				c13.4-4.9,19.2-20.4,23.1-36.8l23.1-94.7c1.5-5.8,3-11.9,7-16.7c3-3.7,7.6-5.8,11.9-5.8c2.1,0,4,0.6,5.5,1.5l0.6,0.3l-0.3,0.9
				c-18.6,95.9-37.8,194.9-67,289.6c-7.6,25-16.7,51.2-34.7,70.7C1148.9,773.5,1129.1,782.9,1110.5,782.9L1110.5,782.9z
				 M857.7,412.9c-3,0-6.7,1.8-8.8,3.7c-18,13.1-33.5,33.2-40.8,52.1c-5.8,14.9-6.4,31.1-2.1,44.5c2.1-2.1,4.6-4,7-5.8
				c8.8-6.4,19.2-14.3,27.1-23.8c10-11.9,17.1-27.1,21.3-45.4c0-0.3,0.3-0.6,0.3-1.2c0.9-3.3,2.4-9.4,1.2-16.7
				c-0.6-3.3-0.9-5.5-2.1-6.4C859.6,413.2,858.7,412.9,857.7,412.9z"/>
			<path d="M1077.9,390.4c4,0,5.2,5.2,3,12.2c-2.7,10.4-12.8,22.8-5.8,34.1c6.1,10,19.2,1.5,28,8.5c11,8.8,7.9,24.1,4.3,35.6
				c-4.3,12.8-7.6,24.4-5.5,38.4c1.2,7,3,14.6,6.4,20.7c2.4,4.3,4,6.4,5.8,6.4c1.2,0,3-0.9,5.2-3c2.7-2.4,5.2-5.5,7.3-8.5
				s4.6-5.8,6.7-8.8c3-4.3,4.3-9.4,4.9-14.6c0.9-5.5,1.8-11,3.3-16.4c2.1-7,4.9-14,7.6-21c8.2-20.4,16.1-40.8,24.4-61.2
				c1.5-3.7,3-7.6,5.8-10.7c2.1-2.1,5.2-3.7,8.2-3.7c0.9,0,1.8,0.3,2.7,0.6c-9.7,33.5-27.7,64.3-33.8,98.4
				c-2.4,13.7-3,29.2,6.1,40.8c5.8,7.3,14.9,13.1,24.4,13.1c2.4,0,4.9-0.3,7.3-1.2c14.6-5.2,20.1-22.5,23.8-37.8
				c7.6-31.7,15.5-63,23.1-94.7c1.5-5.8,3-11.9,6.7-16.4c2.7-3.3,7-5.5,11-5.5c1.8,0,3.3,0.3,4.9,1.2
				c-18.9,97.4-37.8,194.9-67,289.6c-7.9,25.3-16.7,50.9-34.4,70.3c-13.4,14.6-32.6,25-51.8,25c-6.1,0-12.2-0.9-18.3-3.3
				c-20.4-7.9-33.5-29.8-35.9-51.8c-2.4-22.2,4.9-44.5,15.8-63.6c9.7-17.1,23.4-32.9,41.4-40.2c6.1-2.4,12.5-3.7,18.9-3.7
				c13.1,0,26.2,5.2,34.1,15.8c7.6,10.4,9.4,24.7,5.8,36.8c-3.7,12.5-12.5,22.8-23.4,29.5c-9.7,6.1-21,9.1-32.3,9.1
				c-7.3,0-14.6-1.2-21.6-4c-1.2-0.6-2.7-1.2-3.7-2.4c-1.8-2.7,0.6-6.4,3.7-7.3c0.6-0.3,1.5-0.3,2.1-0.3c2.4,0,4.9,0.9,7,1.5
				c7,2.4,14.6,4.6,21.9,4.6c4,0,7.9-0.6,11.6-2.1c9.4-3.7,16.4-12.2,19.2-21.9s1.5-20.4-2.7-29.5c-5.2-11.3-15.8-21.3-28-21.3
				c-0.3,0-0.9,0-1.2,0c-9.4,0.6-17.4,6.7-24.1,13.4c-14.9,14.9-26.2,34.1-29.5,55.1c-3.7,21,1.2,43.5,14.6,60
				c7.9,9.7,19.5,17.4,32.3,17.4c0.3,0,0.6,0,0.9,0c11.9-0.3,22.8-7.6,30.1-17.1c7.6-9.4,12.2-20.7,16.4-32
				c21.9-58.5,36.5-119.4,50.6-180.3c-10.7,8.5-26.5,15.8-41.4,15.8c-5.2,0-10.4-0.9-15.2-3c-9.1-4.3-15.5-12.8-18.9-22.8
				c-5.8,7.3-13.4,13.7-21.6,18c-5.8,3-10.7,4.6-14.9,4.6c-10.7,0-17.4-8.8-20.4-24.1c-4.3-21,4-35,7.9-54.5
				c1.5-8.5,0.9-19.8-7-25.3c-7.3-5.2-17.7,1.2-23.8-6.7c-8.8,22.2-17.1,44.5-25.9,66.7c-2.4,6.1-7.6,15.5-11.3,21
				c-5.2,7-11,13.4-18.6,18c-5.5,3.3-12.5,5.8-19.2,5.8c-2.7,0-5.5-0.3-8.2-1.5c-9.1-3.3-12.8-14-14.6-22.8c-4.3-21,4-35,7.9-54.5
				c1.5-8.5,0.9-19.8-7-25.3c-7.3-5.2-17.7,1.2-23.8-6.7c-8.8,22.5-17.4,45.4-26.5,67.9c-4.6,11.9-11.9,22.8-21,31.7
				c-5.8,5.5-11.9,8.8-19.8,10.7c-7.3,1.8-14.9,2.1-22.5,2.4c-3,0-5.8,0-8.8,0c-6.1,0-11.9-0.3-17.7-1.2
				c-8.8-1.5-17.4-4.6-24.4-10.7c-7.9-7-13.1-17.1-14.9-27.4c-4.3-21,2.4-42.9,12.2-62.1c8.8-16.4,20.1-31.7,34.4-43.9
				c8.5-7.3,18.6-13.4,29.5-15.2c1.5-0.3,2.7-0.3,4.3-0.3c4,0,7.9,0.9,10.7,3.7c4,3.7,5.2,9.4,5.5,14.9c0.6,16.1-5.2,31.7-13.1,45.4
				c-12.5,21-30.8,38.4-52.4,49.3c-3.3,1.5-6.7,3.3-10.4,3.7c8.5,18.9,29.2,32.9,49.6,32.9c1.2,0,2.1,0,3.3,0
				c5.8-0.3,11.3-2.1,16.1-4.9c22.2-11.9,30.8-35,39.3-57.3c6.4-17.1,11.9-34.4,18.6-51.2c4.6-11.6,8.5-32.6,17.7-41.1
				c3-2.7,5.5-4,7.3-4c4,0,5.2,5.2,3,12.2c-2.7,10.4-12.8,22.8-5.8,34.1c6.1,10,19.2,1.5,28,8.5c11,8.8,7.9,24.1,4.3,35.6
				c-2.7,8.2-5.2,16.4-6.4,25c-1.2,9.7-0.3,21.6,3,31.1c1.2,3.3,3.3,6.7,6.7,7.9c0.3,0,0.9,0.3,1.2,0.3c0.6,0,1.2,0.3,1.5,0.3
				c2.7,0,5.5-1.2,7.6-2.7c7-4.6,11.9-12.2,16.1-19.2c4.9-7.9,9.1-16.1,12.8-25c8.8-21,15.2-42.6,23.4-63.6
				c4.6-11.6,8.5-32.6,17.7-41.1C1073.7,391.6,1076.1,390.4,1077.9,390.4 M805.4,515.6c2.1-3,5.2-5.2,7.9-7.3
				c9.7-7,19.5-14.6,27.4-24.1c11-13.1,17.7-29.2,21.6-46c0.6-2.7,3-9.7,1.5-18.6c-0.6-3.7-0.9-5.8-2.7-7c-0.9-0.6-2.1-0.9-3.3-0.9
				c-3.3,0-7.3,2.1-9.7,4c-18.6,13.7-34.1,33.8-41.1,52.4C801.1,483.3,799.6,500.6,805.4,515.6 M1077.9,388L1077.9,388
				c-2.4,0-5.5,1.5-8.8,4.6c-7,6.4-11,19.2-14.3,30.8c-1.2,4.3-2.4,8.2-3.7,11.3c-3.7,9.4-7,18.9-10.4,28.3
				c-4.3,11.6-8.5,23.8-13.1,35.3c-3.7,8.5-7.6,16.7-12.5,24.7c-4.6,7.6-9.1,14.3-15.5,18.6c-1.5,0.9-4,2.4-6.4,2.4
				c-0.3,0-0.9,0-1.2,0s-0.6,0-0.9-0.3c-2.1-0.9-4-3-5.2-6.7c-3-8.2-4.3-19.5-3-29.8c1.2-8.8,4-17.4,6.1-24.7
				c3.7-11.6,7.3-28.3-4.9-38.1c-4.6-3.7-10-3.7-15.2-3.7c-6.1,0-9.7-0.3-12.2-4.3c-4.3-7-0.9-14.6,2.4-22.8
				c1.5-3.3,2.7-6.4,3.7-9.4c1.5-5.5,1.2-10.4-0.9-12.8c-1.2-1.5-2.7-2.4-4.6-2.4c-2.4,0-5.5,1.5-8.8,4.6c-7,6.4-11,19.2-14.3,30.8
				c-1.2,4.3-2.4,8.2-3.7,11.3c-3.7,9.4-7,18.9-10.4,28.3c-2.7,7.6-5.5,15.5-8.2,23.1l-0.3,0.9c-8.2,21.6-16.7,43.9-37.8,55.1
				c-5.2,2.7-10.4,4.3-15.2,4.6c-0.9,0-2.1,0-3.3,0c-18.3,0-37.2-11.9-46.3-28.6c2.7-0.9,5.5-2.1,7.9-3.3
				c21.9-11.3,40.8-28.9,53.3-50.2c9.4-16.1,14-32,13.4-46.9c-0.3-7.6-2.4-13.1-6.1-16.4c-3-2.7-7.3-4.3-12.5-4.3
				c-1.5,0-3,0-4.6,0.3c-10,1.5-20.1,6.7-30.8,15.8c-13.7,11.6-25.6,26.8-35,44.5c-12.2,23.1-16.4,44.5-12.5,63.6
				c2.4,11.9,7.9,21.9,15.8,28.6c6.4,5.5,15.2,9.4,25.3,11c5.2,0.9,11,1.2,18.3,1.2c3,0,6.1,0,8.8,0c7.3-0.3,15.2-0.6,22.8-2.4
				c7.9-1.8,14.3-5.5,20.7-11.3c9.1-8.5,16.7-19.8,21.6-32.3c4.9-12.2,9.7-24.7,14.3-36.5c3.7-9.1,7.3-18.6,11-28
				c3.7,2.7,8.2,2.7,12.2,2.7c3.7,0,7,0,9.7,1.8c6.7,4.6,7.6,14.9,6.1,22.8c-1.2,5.8-2.7,11-4,16.1c-3.7,12.5-7,24.1-3.7,39.6
				c2.7,13.4,8.2,21.6,16.1,24.7c2.7,0.9,5.8,1.5,9.1,1.5c6.7,0,14.3-2.1,20.7-6.1c6.7-4.3,13.4-10.7,19.2-18.6
				c4-5.5,9.1-14.9,11.6-21.6c4.6-11.9,9.1-23.8,13.7-35.3c3.7-9.1,7.3-18.6,11-28c3.7,2.7,8.2,2.7,12.2,2.7c3.7,0,7,0,9.7,1.8
				c6.7,4.6,7.6,14.9,6.1,22.8c-1.2,5.8-2.7,11-4,16.1c-3.7,12.5-7,24.1-3.7,39.6c2.4,11.9,8.5,25.9,22.8,25.9
				c4.9,0,10-1.5,15.8-4.9c7-4,14-9.1,19.5-15.5c4,9.4,10.7,16.7,18.6,20.4c4.9,2.1,10,3.3,16.1,3.3c12.2,0,26.2-4.9,37.8-12.5
				c-13.7,59.4-28,117.5-49,173.6c-4,11-8.5,22.2-15.8,31.4c-7.9,10-18.3,15.8-28.3,16.1c-0.3,0-0.6,0-0.9,0
				c-10.7,0-21.9-6.1-30.5-16.4c-12.2-15.2-17.7-36.8-14-58.2c3.3-19.2,13.4-38.4,28.9-53.9c8.2-8.2,15.2-12.2,22.5-12.8
				c0.3,0,0.9,0,1.2,0c8.5,0,19.5,6.1,25.9,19.8c4.3,9.1,5.2,19.2,2.4,28c-2.7,9.4-9.4,17.1-17.7,20.1c-3.3,1.2-6.7,1.8-10.7,1.8
				c-6.1,0-12.5-1.5-21-4.3l0,0c-2.4-0.9-4.9-1.8-7.6-1.8c-0.9,0-1.8,0-2.7,0.3c-2.4,0.6-4.6,2.7-5.5,5.2c-0.6,2.1-0.6,4.3,0.6,5.8
				c1.2,1.8,3,2.4,4.6,3.3c7,2.7,14.6,4,22.2,4c11.9,0,23.8-3.3,33.5-9.4c11.9-7.3,20.7-18.6,24.4-30.8c4-13.4,1.8-28.3-6.1-39
				c-7.9-10.7-21-16.7-35.9-16.7c-6.7,0-13.7,1.2-19.8,3.7c-16.4,6.4-30.8,20.4-42.6,41.4c-12.8,22.2-18.3,44.8-16.1,65.2
				c1.2,11.6,5.2,22.8,11.6,32.3c6.7,10,15.5,17.7,25.9,21.6c6.1,2.4,12.5,3.7,19.2,3.7c9.4,0,19.5-2.4,29.2-7.3
				c9.1-4.6,17.7-11,24.4-18.6c18-19.8,27.1-46,34.7-71.3c29.5-94.7,48.7-194,67.3-289.9l0.3-1.8l-1.5-0.9c-1.8-0.9-4-1.5-6.1-1.5
				c-4.6,0-9.4,2.4-12.8,6.4c-4.3,5.2-5.8,11.6-7.3,17.4l-23.1,94.7c-4,15.8-9.4,31.4-22.2,35.9c-2.1,0.6-4.3,1.2-6.7,1.2
				c-7.9,0-16.4-4.6-22.2-12.2c-7-8.8-8.8-21.3-5.5-39c3.7-19.8,11.3-38.7,18.9-57.3c5.5-13.4,11-27.1,14.9-41.1l0.6-2.1l-2.1-0.9
				c-1.2-0.3-2.4-0.6-3.7-0.6c-3.3,0-7,1.8-9.7,4.6c-3,3.3-4.9,7.6-6.4,11.3l-24.4,61.2c-2.7,7-5.5,14-7.6,21.3
				c-1.5,5.5-2.4,11-3.3,16.7c-0.6,4.6-1.8,9.7-4.6,13.7c-0.9,1.5-2.1,2.7-3.3,4.3c-1.2,1.5-2.4,3-3.7,4.6c-2.1,2.7-4.3,5.8-7,7.9
				c-2.4,2.1-3.3,2.4-3.7,2.4c-0.9,0-2.7-3.7-4-5.2c-2.7-4.9-4.9-11.6-6.1-19.8c-2.1-13.7,1.5-25,5.5-37.2
				c3.7-11.6,7.3-28.3-4.9-38.1c-4.6-3.7-10-3.7-15.2-3.7c-6.1,0-9.7-0.3-12.2-4.3c-4.3-7-0.9-14.6,2.4-22.8
				c1.5-3.3,2.7-6.4,3.7-9.4c1.5-5.5,1.2-10.4-0.9-12.8C1081.6,388.9,1079.7,388,1077.9,388L1077.9,388L1077.9,388z M806.3,510.7
				c-3.7-12.8-2.7-27.7,2.7-41.7c7-18.6,22.5-38.4,40.5-51.5c2.4-1.8,5.8-3.3,8.2-3.3c0.9,0,1.5,0.3,2.1,0.6
				c0.9,0.6,1.2,2.7,1.8,5.5c1.2,7-0.3,13.1-1.2,16.1c0,0.6-0.3,0.9-0.3,1.2c-4.3,18.3-11.3,33.2-21,45.1
				c-7.9,9.4-18,17.1-27.1,23.4C809.9,507.7,808.1,509.2,806.3,510.7L806.3,510.7z"/>
		</g>
		<g>
			<path d="M157.9,557.9c-13.4-5.5-20.4-14.9-20.4-27.7c0-4,0.3-8.2,1.2-12.2c-20.1,26.5-42.6,40.2-67,40.2h-0.3
				c-20.1,0-37.2-8.5-50.2-25.3S1.4,493,1.4,464.1c0-31.4,7.9-64,23.1-96.8s35.3-60.3,59.1-81.6c24.1-21.3,47.5-32.3,70.3-32.3
				c13.4,0,23.8,4.3,30.1,12.5c6.4,8.2,9.7,18.9,9.7,31.4c0,13.7-3.3,26.5-10,38.1c-6.7,11.9-14.9,18-24.1,18c-5.5,0-9.4-3-12.5-9.4
				l-0.3-0.9l0.9-0.6c5.8-4.3,12.2-12.2,18.6-24.4c6.7-11.9,9.7-22.8,9.7-32c0-12.5-6.7-18.6-20.4-18.6h-0.3
				c-16.4,0-34.7,11.3-53.9,33.2c-19.2,22.2-35.6,49.9-48.7,82.2c-12.8,32-19.2,61.8-19.2,88.6c0,21.9,4.6,39.6,13.7,52.4
				c8.8,12.8,20.4,19.2,34.4,19.2c17.7,0,33.5-12.2,47.8-36.2c14-24.1,22.2-49.3,24.4-75.5c-13.7-3-25.9-4.6-36.2-4.6
				c-1.8,0-5.2,0-10.4,0.3c-4.9,0-8.8,0.3-12.2,0.3h-1.5l0.3-1.5c3-13.4,11.9-20.1,26.2-20.1c8.2,0,20.4,2.7,36.8,8.5
				c19.8,7,25,8.5,25.9,8.8l1.2,0.3l-3,13.4l0,0c-15.2,39.6-22.8,70-22.8,91.1c0,3.7,0.3,8.8,0.6,15.5c0.6,6.7,0.6,11.3,0.6,13.7
				v1.8L157.9,557.9z"/>
			<path d="M154,254.3c13.1,0,22.8,4,29.2,12.2c6.4,8.2,9.4,18.3,9.4,30.8c0,13.4-3.3,25.9-9.7,37.5c-6.7,11.6-14.3,17.4-22.8,17.4
				c-4.9,0-8.5-2.7-11.3-8.5c6.1-4.3,12.2-12.5,18.9-24.7c6.7-12.2,10-23.1,10-32.6c0-13.4-7.3-19.8-21.6-19.8h-0.6
				c-17.1,0-35.3,11.3-54.8,33.8c-19.5,22.5-35.9,49.9-48.7,82.5c-13.1,32.6-19.5,62.1-19.5,89.2c0,22.2,4.6,39.9,13.7,53
				c9.1,13.1,21,19.8,35.6,19.8c18,0,34.4-12.2,48.7-36.8c14.3-24.7,22.5-50.2,24.7-77c-14-3.3-26.8-4.9-37.8-4.9
				c-1.8,0-5.5,0-10.4,0.3c-4.9,0-8.8,0.3-12.2,0.3c3-12.8,11.3-19.2,25-19.2c8.2,0,20.1,2.7,36.2,8.5c16.1,5.8,24.7,8.5,25.9,8.8
				l-2.7,11.9c-15.2,39.9-22.8,70.3-22.8,91.7c0,3.7,0.3,8.8,0.6,15.5c0.6,6.7,0.6,11.3,0.6,13.7c-13.1-5.2-19.5-14-19.5-26.8
				c0-5.8,0.9-11.6,2.4-17.7c-21,29.5-44.2,44.2-69.4,44.2h-0.3c-19.8,0-36.5-8.2-49.3-25C8.4,515.6,2,493,2,464.1
				c0-31.4,7.6-63.3,23.1-96.2c15.2-32.9,35-60,58.8-81.3C108.3,264.9,131.4,254.3,154,254.3 M154,251.8c-23.1,0-46.9,11-71.3,32.6
				c-24.1,21.3-43.9,49-59.4,81.9C7.8,399.5,0.2,432.1,0.2,463.8c0,29.2,6.7,52.7,20.1,69.7c13.4,17.1,30.8,25.9,51.5,25.9h0.3
				c13.1,0,25.6-4,37.8-11.6c9.4-6.1,18.6-14.6,27.4-25.6c-0.3,2.7-0.6,5.2-0.6,7.9c0,13.4,7,23.1,21,28.9l3.3,1.2v-3.7
				c0-2.4-0.3-7-0.6-14c-0.6-6.4-0.6-11.6-0.6-15.5c0-21,7.6-51.5,22.8-90.7v-0.3v-0.3l2.7-11.9l0.6-2.4l-2.4-0.6
				c-0.6,0-4.9-1.5-25.6-8.8c-16.4-5.8-28.6-8.5-37.2-8.5c-14.9,0-24.1,7-27.4,21l-0.6,3h3c3.3,0,7.3,0,12.2-0.3
				c4.9,0,8.2-0.3,10.4-0.3c10,0,21.9,1.5,35,4.3c-2.1,25.6-10.4,50.2-24.1,73.7c-7,11.9-14.6,21-22.5,26.8
				c-7.6,5.8-15.8,8.8-24.4,8.8c-13.7,0-24.7-6.1-33.5-18.6c-8.8-12.8-13.4-30.1-13.4-51.8c0-26.5,6.4-56.3,19.5-88.3
				c12.8-32,29.2-59.7,48.4-81.6c18.9-21.9,36.8-32.9,53-32.9h0.3c13.1,0,19.5,5.5,19.5,17.4c0,9.1-3.3,19.8-9.7,31.4
				c-6.4,11.9-12.5,20.1-18.3,24.1l-1.5,1.2l0.9,1.8c3,6.7,7.6,10,13.4,10c9.4,0,18-6.1,25-18.6c6.7-11.9,10.4-25,10.4-38.7
				c0-12.8-3.3-23.8-10-32.3C178.3,256.1,168,251.8,154,251.8L154,251.8z"/>
		</g>
	</g>
</g>
</svg>
