<?xml version="1.0" encoding="utf-8"?>
<!-- Generator: Adobe Illustrator 18.1.1, SVG Export Plug-In . SVG Version: 6.00 Build 0)  -->
<!DOCTYPE svg PUBLIC "-//W3C//DTD SVG 1.1//EN" "http://www.w3.org/Graphics/SVG/1.1/DTD/svg11.dtd">
<svg version="1.1" id="Layer_1" xmlns="http://www.w3.org/2000/svg" xmlns:xlink="http://www.w3.org/1999/xlink" x="0px" y="0px"
	 viewBox="0 0 420.2 262.7" enable-background="new 0 0 420.2 262.7" xml:space="preserve">
<symbol  id="Berry" viewBox="-88.5 -70.9 177 142.8">
	<path fill="#839E3D" d="M81.3-48.8c-0.5-0.6-1.5,0-1.2,0.7c1.3,2.6,2.3,5.2,3,7.9c1.2,4.7,1.1,9.9-1.2,14.2
		c-2.4,4.4-7,7.2-10.2,11.1c-0.1,0.1-0.1,0.2-0.2,0.3c-0.5,2.8-1.2,5.5-1.9,8.2c-0.1,0.6,0.5,1,1,0.8c2.4-1.2,7.3-3,8.1-3.5
		c3-2,5.6-4.6,7.2-7.8c4.5-8.7,2.4-21.2-2.7-29.2C82.7-47,82-48,81.3-48.8z"/>
	<path opacity="0.19" d="M83.2-40.2c1.2,4.7,1.1,9.9-1.2,14.1c-2.4,4.4-7,7.2-10.2,11.1c0,0,0,0.1-0.1,0.1
		c4.3-1.3,9.4-5.1,11.9-10.1c3.4-6.9,1.4-14.7-2-19.9C82.2-43.3,82.8-41.8,83.2-40.2z"/>
	<g>
		<path fill="#A9BE21" d="M77.1,0.5C60.6,13.1,43.3,23.3,26.8,28.2c-43.4,13.1-81.2,3.6-82.2,3.4c0,0,0,0,0,0v0
			c0-0.2-0.1-0.4-0.1-0.6c-1.1-9.4,20.3-48.4,57-67.5c16.6-8.6,35.1-16.1,56.3-12c5.6,5.3,10.1,11.5,13.5,18.5
			c1.1,2.4,2.1,4.8,2.9,7.3c2,6.3,3.2,13.2,3.2,20.5C77.2-1.3,77.1-0.4,77.1,0.5z"/>
		<path fill="#C4CD58" d="M43.7,59.3C62.9,46.1,76.1,24,77.1,0.5C60.6,13.1,43.3,23.3,26.8,28.2c-43.4,13.1-81.2,3.6-82.2,3.4
			C-54.5,32.8-16.9,77.3,43.7,59.3z"/>
		<path fill="#C4CD58" d="M-56.5,31c-0.1-0.4-2-5.6-2-5.6c-8.7-17.6-9.2-36.9-6.9-56.1c-0.3,0.5-0.5,0.9-0.8,1.4c0,0,0,0,0,0
			c-15.5,30-1.6,66.1,23.9,85.8C-23,71.4,3.2,76,26.4,68c6.1-2.1,12-5.1,17.3-8.7c-60.6,17.9-98.2-26.5-99.1-27.7c0,0,0,0,0,0v0
			c0-0.2-0.1-0.4-0.1-0.6L-56.5,31z"/>
		<path fill="#A0B534" d="M1.4-36.5c-36.7,19-58,58.1-57,67.5l-0.9,0c-0.1-0.4-2-5.7-2-5.7c-8.7-17.6-9.2-36.9-6.9-56.1
			c13.6-24.6,43.6-37.1,70.8-37.1c4.7,0,9.4,0.4,13.9,1.1c15,2.4,28.3,8.8,38.4,18.3C36.5-52.6,18-45.1,1.4-36.5z"/>
	</g>
	<path fill="#A0B534" d="M-44.7,33.6c1.3,0.2,2.7,0.4,4.2,0.5C-41.9,33.9-43.3,33.7-44.7,33.6z"/>
	<g id="Lines_mask_1_">
		<defs>
			<path id="SVGID_1_" d="M77.1,0.5c-1,23.4-14.2,45.6-33.4,58.8C38.3,63,32.5,65.9,26.4,68C3.2,76-23,71.4-42.3,56.4
				C-67.8,36.8-81.7,0.7-66.2-29.3c0,0,0,0,0,0c0.2-0.5,0.5-0.9,0.7-1.4v0c13.6-24.6,43.6-37.1,70.8-37.1c4.7,0,9.4,0.4,13.9,1.1
				c15,2.4,28.3,8.8,38.4,18.3c5.6,5.3,10.1,11.5,13.5,18.5c1.1,2.4,2.1,4.8,2.9,7.3c2,6.3,3.2,13.2,3.2,20.5
				C77.2-1.3,77.1-0.4,77.1,0.5z"/>
		</defs>
		<clipPath id="SVGID_2_">
			<use xlink:href="#SVGID_1_"  overflow="visible"/>
		</clipPath>
		<g id="Lines_1_" clip-path="url(#SVGID_2_)">
			<g>
				<path fill="#FFFFFF" d="M-60.9,21.6c0,0-0.4-1.4-1-3.8c-0.2-1.2-0.6-2.5-0.9-4.2c-0.1-0.8-0.3-1.7-0.5-2.6
					c-0.1-0.9-0.3-1.9-0.4-2.9c-0.2-2-0.4-4.3-0.5-6.6c-0.1-1.2-0.1-2.4-0.1-3.6c0-1.2,0-2.5,0-3.8c0.1-1.3,0.1-2.6,0.2-3.9
					c0.1-1.3,0.2-2.7,0.3-4c0.1-1.3,0.3-2.7,0.5-4.1c0.2-1.4,0.4-2.7,0.6-4.1c0.4-2.7,0.9-5.5,1.4-8.1c0.3-1.3,0.6-2.7,0.8-4
					c0.3-1.3,0.6-2.6,0.9-3.9c0.6-2.5,1.2-5,1.7-7.3c0.6-2.3,1.1-4.5,1.6-6.6c1-4.1,1.9-7.5,2.4-9.9c0.6-2.4,0.9-3.8,0.9-3.8l-3.1-1
					c0,0-0.5,1.3-1.4,3.6c-0.9,2.3-2.1,5.6-3.4,9.7c-0.7,2-1.4,4.2-2.1,6.5c-0.7,2.3-1.5,4.8-2.1,7.4c-0.3,1.3-0.7,2.6-1,3.9
					c-0.3,1.4-0.6,2.7-0.9,4.1c-0.6,2.8-1.1,5.6-1.6,8.4c-0.2,1.4-0.4,2.8-0.6,4.3c-0.2,1.4-0.3,2.9-0.4,4.3
					c-0.2,2.8-0.3,5.6-0.3,8.4c0,1.4,0,2.7,0.1,4c0.1,1.3,0.2,2.6,0.3,3.8c0.2,1.2,0.2,2.5,0.5,3.6c0.2,1.2,0.4,2.3,0.6,3.4
					c0.2,1.1,0.5,2.1,0.7,3.1c0.3,1,0.5,1.9,0.7,2.7c0.4,1.7,1,3.2,1.4,4.4c0.4,1.2,0.8,2,1.1,2.7c0.3,0.6,0.4,0.9,0.4,0.9
					L-60.9,21.6z"/>
			</g>
			<g>
				<path fill="#FFFFFF" d="M-55,33.5c0,0,0.6,0.2,1.6,0.5c1.1,0.3,2.6,0.7,4.6,1.1c2,0.4,4.4,0.9,7.1,1.3c1.4,0.2,2.9,0.4,4.4,0.6
					c0.8,0.1,1.6,0.2,2.4,0.3c0.8,0.1,1.7,0.2,2.5,0.2c1.7,0.2,3.5,0.3,5.4,0.4c1.9,0.1,3.8,0.2,5.8,0.2c4,0.1,8.1,0.1,12.4-0.2
					c2.2-0.2,4.3-0.3,6.6-0.5c2.2-0.2,4.4-0.5,6.7-0.7c2.2-0.4,4.5-0.7,6.8-1.1c2.3-0.4,4.5-0.9,6.8-1.4c2.3-0.4,4.5-1.1,6.7-1.7
					c1.1-0.3,2.2-0.6,3.3-0.9c0.3-0.1,0.5-0.1,0.9-0.3l0.8-0.3l1.6-0.5c4.4-1.5,8.6-3.2,12.5-5.1c3.9-1.9,7.6-3.9,11-5.9
					c3.4-2,6.5-4,9.4-6c2.8-1.9,5.4-3.8,7.6-5.5c2.2-1.7,4.1-3.2,5.7-4.5c1.6-1.3,2.7-2.3,3.5-3c0.8-0.7,1.2-1.1,1.2-1.1l-2.3-3.1
					c0,0-1.9,1.3-5.1,3.5c-1.6,1.1-3.6,2.4-5.9,3.9C66.5,5.6,63.9,7.2,61,9c-2.9,1.7-6,3.5-9.4,5.3c-3.4,1.8-7,3.6-10.7,5.3
					c-3.8,1.7-7.8,3.2-11.8,4.6l-1.6,0.5l-0.8,0.3c-0.2,0.1-0.5,0.1-0.7,0.2c-1.1,0.3-2.1,0.6-3.2,0.8c-2.1,0.6-4.3,1.2-6.4,1.6
					c-2.2,0.5-4.3,1-6.5,1.4c-2.2,0.4-4.3,0.7-6.5,1.1c-2.2,0.3-4.3,0.6-6.4,0.8c-2.1,0.3-4.2,0.4-6.3,0.6c-4.1,0.3-8.2,0.5-12,0.6
					c-1.9,0.1-3.8,0-5.6,0c-1.8,0-3.5,0-5.2-0.1c-0.8,0-1.7-0.1-2.4-0.1c-0.8-0.1-1.6-0.1-2.3-0.1c-1.5-0.1-3-0.2-4.3-0.3
					c-2.7-0.2-5.1-0.5-7-0.7c-1.9-0.2-3.4-0.5-4.5-0.6c-1-0.2-1.6-0.3-1.6-0.3L-55,33.5z"/>
			</g>
			<g>
				<path fill="#FFFFFF" d="M-53.9,33.1c0,0,0.5-0.3,1.3-0.9c0.9-0.6,2.2-1.5,3.8-2.6c3.3-2.3,8.1-5.4,13.9-9.1
					c2.9-1.8,6.1-3.8,9.4-5.8c3.4-2,6.9-4.1,10.7-6.2c1.8-1.1,3.8-2.1,5.7-3.2c1-0.5,1.9-1.1,2.9-1.6c1-0.5,2-1,3-1.6
					c1-0.5,2-1,3-1.6c1-0.5,2-1,3-1.5c2-1,4.1-2,6.1-3L12-5.5l0.8-0.4L13.2-6l0.4-0.2l1.6-0.7c2.1-1,4.1-1.8,6.2-2.6
					c4.1-1.7,8.2-3.2,12.2-4.6c4-1.4,7.9-2.5,11.7-3.4c3.7-1,7.3-1.6,10.6-2.1c1.7-0.2,3.3-0.5,4.8-0.6c0.8-0.1,1.5-0.1,2.2-0.2
					c0.7,0,1.4-0.1,2.1-0.1c1.4-0.1,2.6-0.1,3.8-0.1c0.6,0,1.2,0,1.7,0c0.5,0,1.1,0,1.5,0.1c1,0.1,1.9,0.1,2.6,0.1
					c0.8,0.1,1.4,0.1,2,0.2c1.1,0.1,1.7,0.2,1.7,0.2l0.6-3.8c0,0-0.6-0.1-1.6-0.3c-0.5-0.1-1.2-0.2-2-0.4c-0.9-0.2-1.7-0.3-2.8-0.4
					c-0.5-0.1-1.1-0.1-1.6-0.2c-0.6,0-1.2-0.1-1.8-0.1c-1.3-0.1-2.6-0.2-4.1-0.2c-0.7,0-1.5,0-2.2,0c-0.8,0-1.6,0-2.4,0.1
					c-1.6,0-3.3,0.2-5.1,0.3c-3.5,0.3-7.4,0.8-11.3,1.7c-4,0.8-8.1,1.9-12.3,3.2c-4.2,1.3-8.5,2.8-12.8,4.5
					c-2.1,0.9-4.3,1.8-6.4,2.7l-1.6,0.7l-0.8,0.4l-0.8,0.4L6-10.4c-2.1,1-4.2,2-6.3,3.1c-1,0.5-2.1,1.1-3.1,1.6c-1,0.5-2,1.1-3,1.6
					c-2,1.1-4,2.2-6,3.3c-2,1.1-3.9,2.2-5.7,3.4C-20,3.7-21.8,4.8-23.6,6c-1.8,1.1-3.5,2.2-5.2,3.3c-3.3,2.2-6.4,4.4-9.3,6.4
					c-5.7,4.1-10.2,7.6-13.4,10.2c-1.6,1.3-2.8,2.3-3.6,3c-0.8,0.7-1.3,1.1-1.3,1.1L-53.9,33.1z"/>
			</g>
			<g>
				<path fill="#FFFFFF" d="M-53.5,31.6L-53.5,31.6l-0.1-0.5l0-0.2l0-0.1l0,0l0,0c0,0,0-0.1,0,0.1l0-0.6l0-0.3c0-0.1,0-0.1,0-0.2
					l0.1-0.4c0.1-0.6,0.3-1.4,0.5-2.1c0.4-1.5,1-2.9,1.6-4.4c1.3-2.9,2.8-5.7,4.5-8.5c1.7-2.8,3.4-5.5,5.3-8.1
					c1.9-2.6,3.8-5.2,5.9-7.7c4.1-5,8.6-9.7,13.3-14c4.7-4.4,9.8-8.4,15.1-11.9c2.7-1.8,5.4-3.5,8.2-5l2.1-1.1l2.2-1.1
					c1.5-0.8,2.9-1.4,4.4-2.2c2.9-1.4,5.9-2.7,8.8-4c1.5-0.6,3-1.2,4.5-1.7l2.3-0.8l2.3-0.7c1.5-0.5,3.1-0.8,4.6-1.2
					c1.6-0.3,3.1-0.7,4.7-0.9c3.1-0.6,6.3-0.8,9.4-0.9c1.6,0,3.2-0.1,4.8,0.1l2.4,0.1l2.4,0.3c1.6,0.2,3.2,0.5,4.7,0.8
					c1.6,0.3,3.1,0.7,4.7,1.1l1.2-3.6c-3.2-1.2-6.5-2.2-9.8-2.9l-2.5-0.5l-2.6-0.3c-1.7-0.3-3.4-0.3-5.1-0.5
					c-3.4-0.1-6.9,0-10.3,0.4c-1.7,0.1-3.4,0.5-5.1,0.8c-1.7,0.4-3.4,0.7-5,1.1c-3.3,0.8-6.6,1.9-9.8,3.1c-3.2,1.2-6.3,2.5-9.4,3.9
					c-1.5,0.7-3.1,1.5-4.6,2.2L0-39.7l-2.3,1.2c-3,1.6-5.9,3.4-8.8,5.3c-2.8,1.9-5.6,3.9-8.2,6.1c-2.6,2.1-5.2,4.3-7.7,6.7
					c-2.5,2.3-4.8,4.8-7.1,7.3c-2.3,2.5-4.4,5.1-6.5,7.8c-2.1,2.7-4,5.4-5.9,8.3c-1.8,2.8-3.6,5.8-5.1,8.8c-1.6,3-3,6.1-4.2,9.4
					c-0.6,1.6-1.1,3.3-1.5,5c-0.2,0.9-0.3,1.8-0.4,2.8l0,0.8c0,0.1,0,0.3,0,0.4l0,0.3l0.1,0.6c0,0.2,0,0.1,0,0.2l0,0.1l0,0.1l0,0.2
					l0.1,0.5l-0.1-0.5l0,0H-53.5z"/>
			</g>
			<g>
				<path fill="#FFFFFF" d="M-55.5,30.4C-55.5,30.4-55.5,30.4-55.5,30.4C-55.5,30.4-55.5,30.4-55.5,30.4L-55.5,30.4
					c0.1,0.4,0,0.1,0.1,0.2l0,0l0,0l0,0c0-0.1,0-0.2-0.1-0.3c0-0.3-0.1-0.7-0.2-1.3c-0.1-1.1-0.3-2.9-0.4-5c0-0.6-0.1-1.1-0.1-1.8
					c0-0.6,0-1.2,0-1.9c-0.1-1.3,0-2.7,0-4.2c0.1-3,0.3-6.4,0.8-10.1c0.2-1.8,0.6-3.7,0.9-5.7c0.2-1,0.4-2,0.6-3c0.2-1,0.4-2,0.7-3
					c0.3-1,0.6-2,0.9-3.1c0.3-1,0.7-2,1.1-3.1c0.7-2.1,1.6-4.1,2.5-6.2c0.4-1.1,1-2,1.5-3.1c0.6-1,1-2.1,1.7-3.1
					c1.3-2,2.4-4,3.9-5.9c0.7-1,1.4-1.9,2.1-2.9c0.8-0.9,1.6-1.8,2.4-2.7l1.2-1.4c0.4-0.5,0.9-0.9,1.3-1.3L-32-41l0.7-0.6l0,0
					c0,0,0.1-0.1,0,0l0.1-0.1l0.2-0.2l0.4-0.3l1.4-1.2c0.9-0.8,1.8-1.5,2.8-2.2c1-0.7,1.9-1.4,3-2.1l1.5-1l1.5-0.9
					c4.1-2.5,8.4-4.7,12.6-6.5c4.3-1.8,8.5-3.3,12.6-4.5c4.1-1.2,8-2.2,11.7-2.9c0.9-0.2,1.8-0.4,2.7-0.5c0.9-0.2,1.8-0.3,2.6-0.5
					c1.7-0.3,3.3-0.6,4.8-0.8c3-0.5,5.7-0.8,7.9-1c4.4-0.4,6.9-0.6,6.9-0.6l-0.1-3.8c0,0-0.6,0-1.8,0c-1.2,0-3,0-5.2,0
					c-2.3,0.1-5,0.2-8.1,0.4c-3.2,0.2-6.7,0.6-10.5,1.2c-1.9,0.3-3.9,0.7-6,1c-2.1,0.5-4.2,0.9-6.3,1.5c-4.3,1.1-8.9,2.5-13.4,4.3
					c-4.6,1.8-9.2,4-13.7,6.7l-1.7,1l-1.6,1.1c-1.1,0.7-2.2,1.5-3.2,2.3c-1.1,0.8-2.2,1.7-3.2,2.5l-1.5,1.2l-0.4,0.3l-0.2,0.2
					l-0.1,0.1l-0.1,0.1l-0.7,0.7l-2.8,2.8c-0.5,0.5-1,0.9-1.4,1.4l-1.3,1.5c-0.9,1-1.7,2-2.6,3c-0.8,1-1.6,2.1-2.3,3.2
					c-1.6,2.1-2.8,4.4-4.2,6.6c-0.7,1.1-1.2,2.3-1.7,3.4c-0.5,1.1-1.2,2.2-1.6,3.4c-0.5,1.2-0.9,2.3-1.4,3.4
					c-0.2,0.6-0.4,1.1-0.6,1.7c-0.2,0.6-0.4,1.1-0.5,1.7c-0.3,1.1-0.8,2.2-1,3.4c-0.3,1.1-0.6,2.2-0.8,3.3c-0.3,1.1-0.5,2.2-0.7,3.3
					c-0.2,1.1-0.4,2.1-0.6,3.2c-0.3,2.1-0.6,4.1-0.7,6.1c-0.4,3.9-0.3,7.5-0.2,10.7c0.1,1.6,0.1,3.1,0.3,4.5c0.1,0.7,0.1,1.4,0.2,2
					c0.1,0.6,0.2,1.2,0.2,1.7c0.3,2.3,0.7,4,0.9,5.2c0.1,0.6,0.2,1.1,0.3,1.4c0,0.2,0.1,0.3,0.1,0.3c0,0.1,0.1,0.2,0.1,0.3
					c0,0,0,0,0,0c0,0,0,0,0,0L-55.5,30.4z"/>
			</g>
			<g>
				<path fill="#FFFFFF" d="M-56.2,33.3L-56.2,33.3l-0.7-0.5c1.8,2.4,3.7,4.4,5.7,6.4c2,2,4.1,3.9,6.3,5.7c2.2,1.8,4.5,3.5,6.8,5.2
					c1.2,0.8,2.3,1.6,3.6,2.4l1.8,1.1l1.8,1.1c2.5,1.4,5,2.7,7.6,3.9c1.3,0.6,2.6,1.1,3.9,1.7c1.3,0.5,2.7,1,4,1.5
					c1.4,0.5,2.7,0.9,4.1,1.3c1.4,0.4,2.8,0.8,4.1,1.1c1.4,0.3,2.8,0.6,4.2,0.9c1.4,0.3,2.8,0.5,4.2,0.7c1.4,0.3,2.8,0.4,4.3,0.5
					c1.4,0.2,2.9,0.2,4.3,0.3L12,67l2.2,0c1.4,0,2.9,0,4.3-0.1c1.4-0.1,2.9-0.1,4.3-0.3l4.3-0.5c1.4-0.2,2.8-0.5,4.2-0.7l2.1-0.4
					l2.1-0.5c1.4-0.3,2.8-0.6,4.1-1l4.1-1.2c2.7-0.8,5.4-1.8,8-2.9c2.6-1.1,5.2-2.2,7.7-3.5c2.5-1.3,5-2.6,7.4-4l-1.8-3.4
					c-2.5,1.1-5,2.1-7.6,3.1c-2.5,1-5.1,1.9-7.7,2.7c-2.6,0.8-5.2,1.6-7.8,2.2L38,57.6c-1.3,0.3-2.6,0.5-3.9,0.8l-2,0.4l-2,0.3
					c-1.3,0.2-2.6,0.4-4,0.5l-4,0.3c-1.3,0.1-2.7,0.1-4,0.1c-1.3,0.1-2.7,0-4,0l-2,0l-2-0.1c-2.7-0.1-5.3-0.5-7.9-0.8
					c-1.3-0.2-2.6-0.4-3.9-0.7c-1.3-0.3-2.6-0.5-3.9-0.8c-1.3-0.3-2.6-0.7-3.9-1l-3.8-1.2c-1.3-0.4-2.5-0.9-3.8-1.3
					c-1.2-0.5-2.5-1-3.7-1.5c-2.4-1.1-4.9-2.2-7.3-3.4c-2.4-1.2-4.7-2.6-7-4c-2.3-1.4-4.5-2.9-6.7-4.5c-2.2-1.6-4.3-3.2-6.4-5
					c-1-0.9-2-1.8-3-2.7c-1-0.9-2-1.9-2.9-2.8l-0.4-0.4l-0.4-0.2l0,0L-56.2,33.3z"/>
			</g>
		</g>
	</g>
	<g>
		<path fill="#A1625D" d="M-61.1,19.7c-3.5,0-6.4,2.3-9.1,4.6c-3.7,3.2-8.7,9.4-11.2,13.3c-0.6,0.9-0.3,1.6-0.1,1.9
			c0.2,0.3,0.7,0.9,1.8,0.9c0.5,0,1.2-0.1,1.9-0.3c-0.4,0.3-0.7,0.5-1,0.7l-0.5,0.3c-2,1.3-3.5,2.5-4.9,3.6l-0.3,0.2
			c-1.1,0.9-3.8,3.3-1.7,5.9c1.1,1.3,2.9,1.4,4.3,1.4c0.4,0,0.9,0,1.2,0.1c-0.2,0.3-0.4,0.7-0.6,1c-0.5,0.7-1,1.4-1.2,2.2
			c-0.8,2.5-0.5,5.2,0.8,8c0.3,0.6,0.9,1,1.5,1c0.7,0,1.3-0.4,1.5-1c0.2-0.5,0.8-1.4,1.7-2.8c0.1-0.1,0.2-0.2,0.2-0.3
			c1.5-2.5,2.6-4.4,3.7-6.1l0.5-0.7c2.1-3.2,4.5-6.7,7.5-8.7c1.8-1.1,3.7-1.4,5.8-1.6c1.8-0.2,3.7-0.5,5.6-1.3
			c4.3-1.9,6.3-7,4.7-11.6c-1.1-3.2-3.9-6.8-7.1-8.9c-0.6-0.4-1.3-0.8-2-1.1C-58.9,19.9-60,19.7-61.1,19.7z"/>
		<path fill="#FFFFFF" d="M-80.1,62.9c0.1,0,0.1,0,0.2-0.1c0.5-1,1.9-3.1,2-3.2c1.2-2.1,2.5-4.1,3.8-6.1c2.3-3.4,4.9-7.6,8.4-9.8
			c3.7-2.3,7.9-1.4,11.7-3c3.7-1.6,5.2-6,3.9-9.7c-1-2.9-3.7-6.2-6.5-8.1c-0.6-0.4-1.2-0.7-1.7-1c-0.9-0.4-1.8-0.6-2.7-0.6
			c-3,0-5.8,2.2-8.1,4.2c-3.5,3-8.4,9-10.9,12.9c-0.2,0.4-0.1,0.5,0.4,0.5c0.9,0,3.1-0.7,4.3-0.7c0.3,0,0.5,0,0.7,0.2
			c0.1,0.1,0.2,0.3,0.1,0.5c-0.5,1.5-2.6,2.7-3.8,3.5c-1.6,1.1-3.2,2.2-4.7,3.5c-1.1,0.9-3.1,2.4-1.8,4c1.1,1.3,3.7,0.6,5.2,1.1
			c2.3,0.8-0.7,3.2-1.2,5c-0.8,2.4-0.3,4.7,0.7,6.9C-80.3,62.9-80.2,62.9-80.1,62.9 M-80.1,65.9c-1.2,0-2.4-0.7-2.9-1.8
			c-1.5-3.2-1.8-6.2-0.9-9.1c0.2-0.5,0.4-0.9,0.6-1.4c-1.3-0.1-2.9-0.5-4-1.9c-1.4-1.7-2.3-4.4,1.8-8l0.2-0.2
			c0.9-0.8,1.9-1.6,3.1-2.5c-0.4-0.3-0.7-0.7-0.8-0.9c-0.6-1.1-0.5-2.3,0.2-3.4c2.6-4,7.7-10.3,11.5-13.6c2.1-1.9,5.7-4.9,10.1-4.9
			c1.3,0,2.7,0.3,3.9,0.9c0.7,0.3,1.5,0.8,2.2,1.3c3.4,2.3,6.4,6,7.6,9.6c1.9,5.4-0.6,11.3-5.5,13.5c-2.1,0.9-4.2,1.2-6.1,1.4
			c-2,0.2-3.7,0.5-5.2,1.4c-2.8,1.8-5,5.2-7.1,8.2l-0.5,0.7c-1.1,1.7-2.3,3.5-3.7,6l0,0l0,0c0,0-0.1,0.1-0.2,0.3
			c-1.2,1.7-1.5,2.4-1.6,2.6C-77.8,65.2-78.9,65.9-80.1,65.9L-80.1,65.9z"/>
	</g>
	<path opacity="0.2" d="M-56.7,22.8c-0.6-0.4-1.2-0.7-1.7-1c-4.2-1.9-7.8,1-10.8,3.6c-3.5,3-8.4,9-10.9,12.9c-0.9,1.5,4.4-0.8,5.3,0
		c1.9-1.1,6.7-8.1,10.9-11.5C-60.7,24.2-57.9,25.4-56.7,22.8z"/>
</symbol>
<g id="New_Symbol">
	<g>
		<path fill="#333333" d="M174.7,231.1c0-3.8,1.3-7.3,4-10.5c2.6-3.2,5.4-4.8,8.4-4.8c1.4,0,2.5,0.4,3.1,1.2c0.6,0.8,0.9,1.8,0.9,3
			c0,1.1-0.3,2.1-0.8,3c-0.5,0.8-1.2,1.2-2.1,1.2c-0.6,0-1.2-0.3-1.6-0.9c0.6-0.3,1.1-0.9,1.5-1.8c0.4-0.9,0.6-1.8,0.6-2.7
			c0-1-0.4-1.4-1.2-1.4c-2,0-4,1.6-6.1,4.9c-2.1,3.2-3.2,6.3-3.2,9.2c0,3.2,1.4,4.8,4.1,4.8c2.3,0,4.6-1,6.8-2.9
			c2.2-1.9,4-4.4,5.2-7.5l0.7,0.6c-1.3,3.5-3.2,6.3-5.9,8.6c-2.6,2.2-5.3,3.4-8.1,3.4c-1.9,0-3.4-0.6-4.6-1.9
			C175.3,235.3,174.7,233.5,174.7,231.1z"/>
		<path fill="#333333" d="M193.3,227.9c1.8-3.6,3.3-7.2,4.6-10.9c-0.4-0.4-0.6-0.8-0.6-1.4c0-1,0.3-1.9,0.9-2.7
			c0.6-0.8,1.1-1.2,1.5-1.2c0.5,0,0.8,0.5,0.8,1.4c0,0.2-0.1,0.5-0.2,1.1c-0.1,0.6-0.2,0.9-0.2,1c0,0.5,0.3,0.9,0.9,1.5
			c0.6,0.5,1.2,1,2,1.5c0.7,0.5,1.4,1.1,2,2c0.6,0.9,0.9,1.9,0.9,3c0,1.3-0.5,3-1.4,5.2s-1.4,3.7-1.4,4.4c0,1.1,0.6,1.7,1.7,1.7
			c1.7,0,3.5-1,5.4-2.9c2-1.9,3.4-3.8,4.1-5.7l0.7,0.6c-1.2,2.6-2.9,5-5.1,7c-2.2,2-4.5,3.1-6.7,3.1c-1.3,0-2.3-0.4-3-1.1
			c-0.7-0.7-1.1-1.6-1.1-2.7c0-1.1,0.5-3,1.6-5.5c1-2.5,1.6-4.3,1.6-5.2c0-0.4-0.1-0.8-0.2-1.1c-0.1-0.4-0.2-0.6-0.3-0.9
			c-0.1-0.2-0.3-0.4-0.6-0.7l-0.6-0.6c-0.1-0.1-0.4-0.3-0.8-0.6c-0.4-0.3-0.6-0.4-0.7-0.5c-1.8,4.6-3.5,8.3-5.1,11L193.3,227.9z"/>
		<path fill="#333333" d="M212,231.1c0-3.5,1.6-7.1,4.7-10.9c3.2-3.7,6.4-5.6,9.6-5.6c2.3,0,3.5,1.2,3.5,3.5c0,2.8-1.5,5.3-4.4,7.4
			c-2.9,2.1-6.1,3.4-9.5,3.7c-0.1,0.7-0.2,1.3-0.2,2.1c0,3.2,1.5,4.8,4.4,4.8c2.3,0,4.6-1,6.9-2.9c2.3-1.9,4.2-4.4,5.7-7.2l0.7,0.5
			c-1.5,3.4-3.6,6.1-6.3,8.2c-2.7,2.1-5.4,3.1-8.2,3.1c-2.2,0-3.9-0.6-5.1-1.8C212.6,234.6,212,233.1,212,231.1z M216.2,228.1
			c2.6-1,5.1-2.4,7.5-4.3c2.4-1.9,3.6-4,3.6-6.1c0-0.9-0.4-1.3-1.2-1.3c-1.8,0-3.7,1.3-5.7,3.8C218.4,222.6,217,225.3,216.2,228.1z"
			/>
		<path fill="#333333" d="M230.1,233.2c0-2.3,0.8-4.8,2.3-7.5c1.6-2.8,3.6-5.1,6-7.1c2.5-2,4.9-3,7.2-3c1.5,0,2.7,0.4,3.7,1.2
			c1,0.8,1.5,1.9,1.5,3.1c0,1.6-0.9,2.5-2.8,2.5c0.2-0.7,0.3-1.4,0.3-2c0-2.1-0.9-3.2-2.8-3.2c-1.6,0-3.4,1-5.3,2.9
			c-1.9,1.9-3.4,4.2-4.5,6.7c-1.2,2.5-1.8,4.7-1.8,6.6c0,1.5,0.5,2.2,1.5,2.2c0.7,0,1.5-0.3,2.4-1s1.7-1.4,2.5-2.2
			c0.7-0.8,1.6-1.9,2.7-3.2c1-1.4,1.8-2.4,2.3-3.1l2-3c1.5,0.3,2.3,0.7,2.3,1.4c0,0.3-0.6,1.5-1.7,3.4c-1.1,2-1.7,3.5-1.7,4.5
			c0,0.7,0.2,1.2,0.5,1.7c0.3,0.5,0.8,0.8,1.5,0.8c1.1,0,2.5-0.8,4.1-2.4c1.7-1.6,3.3-3.8,4.9-6.7l0.6,0.6c-1.2,3-2.8,5.5-4.9,7.5
			c-2.1,1.9-4.2,2.9-6.3,2.9c-1.3,0-2.3-0.4-3-1.2c-0.7-0.8-1-1.7-1-2.8c0-0.5,0.1-1,0.2-1.7c-1.7,2.3-3.2,3.9-4.5,5
			c-1.3,1.1-2.7,1.6-4,1.6c-1.2,0-2.2-0.4-3-1.2C230.5,235.9,230.1,234.7,230.1,233.2z"/>
		<path fill="#333333" d="M256,232.2c0-3.3,1.1-7.9,3.3-13.8c-0.9-0.2-1.6-0.3-2-0.5v-1c1.4,0.2,2.2,0.2,2.5,0.2
			c1.7-4.4,3.4-8.1,5.3-11.3c1.9-3.2,3.4-4.8,4.5-4.8c0.3,0,0.6,0.1,0.8,0.3c0.2,0.2,0.4,0.5,0.4,0.9c0,0.6-0.4,1.6-1.1,3
			c-0.7,1.4-1.8,3.3-3.1,5.7c-1.3,2.4-2.4,4.5-3.3,6.4h2.1c3.1,0,5.8-0.1,8.1-0.3v1c-4,0.5-7.2,0.7-9.6,0.7c-0.1,0-0.2,0-0.3,0h-0.8
			c-2.1,4.8-3.1,8.9-3.1,12.4c0,1.7,0.2,2.9,0.7,3.6c0.5,0.7,1.3,1,2.4,1c1.9,0,3.8-0.9,5.7-2.6c1.9-1.7,3.6-4.1,5-7.2l0.7,0.6
			c-1.4,3.3-3.3,6-5.6,8.2s-4.8,3.2-7.4,3.2C257.6,237.9,256,236,256,232.2z"/>
		<path fill="#333333" d="M272,231.9c0-1.5,0.4-3.5,1.2-6c0.8-2.5,1.8-4.8,3.2-6.9c1.3-2.1,2.6-3.2,3.8-3.2c0.8,0,1.2,0.4,1.2,1.3
			c0,0.5-0.5,1.5-1.5,3.2c-1,1.6-2,3.5-2.9,5.6c-1,2.1-1.5,3.9-1.5,5.5c0,1.3,0.2,2.3,0.6,2.7c0.4,0.5,1.1,0.7,2.1,0.7
			c2.9,0,5.8-2.9,8.7-8.8l0.5,0.6c-1.1,3.2-2.6,5.7-4.7,7.5c-2,1.8-4.2,2.7-6.5,2.7c-1.4,0-2.5-0.4-3.2-1.3
			C272.3,234.5,272,233.3,272,231.9z M280.8,208.6c0-0.8,0.5-1.5,1.4-2.1c0.9-0.6,1.8-0.9,2.8-0.9c1.2,0,1.9,0.6,1.9,1.7
			c0,0.8-0.4,1.5-1.2,2.1c-0.8,0.7-1.6,1-2.5,1C281.5,210.5,280.8,209.8,280.8,208.6z"/>
		<path fill="#333333" d="M286.4,231.2c0-0.7,0.1-3.2,0.3-7.5c0-0.8,0.1-1.4,0.2-1.7c0.1-0.3,0.2-0.6,0.5-0.7
			c0.2-0.2,0.6-0.3,1.2-0.3c0.6,0,1,0.1,1.2,0.4c0.2,0.2,0.3,0.7,0.3,1.5c0,0.8-0.1,2.3-0.3,4.4c-0.2,2.2-0.3,3.8-0.3,4.8
			c0,2.1,0.4,3.2,1.3,3.2c1.2,0,2.7-1.3,4.5-3.9c1.8-2.6,3.4-5.5,4.8-8.7c0.2-4.3,1.1-6.5,2.7-6.5c0.6,0,1.1,0.2,1.4,0.7
			c0.3,0.5,0.5,1,0.5,1.5c0,0.3-0.2,0.8-0.5,1.4c-0.3,0.6-0.6,1.4-0.9,2.5c-0.3,1.1-0.5,2.3-0.5,3.8c0,2.9,0.9,4.4,2.6,4.4
			c1.6,0,3.1-1.4,4.5-4.2l0.7,0.6c-1.4,3.2-3.2,4.9-5.6,4.9c-2.7,0-4.3-1.9-4.8-5.6c-1.5,3.1-3.3,5.8-5.3,8.1
			c-2,2.2-3.8,3.4-5.5,3.4C287.4,237.5,286.4,235.4,286.4,231.2z"/>
		<path fill="#333333" d="M308,231.1c0-3.5,1.6-7.1,4.7-10.9c3.2-3.7,6.4-5.6,9.6-5.6c2.3,0,3.5,1.2,3.5,3.5c0,2.8-1.5,5.3-4.4,7.4
			c-2.9,2.1-6.1,3.4-9.5,3.7c-0.1,0.7-0.2,1.3-0.2,2.1c0,3.2,1.5,4.8,4.4,4.8c2.3,0,4.6-1,6.9-2.9c2.3-1.9,4.2-4.4,5.7-7.2l0.7,0.5
			c-1.5,3.4-3.6,6.1-6.3,8.2c-2.7,2.1-5.4,3.1-8.2,3.1c-2.2,0-3.9-0.6-5.1-1.8C308.6,234.6,308,233.1,308,231.1z M312.2,228.1
			c2.6-1,5.1-2.4,7.5-4.3c2.4-1.9,3.6-4,3.6-6.1c0-0.9-0.4-1.3-1.2-1.3c-1.8,0-3.7,1.3-5.7,3.8C314.4,222.6,312.9,225.3,312.2,228.1
			z"/>
	</g>
	
		<use xlink:href="#Berry"  width="177" height="142.8" x="-88.5" y="-70.9" transform="matrix(0.7578 0 0 -0.7705 137.7282 55.4058)" overflow="visible"/>
	<g>
		<g>
			<g>
				<path d="M118.7,184.3c-1.1,0-2.2-0.1-3-0.3c-3.1-0.8-5.8-2.8-7.8-5.8c-1.7-2.6-2.9-5.9-3.4-9.3c-1.1-7.8,0.9-16,5.5-22.4
					c0.5-0.7,1-1.3,1.6-2c0.4-2.8,1.9-5.6,4-7.9c3.3-3.5,7.7-5.5,12-5.5c4.7,0,9.1,1.8,12.2,4.9c3.2,3.2,5.1,8,5.1,12.8
					c0,4.4-0.9,9.3-2.4,13.7c-1.8,4.9-3.9,9-6.6,12.3c-3,3.8-5.9,6.6-10.2,8.2C123.5,183.9,120.9,184.3,118.7,184.3
					C118.7,184.3,118.7,184.3,118.7,184.3z M112.7,151.6c-0.1,0.4-0.2,0.7-0.3,1.1c-1,3.5-1.2,7.4-0.8,11.6
					c0.4,3.9,1.9,10.9,7.3,14.4c1.2,0.8,2.6,1.3,3.9,1.3c0.5,0,0.9-0.1,1.3-0.2c1.1-0.3,2.2-1,3.3-2.1c3.3-3.2,5.3-7.8,7.2-12.5
					c2.4-6.1,3.3-11,2.7-15.5c-0.5-4.4-2.5-8.4-5.5-11.1c-0.8-0.7-2-1.7-3.4-2.4c-1.3,0.8-2.6,1.6-3.9,2.4c-2.2,1.3-4.4,2.6-6.3,4.3
					c-0.1,2.1,0.4,4.2,1.5,6.1c1.6,2.8,4.3,4.9,7.7,6c0.1,0,0.3,0.1,0.5,0.1c1.1,0.2,1.7,0.4,1.8,0.8c0.1,0.3,0.1,0.5-0.1,0.8
					c-0.5,0.9-2.7,1.4-2.7,1.4c-0.9,0.2-1.8,0.2-2.7,0.2c-2.5,0-4.8-0.6-6.8-1.7C115.4,155.2,113.8,153.5,112.7,151.6z M124.6,135
					c-0.9,0-1.8,0.2-2.5,0.6c-1,0.6-1.8,1.4-2.3,2.2c2.1-1.1,4.2-2,6.5-2.6C125.7,135,125.2,135,124.6,135z"/>
				<path d="M127.5,131.5c4.7,0,9,1.8,11.9,4.8c3.2,3.3,5,7.9,5,12.6c0,4.4-0.9,9.2-2.4,13.5c-1.6,4.4-3.7,8.6-6.6,12.2
					c-2.9,3.6-5.7,6.5-10,8.1c-1.9,0.7-4.4,1.2-6.6,1.2c-1,0-2.1-0.1-3-0.3c-6.6-1.6-10.1-8.5-11-14.8c-1.1-7.7,0.9-15.8,5.5-22.1
					c0.5-0.7,1.1-1.4,1.6-2c-0.2,1.3-0.2,2.5,0.1,3.8c0.2,0.7,0.4,1.4,0.7,2.1c-0.2,0.7-0.5,1.3-0.6,2c-1,3.8-1.2,7.8-0.8,11.7
					c0.6,5.5,2.7,11.5,7.5,14.7c1.2,0.8,2.7,1.3,4.1,1.3c0.5,0,1-0.1,1.4-0.2c1.3-0.3,2.5-1.2,3.5-2.2c3.4-3.4,5.5-8.3,7.3-12.7
					c2-5,3.4-10.3,2.7-15.7c-0.5-4.3-2.4-8.4-5.6-11.4c-1-1-2.3-1.9-3.7-2.6c0.3-0.2,0.6-0.4,0.9-0.7c-0.2,0-0.4,0.1-0.6,0.1
					c-0.4,0.1-0.8,0.1-1.1,0.2c-1-0.4-2-0.7-3.1-0.7c-0.9,0-1.8,0.2-2.7,0.7c-1.3,0.7-2.2,1.9-2.9,3.2c-0.1,0.2-0.1,0.3-0.2,0.5
					c-2.6,1.6-4.9,3.5-6.9,5.8c0.4-2.9,1.9-5.7,3.9-7.8C118.9,133.7,123.1,131.5,127.5,131.5 M127.7,135.2c0.3,0.1,0.5,0.2,0.8,0.4
					c-3.5,2.4-7.4,4.1-10.5,6.9c0.1-1.3,0.3-2.5,0.9-3.7C121.5,137.2,124.6,135.9,127.7,135.2 M117.9,142.5
					c-0.1,2.2,0.4,4.5,1.5,6.4c1.7,3,4.7,5.1,7.9,6.2c0.3,0.1,1.9,0.3,2,0.6c0.3,0.9-2,1.5-2.5,1.6c-0.9,0.2-1.7,0.2-2.6,0.2
					c-2.3,0-4.6-0.5-6.7-1.7c-2.1-1.2-3.9-3.1-4.9-5.4C113.8,147.5,115.5,144.7,117.9,142.5C117.9,142.5,117.9,142.5,117.9,142.5
					 M127.5,130.7c-4.4,0-8.9,2-12.3,5.6c-2.2,2.3-3.6,5.1-4.1,8c-0.5,0.6-1,1.3-1.5,1.9c-4.7,6.5-6.7,14.7-5.6,22.7
					c0.5,3.5,1.7,6.9,3.5,9.5c2.1,3.1,4.9,5.2,8.1,6c0.9,0.2,2,0.4,3.1,0.4c2.2,0,4.8-0.5,6.9-1.2c4.3-1.6,7.3-4.5,10.4-8.4
					c2.7-3.4,4.9-7.5,6.7-12.4c1.6-4.4,2.5-9.3,2.5-13.8c0-4.9-1.9-9.8-5.2-13.1C136.8,132.6,132.3,130.7,127.5,130.7L127.5,130.7z
					 M121.4,136.6c0.3-0.2,0.6-0.4,0.9-0.6c0.6-0.3,1.3-0.5,2-0.6C123.3,135.7,122.3,136.1,121.4,136.6L121.4,136.6z M118.7,142.9
					c1.8-1.6,3.9-2.8,6.1-4.1c1.2-0.7,2.5-1.4,3.7-2.2c1.3,0.7,2.4,1.6,3.2,2.3c2.9,2.7,4.8,6.5,5.3,10.9c0.6,4.5-0.3,9.3-2.7,15.3
					c-1.9,4.7-3.8,9.2-7.1,12.4c-1.1,1-2.1,1.7-3.1,2c-0.4,0.1-0.8,0.2-1.2,0.2c-1.2,0-2.5-0.4-3.7-1.2c-2.3-1.5-6.2-5.3-7.1-14.1
					c-0.4-4.1-0.2-8,0.7-11.4c0-0.1,0-0.2,0.1-0.3c1.1,1.7,2.6,3.1,4.4,4.1c2.1,1.2,4.5,1.8,7,1.8c0.9,0,1.8-0.1,2.8-0.2
					c0,0,2.3-0.4,3-1.6c0.2-0.3,0.2-0.7,0.1-1.1c-0.2-0.6-0.9-0.8-2.1-1c-0.2,0-0.4-0.1-0.4-0.1c-3.3-1.1-5.9-3.2-7.4-5.8
					C119.2,146.8,118.7,144.8,118.7,142.9L118.7,142.9z M112.6,145c1.4-1.6,3-3,4.8-4.3c-0.1,0.5-0.2,0.9-0.2,1.4
					c-1.8,1.7-3.3,3.8-4.4,6.2c0,0,0-0.1,0-0.1C112.5,147.2,112.5,146.1,112.6,145L112.6,145z"/>
			</g>
		</g>
		<g>
			<g>
				<path d="M75.4,184.3c-1.1,0-2.2-0.1-3-0.3c-3.1-0.8-5.8-2.8-7.8-5.8c-1.7-2.6-2.9-5.9-3.4-9.3c-1.1-7.8,0.9-16,5.5-22.4
					c0.5-0.7,1-1.3,1.6-2c0.4-2.8,1.9-5.6,4-7.9c3.3-3.5,7.7-5.5,12-5.5c4.7,0,9.1,1.8,12.2,4.9c3.2,3.2,5.1,8,5.1,12.8
					c0,4.4-0.9,9.3-2.4,13.7c-1.8,4.9-3.9,9-6.6,12.3c-3,3.8-5.9,6.6-10.2,8.2C80.1,183.9,77.6,184.3,75.4,184.3
					C75.4,184.3,75.4,184.3,75.4,184.3z M69.4,151.6c-0.1,0.4-0.2,0.7-0.3,1.1c-1,3.5-1.2,7.4-0.8,11.6c0.4,3.9,1.9,10.9,7.3,14.4
					c1.2,0.8,2.6,1.3,3.9,1.3c0.5,0,0.9-0.1,1.3-0.2c1.1-0.3,2.2-1,3.3-2.1c3.3-3.2,5.3-7.8,7.2-12.5c2.4-6.1,3.3-11,2.7-15.5
					c-0.5-4.4-2.5-8.4-5.5-11.1c-0.8-0.7-2-1.7-3.4-2.4c-1.3,0.8-2.6,1.6-3.9,2.4c-2.2,1.3-4.4,2.6-6.3,4.3
					c-0.1,2.1,0.4,4.2,1.5,6.1c1.6,2.8,4.3,4.9,7.7,6c0.1,0,0.3,0.1,0.5,0.1c1.1,0.2,1.7,0.4,1.8,0.8c0.1,0.3,0.1,0.5-0.1,0.8
					c-0.5,0.9-2.7,1.4-2.7,1.4c-0.9,0.2-1.8,0.2-2.7,0.2c-2.5,0-4.8-0.6-6.8-1.7C72.1,155.2,70.5,153.5,69.4,151.6z M81.3,135
					c-0.9,0-1.8,0.2-2.5,0.6c-1,0.6-1.8,1.4-2.3,2.2c2.1-1.1,4.2-2,6.5-2.6C82.4,135,81.8,135,81.3,135z"/>
				<path d="M84.2,131.5c4.7,0,9,1.8,11.9,4.8c3.2,3.3,5,7.9,5,12.6c0,4.4-0.9,9.2-2.4,13.5c-1.6,4.4-3.7,8.6-6.6,12.2
					c-2.9,3.6-5.7,6.5-10,8.1c-1.9,0.7-4.4,1.2-6.6,1.2c-1,0-2.1-0.1-3-0.3c-6.6-1.6-10.1-8.5-11-14.8c-1.1-7.7,0.9-15.8,5.5-22.1
					c0.5-0.7,1.1-1.4,1.6-2c-0.2,1.3-0.2,2.5,0.1,3.8c0.2,0.7,0.4,1.4,0.7,2.1c-0.2,0.7-0.5,1.3-0.6,2c-1,3.8-1.2,7.8-0.8,11.7
					c0.6,5.5,2.7,11.5,7.5,14.7c1.2,0.8,2.7,1.3,4.1,1.3c0.5,0,1-0.1,1.4-0.2c1.3-0.3,2.5-1.2,3.5-2.2c3.4-3.4,5.5-8.3,7.3-12.7
					c2-5,3.4-10.3,2.7-15.7c-0.5-4.3-2.4-8.4-5.6-11.4c-1-1-2.3-1.9-3.7-2.6c0.3-0.2,0.6-0.4,0.9-0.7c-0.2,0-0.4,0.1-0.6,0.1
					c-0.4,0.1-0.8,0.1-1.1,0.2c-1-0.4-2-0.7-3.1-0.7c-0.9,0-1.8,0.2-2.7,0.7c-1.3,0.7-2.2,1.9-2.9,3.2c-0.1,0.2-0.1,0.3-0.2,0.5
					c-2.6,1.6-4.9,3.5-6.9,5.8c0.4-2.9,1.9-5.7,3.9-7.8C75.6,133.7,79.8,131.5,84.2,131.5 M84.4,135.2c0.3,0.1,0.5,0.2,0.8,0.4
					c-3.5,2.4-7.4,4.1-10.5,6.9c0.1-1.3,0.3-2.5,0.9-3.7C78.2,137.2,81.3,135.9,84.4,135.2 M74.6,142.5c-0.1,2.2,0.4,4.5,1.5,6.4
					c1.7,3,4.7,5.1,7.9,6.2c0.3,0.1,1.9,0.3,2,0.6c0.3,0.9-2,1.5-2.5,1.6c-0.9,0.2-1.7,0.2-2.6,0.2c-2.3,0-4.6-0.5-6.7-1.7
					c-2.1-1.2-3.9-3.1-4.9-5.4C70.5,147.5,72.2,144.7,74.6,142.5C74.6,142.5,74.6,142.5,74.6,142.5 M84.2,130.7
					c-4.4,0-8.9,2-12.3,5.6c-2.2,2.3-3.6,5.1-4.1,8c-0.5,0.6-1,1.3-1.5,1.9c-4.7,6.5-6.7,14.7-5.6,22.7c0.5,3.5,1.7,6.9,3.5,9.5
					c2.1,3.1,4.9,5.2,8.1,6c0.9,0.2,2,0.4,3.1,0.4c2.2,0,4.8-0.5,6.9-1.2c4.3-1.6,7.3-4.5,10.4-8.4c2.7-3.4,4.9-7.5,6.7-12.4
					c1.6-4.4,2.5-9.3,2.5-13.8c0-4.9-1.9-9.8-5.2-13.1C93.5,132.6,89,130.7,84.2,130.7L84.2,130.7z M78.1,136.6
					c0.3-0.2,0.6-0.4,0.9-0.6c0.6-0.3,1.3-0.5,2-0.6C80,135.7,79,136.1,78.1,136.6L78.1,136.6z M75.4,142.9c1.8-1.6,3.9-2.8,6.1-4.1
					c1.2-0.7,2.5-1.4,3.7-2.2c1.3,0.7,2.4,1.6,3.2,2.3c2.9,2.7,4.8,6.5,5.3,10.9c0.6,4.5-0.3,9.3-2.7,15.3
					c-1.9,4.7-3.8,9.2-7.1,12.4c-1.1,1-2.1,1.7-3.1,2c-0.4,0.1-0.8,0.2-1.2,0.2c-1.2,0-2.5-0.4-3.7-1.2c-2.3-1.5-6.2-5.3-7.1-14.1
					c-0.4-4.1-0.2-8,0.7-11.4c0-0.1,0-0.2,0.1-0.3c1.1,1.7,2.6,3.1,4.4,4.1c2.1,1.2,4.5,1.8,7,1.8c0.9,0,1.8-0.1,2.8-0.2
					c0,0,2.3-0.4,3-1.6c0.2-0.3,0.2-0.7,0.1-1.1c-0.2-0.6-0.9-0.8-2.1-1c-0.2,0-0.4-0.1-0.4-0.1c-3.3-1.1-5.9-3.2-7.4-5.8
					C75.9,146.8,75.4,144.8,75.4,142.9L75.4,142.9z M69.3,145c1.4-1.6,3-3,4.8-4.3c-0.1,0.5-0.2,0.9-0.2,1.4
					c-1.8,1.7-3.3,3.8-4.4,6.2c0,0,0-0.1,0-0.1C69.2,147.2,69.2,146.1,69.3,145L69.3,145z"/>
			</g>
		</g>
		<g>
			<g>
				<path d="M156.7,184.3c-1.1,0-2.2-0.1-3.1-0.3c-2.8-0.7-5.4-2.5-7.3-5.1c-1.6-2.2-3.4-5.4-2.5-8.5c0.5-1.7,1.6-3.2,3.1-4.2
					c0.4-0.3,0.9-0.4,1.4-0.4c0.3,0,0.6,0.1,0.9,0.2c0.5,0.3,0.8,0.8,0.9,1.1c0.2,0.6,0.3,1.2,0.5,1.7c0.1,0.5,0.3,1.1,0.5,1.6
					c0.4,1.1,0.9,2.2,1.4,3.2c1.2,2.1,2.7,3.7,4.5,4.9c1.2,0.8,2.6,1.3,3.9,1.3c0.5,0,0.9-0.1,1.3-0.2c1-0.3,2-0.9,3.1-1.9
					c1.1-1.1,1.5-2.1,1.8-3.7c0.1-0.7,0.4-2.4,0.1-4.6c-0.2-1.6-0.7-2.9-1.4-4.1c-1.5-2.6-4.3-4.2-7-5.7c-3.3-1.8-6.7-3.7-7.9-7.6
					c-1-3.2-0.7-8.1,6.4-13.8c3.1-2.5,7.9-6,13.4-7.1c1.4-0.3,2.6-0.4,3.8-0.4c1.6,0,2.9,0.3,4.1,0.8c1.7,0.8,2.6,2.4,2.3,4.1
					c-0.3,1.5-1.9,2.9-3.5,2.9l0,0c-1.4,0-2.5-0.6-3.6-1.3c-0.8-0.5-1.6-0.9-2.5-1.1c-0.5-0.1-1-0.2-1.6-0.2c-1.7,0-3.6,0.5-5.2,1.5
					c-2.5,1.5-5.4,4.6-6.1,8.5c-0.8,4.8,2.7,6.6,6.4,8.4c0.8,0.4,1.7,0.8,2.5,1.3c3.3,1.9,5.7,4.6,6.8,7.7c1.9,5.1,0.4,11-3.9,15.3
					l0,0l0,0c-1.6,1.5-3.2,2.7-5,3.5c-0.5,0.2-1,0.5-1.6,0.7C161.4,183.9,158.9,184.3,156.7,184.3z"/>
				<path d="M174.4,131.3c1.4,0,2.7,0.2,3.9,0.8c1.4,0.7,2.4,2,2.1,3.7c-0.3,1.4-1.7,2.5-3.1,2.6c0,0,0,0,0,0c-2.3,0-3.9-1.9-6-2.4
					c-0.5-0.1-1.1-0.2-1.6-0.2c-1.9,0-3.8,0.6-5.4,1.6c-2.6,1.6-5.6,4.8-6.3,8.8c-1.1,6.2,4.6,7.6,9,10.2c3.4,2,5.6,4.6,6.7,7.5
					c1.9,5,0.4,10.7-3.8,14.9c0,0,0,0,0,0c-1.5,1.4-3,2.5-4.9,3.4c-0.5,0.2-1,0.5-1.5,0.7c-1.9,0.7-4.4,1.2-6.6,1.2
					c-1,0-2.1-0.1-3-0.3c-2.9-0.7-5.3-2.6-7.1-4.9c-1.7-2.2-3.3-5.3-2.4-8.1c0.5-1.6,1.5-3,2.9-3.9c0.4-0.2,0.8-0.4,1.2-0.4
					c0.2,0,0.5,0.1,0.7,0.2c0.3,0.2,0.6,0.6,0.7,0.9c0.4,1.1,0.5,2.3,0.9,3.4c0.4,1.1,0.9,2.2,1.5,3.2c1.1,2,2.7,3.8,4.6,5
					c1.2,0.8,2.7,1.3,4.1,1.3c0.5,0,1-0.1,1.4-0.2c1.2-0.3,2.3-1.1,3.3-2c1.2-1.2,1.6-2.3,1.9-3.9c0.1-0.6,0.4-2.4,0.1-4.8
					c-0.2-1.5-0.7-3-1.4-4.2c-3.5-5.9-12.7-6.3-14.9-13.1c-1.7-5.5,2.3-10.2,6.2-13.4c3.9-3.1,8.3-6,13.2-7
					C171.8,131.5,173.1,131.3,174.4,131.3 M174.4,130.5L174.4,130.5c-1.2,0-2.4,0.1-3.9,0.4c-5.6,1.1-10.4,4.6-13.6,7.2
					c-5.7,4.6-8,9.6-6.5,14.3c1.3,4,4.8,5.9,8.1,7.8c2.8,1.5,5.4,3,6.9,5.5c0.7,1.1,1.1,2.5,1.3,4c0.3,2.2,0,3.9-0.1,4.5
					c-0.3,1.5-0.7,2.4-1.7,3.5c-1,0.9-2,1.5-2.9,1.8c-0.4,0.1-0.8,0.2-1.2,0.2c-1.2,0-2.5-0.4-3.7-1.2c-1.7-1.1-3.2-2.8-4.3-4.8
					c-0.5-0.9-1-2-1.4-3.1c-0.2-0.5-0.3-1-0.4-1.6c-0.1-0.6-0.3-1.2-0.5-1.8c-0.2-0.6-0.6-1.1-1.1-1.4c-0.3-0.2-0.7-0.3-1.1-0.3
					c-0.5,0-1.1,0.2-1.6,0.5c-1.6,1-2.8,2.6-3.3,4.4c-0.7,2.6,0.2,5.6,2.6,8.8c2,2.6,4.7,4.5,7.5,5.2c0.9,0.2,2,0.4,3.1,0.4
					c2.2,0,4.8-0.5,6.9-1.2c0.6-0.2,1.1-0.4,1.6-0.7c1.8-0.9,3.4-2,5.1-3.6l0,0l0,0c0,0,0,0,0,0l0.1,0l0,0c4.4-4.4,6-10.5,4-15.7
					c-1.2-3.2-3.6-5.9-7-7.9c-0.8-0.5-1.7-0.9-2.5-1.3c-3.7-1.9-6.9-3.5-6.1-8c0.7-3.8,3.5-6.7,5.9-8.3c1.5-0.9,3.3-1.5,5-1.5
					c0.5,0,1,0.1,1.5,0.2c0.8,0.2,1.6,0.6,2.4,1.1c1.1,0.7,2.3,1.3,3.8,1.3l0,0c1.8,0,3.5-1.5,3.9-3.2c0.4-1.8-0.6-3.6-2.5-4.5
					C177.4,130.8,176,130.5,174.4,130.5L174.4,130.5z"/>
			</g>
		</g>
		<g>
			<g>
				<path d="M221.5,184.4c-0.5,0-1,0-1.6-0.1c-2.4-0.2-4.1-2.5-4.3-5.7c-0.4,0.2-0.9,0.4-1.1,0.5c-0.2,0.1-0.4,0.2-0.5,0.2
					c-6.6,3.4-12.3,5-17.4,5c-1,0-2-0.1-3-0.2c-1.9-0.2-3.6-0.7-5.1-1.4c-5.5-2.5-7.7-7.3-8.5-10.9c-1-4.5-0.7-9.7,0.9-14.3
					c2.3-6.3,5.7-12.2,10.1-17.3c2.9-3.3,8.8-9,15.3-9.3c0.1,0,0.3,0,0.4,0c1.6,0,2.8,0.4,3.7,1.2c1.1,1,1.7,2.5,1.8,4.7
					c0.4,7-2.7,13.2-5.3,17.2c-4.4,6.6-10.5,12-17.7,15.4c-0.2,0.1-0.3,0.2-0.5,0.2c-0.4,0.2-0.7,0.3-1,0.3c0.8,1.8,1.9,3.4,3.2,4.8
					c3,3,7,4.7,11.5,4.7c2,0,4.1-0.4,6.1-1c0.4-0.1,1.2-0.5,2.1-0.9c0.5-0.2,1-0.5,1.5-0.7c1.9-0.9,3.3-2.6,3.9-4.6l0.1-0.5
					c0.2-0.6,0.3-1.2,0.4-1.7c0.1-0.4,0.2-0.9,0.3-1.3c0.8-4.3,2.7-14.2,7.2-37.1l0.2-1.1c0.2-1.1,0.4-2.2,0.6-3.3
					c2.8-14.4,5.7-29.4,12.1-42.6c1.5-3,3.1-6.1,6.1-7.8c1.2-0.7,2-1,2.6-1c1.5,0,1.7,1.7,1.8,3.4c0.6,7.8-1.1,16.6-2.4,22.5
					c-2.4,10.4-6.5,25.1-15.1,33.2c-0.1,0.7-0.2,1.3-0.4,2c-0.1,0.5-0.2,1-0.3,1.5c4.2-5,9.4-8,14.2-8c1.4,0,2.8,0.2,4.1,0.7
					c8.1,3,9,12.9,7.3,20.4c-1.8,7.9-6.4,15.6-13.4,22.5C234.4,181,227.9,184.4,221.5,184.4C221.5,184.4,221.5,184.4,221.5,184.4z
					 M220.1,176.5c0,0.1,0.1,0.1,0.1,0.2c0.1,0.3,0.3,0.5,0.5,0.8c0.3,0.4,0.6,0.9,1.1,1.2c0.7,0.5,1.5,0.9,2.3,1.1
					c0.4,0.1,0.8,0.1,1.2,0.1c2.1,0,4.5-1,7.2-2.8c2.1-1.5,4.1-3.4,6.5-6.2c3.8-4.4,8.5-11.6,9.5-20.5c0.6-5.6-0.4-9.7-3.1-12.6
					c-0.9-1-2.7-2.9-4.9-2.9l-0.1,0c-6.4,0-11.4,14.8-13.6,21.1c-0.7,2.1-1.3,3.9-1.8,5.4l-0.5,2.6c-0.3,1.5-0.6,2.9-0.8,4.4
					c-0.1,0.6-0.2,1.2-0.3,1.7c-0.1,0.5-0.2,1.1-0.3,1.6c0,0.2-0.1,0.3-0.1,0.5c-0.2,0.9-0.3,1.9-1,2.7c-0.4,0.5-0.9,0.9-1.3,1.2
					C220.5,176.2,220.3,176.3,220.1,176.5C220.2,176.4,220.1,176.5,220.1,176.5z M204.3,135.6c-1,0-2.2,0.6-2.9,1.2
					c-5.9,4.3-11,10.9-13.4,17.1c-1.9,4.9-2.1,10.2-0.7,14.6c0.7-0.7,1.5-1.3,2.3-1.9c2.9-2.1,6.3-4.7,8.9-7.8
					c3.3-3.9,5.6-8.9,7-14.9c0-0.1,0.1-0.2,0.1-0.4c0.3-1.1,0.8-3.1,0.4-5.5c-0.2-1.1-0.3-1.8-0.7-2.1
					C204.9,135.7,204.6,135.6,204.3,135.6z M242.9,82.4c-0.2,0.5-0.4,0.9-0.5,1.4c-0.1,0.3-0.2,0.7-0.4,1c-2,5.3-3.5,10.8-4.9,15.9
					c-2,7.7-3.5,15.6-4.9,23c1.8-3.6,3.4-7.4,4.8-11.6l0.4-1.1C240.2,102.3,243.8,91.7,242.9,82.4z"/>
				<path d="M245.8,76.3c0.9,0,1.3,0.9,1.5,3c0.6,7.3-0.8,15.3-2.4,22.4c-2.3,10.4-6.5,25.2-15.1,33c-0.1,0.7-0.3,1.4-0.4,2.1
					c-0.2,1-0.4,2-0.6,3c3.6-4.8,9.1-9.1,14.9-9.1c1.3,0,2.7,0.2,4,0.7c8,3,8.7,12.7,7,19.9c-2,8.6-7.1,16.2-13.3,22.3
					c-5,4.9-12,10.4-19.9,10.4c-0.5,0-1,0-1.5-0.1c-2.5-0.2-3.9-2.9-4-6c-0.9,0.5-1.9,0.9-2.2,1c-5.3,2.7-11.3,4.9-17.3,4.9
					c-1,0-1.9-0.1-2.9-0.2c-1.7-0.2-3.4-0.7-5-1.4c-9.2-4.1-10.4-16.1-7.4-24.7c2.2-6.3,5.7-12.1,10.1-17.2c3.7-4.2,9.2-8.9,15-9.1
					c0.1,0,0.3,0,0.4,0c1.3,0,2.5,0.3,3.5,1.1c1.2,1.1,1.6,2.8,1.7,4.4c0.4,6-1.9,12-5.2,17c-4.3,6.6-10.5,11.9-17.6,15.3
					c-0.2,0.1-0.3,0.2-0.5,0.2c-0.3,0.1-0.7,0.3-1,0.3c-0.1,0-0.3,0-0.4-0.1c0.8,2,1.9,3.9,3.5,5.5c3,3.1,7.2,4.8,11.7,4.8
					c2,0,4.1-0.3,6.2-1.1c0.6-0.2,2-0.9,3.6-1.7c2-0.9,3.5-2.7,4.1-4.9c0.2-0.8,0.4-1.6,0.6-2.2c0.1-0.4,0.2-0.9,0.3-1.3
					c2-10.3,7-35.9,7.5-38.2c3-15.3,5.9-31.6,12.7-45.7c1.4-2.9,3-5.9,5.9-7.6C244.4,76.6,245.2,76.3,245.8,76.3 M231.3,126.2
					c2.4-4.4,4.3-9,6-14c3.1-9.1,7.4-21.2,5.8-31.3c-0.6,1.3-1,2.6-1.4,3.6c-2,5.2-3.5,10.6-4.9,16
					C234.5,109,232.9,117.6,231.3,126.2 M225.2,180.2c2.7,0,5.4-1.5,7.4-2.9c2.5-1.8,4.6-4,6.6-6.3c5-5.8,8.8-13,9.6-20.7
					c0.3-3.2,0.6-8.9-3.2-12.9c-1-1-2.8-3-5.2-3c0,0,0,0-0.1,0c-6.7,0-11.8,15-14,21.4c-0.7,2.1-1.3,3.9-1.8,5.5
					c-0.5,2.3-0.9,4.7-1.4,7c-0.2,1.1-0.5,2.2-0.7,3.3c-0.2,1.1-0.3,2.1-1,3c-0.5,0.6-1.2,1.1-1.8,1.6c-0.2,0.1-0.3,0.2-0.2,0.4
					c0,0.1,0.1,0.2,0.1,0.3c0.1,0.3,0.3,0.6,0.5,0.8c0.3,0.5,0.7,1,1.1,1.3c0.7,0.6,1.6,1,2.5,1.1
					C224.4,180.2,224.8,180.2,225.2,180.2 M187.1,169.3c0.7-1,1.7-1.7,2.6-2.4c3.2-2.3,6.4-4.8,9-7.9c3.6-4.3,5.8-9.6,7.1-15.1
					c0.2-0.9,1-3.2,0.5-6.1c-0.2-1.2-0.3-1.9-0.9-2.3c-0.3-0.2-0.7-0.3-1.1-0.3c-1.1,0-2.4,0.7-3.2,1.3
					c-6.1,4.5-11.2,11.1-13.5,17.2C185.7,158.7,185.3,164.4,187.1,169.3 M245.8,75.5l0,0.8L245.8,75.5c-0.7,0-1.5,0.3-2.8,1.1
					c-3,1.8-4.7,4.9-6.2,7.9c-6.4,13.2-9.3,28.2-12.1,42.7c-0.2,1.1-0.4,2.2-0.6,3.3l-0.2,1.1c-4.5,22.9-6.4,32.8-7.2,37.1
					c-0.1,0.4-0.2,0.9-0.3,1.3c-0.1,0.5-0.3,1.1-0.4,1.7c0,0.2-0.1,0.4-0.1,0.5c-0.5,1.9-1.9,3.5-3.6,4.3c-0.5,0.2-1,0.5-1.5,0.7
					c-0.9,0.4-1.7,0.8-2.1,0.9c-2,0.7-4,1-5.9,1c-4.3,0-8.3-1.6-11.2-4.6c-1.2-1.2-2.2-2.6-2.9-4.2c0.2-0.1,0.4-0.1,0.6-0.2
					c0.2-0.1,0.3-0.2,0.5-0.2c7.3-3.5,13.5-8.9,17.9-15.5c2.7-4.1,5.8-10.4,5.4-17.5c-0.1-2.3-0.8-4-1.9-5c-1-0.9-2.3-1.3-4-1.3
					c-0.2,0-0.3,0-0.5,0c-6.7,0.3-12.6,6-15.6,9.4c-4.5,5.2-7.9,11-10.2,17.4c-1.7,4.7-2,10-1,14.5c1.2,5.3,4.3,9.2,8.7,11.2
					c1.6,0.7,3.3,1.2,5.2,1.4c1,0.1,2,0.2,3,0.2c5.2,0,10.9-1.6,17.6-5c0.1,0,0.3-0.1,0.5-0.2c0.2-0.1,0.4-0.2,0.7-0.3
					c0.4,3.1,2.2,5.3,4.6,5.5c0.5,0,1.1,0.1,1.6,0.1c6.5,0,13.1-3.5,20.4-10.6c7-6.9,11.7-14.7,13.5-22.7c1-4.2,1-8.5,0.1-11.9
					c-1.1-4.4-3.8-7.5-7.6-8.9c-1.4-0.5-2.8-0.8-4.3-0.8c-4.6,0-9.5,2.6-13.6,7c0,0,0,0,0-0.1c0.1-0.6,0.2-1.2,0.3-1.9
					c8.7-8.1,12.8-22.9,15.1-33.3c2.8-12.4,2.7-18.8,2.4-22.6C247.9,77.9,247.7,75.5,245.8,75.5L245.8,75.5z M233.1,120.8
					c1.3-6.5,2.6-13.3,4.4-20c1.3-5.2,2.8-10.7,4.9-15.9c0.1-0.2,0.2-0.4,0.3-0.7c0.4,8.8-2.9,18.6-5.7,26.7l-0.4,1.1
					C235.5,115.1,234.4,118,233.1,120.8L233.1,120.8z M225.4,161.4c0.5-1.5,1.1-3.3,1.8-5.4c1.9-5.7,7.1-20.8,13.2-20.8l0,0
					c2.1,0,3.7,1.8,4.6,2.8c2.6,2.8,3.6,6.8,3,12.3c-0.9,8.8-5.6,15.9-9.4,20.3c-2.4,2.8-4.4,4.7-6.5,6.1c-2.6,1.8-5,2.8-7,2.8
					c-0.4,0-0.8,0-1.1-0.1c-0.7-0.1-1.5-0.5-2.2-1c-0.4-0.3-0.7-0.8-1-1.1c-0.1-0.2-0.3-0.4-0.4-0.6c0.1-0.1,0.2-0.2,0.3-0.2
					c0.5-0.4,1-0.8,1.4-1.3c0.7-0.9,0.9-1.9,1-2.9c0-0.2,0.1-0.3,0.1-0.5c0.1-0.5,0.2-1.1,0.3-1.6c0.1-0.6,0.2-1.2,0.3-1.7
					c0.3-1.5,0.6-2.9,0.8-4.4C225.1,163.2,225.2,162.3,225.4,161.4L225.4,161.4z M187.4,167.7c-1.2-4.2-0.9-9.1,0.9-13.7
					c2.3-6.1,7.4-12.6,13.3-16.9c0.8-0.6,1.9-1.1,2.7-1.1c0.3,0,0.5,0.1,0.7,0.2c0.3,0.2,0.4,0.9,0.6,1.8c0.4,2.3-0.1,4.3-0.4,5.3
					c0,0.2-0.1,0.3-0.1,0.4c-1.4,6-3.7,10.9-6.9,14.8c-2.6,3.1-5.9,5.6-8.9,7.7C188.6,166.7,188,167.2,187.4,167.7L187.4,167.7z"/>
			</g>
		</g>
		<g>
			<path d="M364.6,257.1c-2.1,0-4.2-0.4-6.1-1.1c-6.4-2.5-11.2-9.5-12-17.4c-0.7-6.6,1.2-13.9,5.3-21.1c3.9-6.8,8.5-11.3,13.8-13.4
				c2-0.8,4.2-1.2,6.3-1.2c4.8,0,9,1.9,11.5,5.3c2.5,3.4,3.2,8.1,1.9,12.5c-1.2,3.9-4.1,7.5-7.9,9.9c-3.2,2-7,3-10.8,3
				c-2.5,0-4.9-0.4-7.2-1.3c-0.5-0.2-1-0.4-1.3-0.9c-0.3-0.4-0.3-1-0.1-1.5c0.3-0.7,0.9-1.3,1.6-1.5c0.3-0.1,0.5-0.1,0.8-0.1
				c0.8,0,1.6,0.3,2.4,0.6l0,0c2.8,1,5,1.5,7,1.5c1.3,0,2.5-0.2,3.6-0.6c2.8-1.1,5.1-3.7,6-6.9c0.8-3,0.5-6.3-0.9-9.4
				c-1.5-3.4-4.8-6.7-8.8-6.7c-0.1,0-0.3,0-0.4,0c-2.4,0.1-4.9,1.5-7.6,4.3c-5.1,5.1-8.6,11.5-9.6,17.9c-1.2,7.1,0.6,14.3,4.7,19.4
				c2.9,3.5,6.6,5.6,10.3,5.6c0.1,0,0.2,0,0.3,0c3.4-0.1,7-2.1,9.6-5.4c2.4-3,3.9-6.8,5.3-10.4c7-18.8,11.8-38.2,16.3-58.1
				c-3.8,2.8-8.8,4.6-13,4.6c-1.9,0-3.6-0.3-5.1-1c-2.8-1.2-4.9-3.7-6.2-7c-1.9,2.2-4.3,4.1-6.7,5.5c-1.9,1-3.6,1.5-5.1,1.5
				c-3.5,0-6-2.8-7.1-8.2c-1-4.9,0.1-8.7,1.2-12.8c0.5-1.7,1-3.4,1.4-5.3c0.5-2.7,0.3-6.2-2.1-7.9c-1-0.7-2.1-0.7-3.4-0.7
				c-1.4,0-2.9,0-4.1-1.1c-1.3,3.2-2.5,6.5-3.8,9.7c-1.5,3.8-3,7.8-4.5,11.6c-0.8,2.1-2.5,5.3-3.8,7c-1.9,2.6-4,4.7-6.2,6
				c-2,1.3-4.4,2-6.6,2c-1,0-2-0.2-2.8-0.5c-2.5-0.9-4.2-3.5-5.1-7.8c-1-4.9,0.1-8.7,1.2-12.8c0.5-1.7,1-3.4,1.4-5.3
				c0.5-2.7,0.3-6.2-2.1-7.9c-1-0.7-2.1-0.7-3.4-0.7c-1.4,0-2.9,0-4.1-1.1c-1.3,3.2-2.5,6.5-3.8,9.7c-1.5,3.9-3.1,8-4.7,12
				c-1.6,4.1-4.1,7.8-7,10.5c-2,1.9-4.1,3-6.6,3.6c-2.5,0.6-5.1,0.7-7.5,0.8c-0.9,0-1.9,0-2.9,0c-2.3,0-4.2-0.1-5.9-0.4
				c-3.3-0.6-6.1-1.8-8.2-3.5c-2.5-2.1-4.3-5.4-5.1-9.2c-1.3-6.2,0.1-13.1,4.1-20.6c3.1-5.8,6.9-10.7,11.4-14.5
				c3.5-2.9,6.7-4.6,9.9-5.1c0.5-0.1,1-0.1,1.5-0.1c1.6,0,2.9,0.4,3.8,1.3c1.2,1.1,1.8,2.7,1.9,5.2c0.2,4.8-1.3,9.9-4.4,15.1
				c-4.1,6.9-10.3,12.8-17.4,16.4c-0.9,0.5-1.9,0.9-3,1.2c2.9,5.9,9.5,10.1,15.8,10.1c0.4,0,0.7,0,1.1,0c1.7-0.1,3.5-0.7,5.2-1.6
				c7.1-3.7,9.9-11.1,12.6-18.3l0.1-0.3c0.9-2.5,1.9-5.1,2.7-7.6c1.1-3,2.2-6.2,3.4-9.3c0.4-1.1,0.8-2.4,1.2-3.8
				c1.1-3.7,2.4-7.8,4.6-9.9c1-0.9,1.9-1.4,2.6-1.4c0.5,0,0.9,0.2,1.2,0.6c0.6,0.8,0.6,2.2,0.2,3.9c-0.3,1-0.7,2-1.2,3
				c-1.1,2.6-2.3,5.4-0.8,7.8c1,1.6,2.5,1.6,4.4,1.6c1.6,0,3.3,0,4.7,1.2c3.8,3.1,2.7,8.4,1.5,12.1c-0.8,2.3-1.7,5.3-2,8.1
				c-0.4,3.5,0,7.2,1,10c0.5,1.3,1.2,2.1,1.9,2.4c0.1,0,0.2,0.1,0.3,0.1c0.1,0,0.3,0,0.5,0c0.9,0,1.8-0.5,2.3-0.8
				c2.2-1.4,3.7-3.7,5.2-6.2c1.6-2.6,3-5.3,4.2-8.1c1.6-3.8,3-7.8,4.3-11.6c1.1-3,2.2-6.2,3.4-9.3c0.4-1.1,0.8-2.4,1.2-3.8
				c1.1-3.7,2.4-7.8,4.6-9.9c1-0.9,1.9-1.4,2.6-1.4c0.5,0,0.9,0.2,1.2,0.6c0.6,0.8,0.6,2.2,0.2,3.9c-0.3,1-0.7,2-1.2,3
				c-1.1,2.6-2.3,5.4-0.8,7.8c1,1.6,2.5,1.6,4.4,1.6c1.6,0,3.3,0,4.7,1.2c3.8,3.1,2.7,8.4,1.5,12.1c-1.2,3.8-2.5,7.8-1.8,12.4
				c0.4,2.8,1.1,5,2.1,6.7c0.8,1.3,1.2,1.9,1.6,1.9c0.3,0,0.8-0.3,1.5-0.9c0.9-0.8,1.7-1.8,2.3-2.7c0.4-0.5,0.8-1,1.2-1.5
				c0.4-0.4,0.7-0.9,1.1-1.4c1-1.3,1.3-3.1,1.6-4.6c0.3-1.8,0.6-3.6,1.1-5.4c0.7-2.3,1.6-4.6,2.5-6.9l8-20.1c0.5-1.2,1-2.6,2-3.6
				c0.8-0.9,1.9-1.4,2.9-1.4c0.4,0,0.7,0.1,1,0.2l0.3,0.1l-0.1,0.4c-1.3,4.6-3.2,9.1-4.9,13.4c-2.5,6.1-5,12.3-6.2,18.8
				c-1.1,5.9-0.5,10.1,1.9,13.1c2,2.6,4.9,4.1,7.7,4.1c0.8,0,1.6-0.1,2.3-0.4c4.4-1.6,6.3-6.7,7.6-12.1l7.6-31.1
				c0.5-1.9,1-3.9,2.3-5.5c1-1.2,2.5-1.9,3.9-1.9c0.7,0,1.3,0.2,1.8,0.5l0.2,0.1l-0.1,0.3c-6.1,31.5-12.4,64-22,95.1
				c-2.5,8.2-5.5,16.8-11.4,23.2C377.2,254,370.7,257.1,364.6,257.1C364.6,257.1,364.6,257.1,364.6,257.1z M281.6,135.6
				c-1,0-2.2,0.6-2.9,1.2c-5.9,4.3-11,10.9-13.4,17.1c-1.9,4.9-2.1,10.2-0.7,14.6c0.7-0.7,1.5-1.3,2.3-1.9c2.9-2.1,6.3-4.7,8.9-7.8
				c3.3-3.9,5.6-8.9,7-14.9c0-0.1,0.1-0.2,0.1-0.4c0.3-1.1,0.8-3.1,0.4-5.5c-0.2-1.1-0.3-1.8-0.7-2.1
				C282.2,135.7,281.9,135.6,281.6,135.6z"/>
			<path d="M353.9,128.2c1.3,0,1.7,1.7,1,4c-0.9,3.4-4.2,7.5-1.9,11.2c2,3.3,6.3,0.5,9.2,2.8c3.6,2.9,2.6,7.9,1.4,11.7
				c-1.4,4.2-2.5,8-1.8,12.6c0.4,2.3,1,4.8,2.1,6.8c0.8,1.4,1.3,2.1,1.9,2.1c0.4,0,1-0.3,1.7-1c0.9-0.8,1.7-1.8,2.4-2.8
				c0.7-1,1.5-1.9,2.2-2.9c1-1.4,1.4-3.1,1.6-4.8c0.3-1.8,0.6-3.6,1.1-5.4c0.7-2.3,1.6-4.6,2.5-6.9c2.7-6.7,5.3-13.4,8-20.1
				c0.5-1.2,1-2.5,1.9-3.5c0.7-0.7,1.7-1.2,2.7-1.2c0.3,0,0.6,0.1,0.9,0.2c-3.2,11-9.1,21.1-11.1,32.3c-0.8,4.5-1,9.6,2,13.4
				c1.9,2.4,4.9,4.3,8,4.3c0.8,0,1.6-0.1,2.4-0.4c4.8-1.7,6.6-7.4,7.8-12.4c2.5-10.4,5.1-20.7,7.6-31.1c0.5-1.9,1-3.9,2.2-5.4
				c0.9-1.1,2.3-1.8,3.6-1.8c0.6,0,1.1,0.1,1.6,0.4c-6.2,32-12.4,64-22,95.1c-2.6,8.3-5.5,16.7-11.3,23.1c-4.4,4.8-10.7,8.2-17,8.2
				c-2,0-4-0.3-6-1.1c-6.7-2.6-11-9.8-11.8-17c-0.8-7.3,1.6-14.6,5.2-20.9c3.2-5.6,7.7-10.8,13.6-13.2c2-0.8,4.1-1.2,6.2-1.2
				c4.3,0,8.6,1.7,11.2,5.2c2.5,3.4,3.1,8.1,1.9,12.1c-1.2,4.1-4.1,7.5-7.7,9.7c-3.2,2-6.9,3-10.6,3c-2.4,0-4.8-0.4-7.1-1.3
				c-0.4-0.2-0.9-0.4-1.2-0.8c-0.6-0.9,0.2-2.1,1.2-2.4c0.2-0.1,0.5-0.1,0.7-0.1c0.8,0,1.6,0.3,2.3,0.5c2.3,0.8,4.8,1.5,7.2,1.5
				c1.3,0,2.6-0.2,3.8-0.7c3.1-1.2,5.4-4,6.3-7.2c0.9-3.2,0.5-6.7-0.9-9.7c-1.7-3.7-5.2-7-9.2-7c-0.1,0-0.3,0-0.4,0
				c-3.1,0.2-5.7,2.2-7.9,4.4c-4.9,4.9-8.6,11.2-9.7,18.1c-1.2,6.9,0.4,14.3,4.8,19.7c2.6,3.2,6.4,5.7,10.6,5.7c0.1,0,0.2,0,0.3,0
				c3.9-0.1,7.5-2.5,9.9-5.6c2.5-3.1,4-6.8,5.4-10.5c7.2-19.2,12-39.2,16.6-59.2c-3.5,2.8-8.7,5.2-13.6,5.2c-1.7,0-3.4-0.3-5-1
				c-3-1.4-5.1-4.2-6.2-7.5c-1.9,2.4-4.4,4.5-7.1,5.9c-1.9,1-3.5,1.5-4.9,1.5c-3.5,0-5.7-2.9-6.7-7.9c-1.4-6.9,1.3-11.5,2.6-17.9
				c0.5-2.8,0.3-6.5-2.3-8.3c-2.4-1.7-5.8,0.4-7.8-2.2c-2.9,7.3-5.6,14.6-8.5,21.9c-0.8,2-2.5,5.1-3.7,6.9c-1.7,2.3-3.6,4.4-6.1,5.9
				c-1.8,1.1-4.1,1.9-6.3,1.9c-0.9,0-1.8-0.1-2.7-0.5c-3-1.1-4.2-4.6-4.8-7.5c-1.4-6.9,1.3-11.5,2.6-17.9c0.5-2.8,0.3-6.5-2.3-8.3
				c-2.4-1.7-5.8,0.4-7.8-2.2c-2.9,7.4-5.7,14.9-8.7,22.3c-1.5,3.9-3.9,7.5-6.9,10.4c-1.9,1.8-3.9,2.9-6.5,3.5
				c-2.4,0.6-4.9,0.7-7.4,0.8c-1,0-1.9,0-2.9,0c-2,0-3.9-0.1-5.8-0.4c-2.9-0.5-5.7-1.5-8-3.5c-2.6-2.3-4.3-5.6-4.9-9
				c-1.4-6.9,0.8-14.1,4-20.4c2.9-5.4,6.6-10.4,11.3-14.4c2.8-2.4,6.1-4.4,9.7-5c0.5-0.1,0.9-0.1,1.4-0.1c1.3,0,2.6,0.3,3.5,1.2
				c1.3,1.2,1.7,3.1,1.8,4.9c0.2,5.3-1.7,10.4-4.3,14.9c-4.1,6.9-10.1,12.6-17.2,16.2c-1.1,0.5-2.2,1.1-3.4,1.2
				c2.8,6.2,9.6,10.8,16.3,10.8c0.4,0,0.7,0,1.1,0c1.9-0.1,3.7-0.7,5.3-1.6c7.3-3.9,10.1-11.5,12.9-18.8c2.1-5.6,3.9-11.3,6.1-16.8
				c1.5-3.8,2.8-10.7,5.8-13.5c1-0.9,1.8-1.3,2.4-1.3c1.3,0,1.7,1.7,1,4c-0.9,3.4-4.2,7.5-1.9,11.2c2,3.3,6.3,0.5,9.2,2.8
				c3.6,2.9,2.6,7.9,1.4,11.7c-0.9,2.7-1.7,5.4-2.1,8.2c-0.4,3.2-0.1,7.1,1,10.2c0.4,1.1,1.1,2.2,2.2,2.6c0.1,0,0.3,0.1,0.4,0.1
				c0.2,0,0.4,0.1,0.5,0.1c0.9,0,1.8-0.4,2.5-0.9c2.3-1.5,3.9-4,5.3-6.3c1.6-2.6,3-5.3,4.2-8.2c2.9-6.9,5-14,7.7-20.9
				c1.5-3.8,2.8-10.7,5.8-13.5C352.5,128.6,353.3,128.2,353.9,128.2 M264.4,169.3c0.7-1,1.7-1.7,2.6-2.4c3.2-2.3,6.4-4.8,9-7.9
				c3.6-4.3,5.8-9.6,7.1-15.1c0.2-0.9,1-3.2,0.5-6.1c-0.2-1.2-0.3-1.9-0.9-2.3c-0.3-0.2-0.7-0.3-1.1-0.3c-1.1,0-2.4,0.7-3.2,1.3
				c-6.1,4.5-11.2,11.1-13.5,17.2C263,158.7,262.5,164.4,264.4,169.3 M353.9,127.4L353.9,127.4c-0.8,0-1.8,0.5-2.9,1.5
				c-2.3,2.1-3.6,6.3-4.7,10.1c-0.4,1.4-0.8,2.7-1.2,3.7c-1.2,3.1-2.3,6.2-3.4,9.3c-1.4,3.8-2.8,7.8-4.3,11.6
				c-1.2,2.8-2.5,5.5-4.1,8.1c-1.5,2.5-3,4.7-5.1,6.1c-0.5,0.3-1.3,0.8-2.1,0.8c-0.1,0-0.3,0-0.4,0c-0.1,0-0.2,0-0.3-0.1
				c-0.7-0.3-1.3-1-1.7-2.2c-1-2.7-1.4-6.4-1-9.8c0.4-2.9,1.3-5.7,2-8.1c1.2-3.8,2.4-9.3-1.6-12.5c-1.5-1.2-3.3-1.2-5-1.2
				c-2,0-3.2-0.1-4-1.4c-1.4-2.3-0.3-4.8,0.8-7.5c0.5-1.1,0.9-2.1,1.2-3.1c0.5-1.8,0.4-3.4-0.3-4.2c-0.4-0.5-0.9-0.8-1.5-0.8
				c-0.8,0-1.8,0.5-2.9,1.5c-2.3,2.1-3.6,6.3-4.7,10.1c-0.4,1.4-0.8,2.7-1.2,3.7c-1.2,3.1-2.3,6.2-3.4,9.3c-0.9,2.5-1.8,5.1-2.7,7.6
				l-0.1,0.3c-2.7,7.1-5.5,14.4-12.4,18.1c-1.7,0.9-3.4,1.4-5,1.5c-0.3,0-0.7,0-1.1,0c-6,0-12.2-3.9-15.2-9.4
				c0.9-0.3,1.8-0.7,2.6-1.1c7.2-3.7,13.4-9.5,17.5-16.5c3.1-5.3,4.6-10.5,4.4-15.4c-0.1-2.5-0.8-4.3-2-5.4c-1-0.9-2.4-1.4-4.1-1.4
				c-0.5,0-1,0-1.5,0.1c-3.3,0.5-6.6,2.2-10.1,5.2c-4.5,3.8-8.4,8.8-11.5,14.6c-4,7.6-5.4,14.6-4.1,20.9c0.8,3.9,2.6,7.2,5.2,9.4
				c2.1,1.8,5,3.1,8.3,3.6c1.7,0.3,3.6,0.4,6,0.4c1,0,2,0,2.9,0c2.4-0.1,5-0.2,7.5-0.8c2.6-0.6,4.7-1.8,6.8-3.7
				c3-2.8,5.5-6.5,7.1-10.6c1.6-4,3.2-8.1,4.7-12c1.2-3,2.4-6.1,3.6-9.2c1.2,0.9,2.7,0.9,4,0.9c1.2,0,2.3,0,3.2,0.6
				c2.2,1.5,2.5,4.9,2,7.5c-0.4,1.9-0.9,3.6-1.3,5.3c-1.2,4.1-2.3,7.9-1.2,13c0.9,4.4,2.7,7.1,5.3,8.1c0.9,0.3,1.9,0.5,3,0.5
				c2.2,0,4.7-0.7,6.8-2c2.2-1.4,4.4-3.5,6.3-6.1c1.3-1.8,3-4.9,3.8-7.1c1.5-3.9,3-7.8,4.5-11.6c1.2-3,2.4-6.1,3.6-9.2
				c1.2,0.9,2.7,0.9,4,0.9c1.2,0,2.3,0,3.2,0.6c2.2,1.5,2.5,4.9,2,7.5c-0.4,1.9-0.9,3.6-1.3,5.3c-1.2,4.1-2.3,7.9-1.2,13
				c0.8,3.9,2.8,8.5,7.5,8.5c1.6,0,3.3-0.5,5.2-1.6c2.3-1.3,4.6-3,6.4-5.1c1.3,3.1,3.5,5.5,6.1,6.7c1.6,0.7,3.3,1.1,5.3,1.1
				c4,0,8.6-1.6,12.4-4.1c-4.5,19.5-9.2,38.6-16.1,57c-1.3,3.6-2.8,7.3-5.2,10.3c-2.6,3.3-6,5.2-9.3,5.3c-0.1,0-0.2,0-0.3,0
				c-3.5,0-7.2-2-10-5.4c-4-5-5.8-12.1-4.6-19.1c1.1-6.3,4.4-12.6,9.5-17.7c2.7-2.7,5-4,7.4-4.2c0.1,0,0.3,0,0.4,0
				c2.8,0,6.4,2,8.5,6.5c1.4,3,1.7,6.3,0.8,9.2c-0.9,3.1-3.1,5.6-5.8,6.6c-1.1,0.4-2.2,0.6-3.5,0.6c-2,0-4.1-0.5-6.9-1.4l0,0
				c-0.8-0.3-1.6-0.6-2.5-0.6c-0.3,0-0.6,0-0.9,0.1c-0.8,0.2-1.5,0.9-1.8,1.7c-0.2,0.7-0.2,1.4,0.2,1.9c0.4,0.6,1,0.8,1.5,1.1
				c2.3,0.9,4.8,1.3,7.3,1.3c3.9,0,7.8-1.1,11-3.1c3.9-2.4,6.8-6.1,8-10.1c1.3-4.4,0.6-9.3-2-12.8c-2.6-3.5-6.9-5.5-11.8-5.5
				c-2.2,0-4.5,0.4-6.5,1.2c-5.4,2.1-10.1,6.7-14,13.6c-4.2,7.3-6,14.7-5.3,21.4c0.4,3.8,1.7,7.5,3.8,10.6c2.2,3.3,5.1,5.8,8.5,7.1
				c2,0.8,4.1,1.2,6.3,1.2c3.1,0,6.4-0.8,9.6-2.4c3-1.5,5.8-3.6,8-6.1c5.9-6.5,8.9-15.1,11.4-23.4c9.7-31.1,16-63.7,22.1-95.2
				l0.1-0.6l-0.5-0.3c-0.6-0.3-1.3-0.5-2-0.5c-1.5,0-3.1,0.8-4.2,2.1c-1.4,1.7-1.9,3.8-2.4,5.7l-7.6,31.1
				c-1.3,5.2-3.1,10.3-7.3,11.8c-0.7,0.2-1.4,0.4-2.2,0.4c-2.6,0-5.4-1.5-7.3-4c-2.3-2.9-2.9-7-1.8-12.8c1.2-6.5,3.7-12.7,6.2-18.8
				c1.8-4.4,3.6-8.9,4.9-13.5l0.2-0.7l-0.7-0.3c-0.4-0.1-0.8-0.2-1.2-0.2c-1.1,0-2.3,0.6-3.2,1.5c-1,1.1-1.6,2.5-2.1,3.7l-8,20.1
				c-0.9,2.3-1.8,4.6-2.5,7c-0.5,1.8-0.8,3.6-1.1,5.5c-0.2,1.5-0.6,3.2-1.5,4.5c-0.3,0.5-0.7,0.9-1.1,1.4c-0.4,0.5-0.8,1-1.2,1.5
				c-0.7,0.9-1.4,1.9-2.3,2.6c-0.8,0.7-1.1,0.8-1.2,0.8c-0.3,0-0.9-1.2-1.3-1.7c-0.9-1.6-1.6-3.8-2-6.5c-0.7-4.5,0.5-8.2,1.8-12.2
				c1.2-3.8,2.4-9.3-1.6-12.5c-1.5-1.2-3.3-1.2-5-1.2c-2,0-3.2-0.1-4-1.4c-1.4-2.3-0.3-4.8,0.8-7.5c0.5-1.1,0.9-2.1,1.2-3.1
				c0.5-1.8,0.4-3.4-0.3-4.2C355.1,127.7,354.5,127.4,353.9,127.4L353.9,127.4L353.9,127.4z M264.7,167.7c-1.2-4.2-0.9-9.1,0.9-13.7
				c2.3-6.1,7.4-12.6,13.3-16.9c0.8-0.6,1.9-1.1,2.7-1.1c0.3,0,0.5,0.1,0.7,0.2c0.3,0.2,0.4,0.9,0.6,1.8c0.4,2.3-0.1,4.3-0.4,5.3
				c0,0.2-0.1,0.3-0.1,0.4c-1.4,6-3.7,10.9-6.9,14.8c-2.6,3.1-5.9,5.6-8.9,7.7C265.9,166.7,265.3,167.2,264.7,167.7L264.7,167.7z"/>
		</g>
		<g>
			<path d="M51.8,183.2c-4.4-1.8-6.7-4.9-6.7-9.1c0-1.3,0.1-2.7,0.4-4c-6.6,8.7-14,13.2-22,13.2h-0.1c-6.6,0-12.2-2.8-16.5-8.3
				c-4.3-5.5-6.5-13.1-6.5-22.6c0-10.3,2.6-21,7.6-31.8c5-10.8,11.6-19.8,19.4-26.8c7.9-7,15.6-10.6,23.1-10.6
				c4.4,0,7.8,1.4,9.9,4.1c2.1,2.7,3.2,6.2,3.2,10.3c0,4.5-1.1,8.7-3.3,12.5c-2.2,3.9-4.9,5.9-7.9,5.9c-1.8,0-3.1-1-4.1-3.1
				l-0.1-0.3l0.3-0.2c1.9-1.4,4-4,6.1-8c2.2-3.9,3.2-7.5,3.2-10.5c0-4.1-2.2-6.1-6.7-6.1H51c-5.4,0-11.4,3.7-17.7,10.9
				c-6.3,7.3-11.7,16.4-16,27C13.1,136.2,11,146,11,154.8c0,7.2,1.5,13,4.5,17.2c2.9,4.2,6.7,6.3,11.3,6.3c5.8,0,11-4,15.7-11.9
				c4.6-7.9,7.3-16.2,8-24.8c-4.5-1-8.5-1.5-11.9-1.5c-0.6,0-1.7,0-3.4,0.1c-1.6,0-2.9,0.1-4,0.1h-0.5l0.1-0.5
				c1-4.4,3.9-6.6,8.6-6.6c2.7,0,6.7,0.9,12.1,2.8c6.5,2.3,8.2,2.8,8.5,2.9l0.4,0.1l-1,4.4l0,0c-5,13-7.5,23-7.5,29.9
				c0,1.2,0.1,2.9,0.2,5.1c0.2,2.2,0.2,3.7,0.2,4.5v0.6L51.8,183.2z"/>
			<path d="M50.5,83.5c4.3,0,7.5,1.3,9.6,4c2.1,2.7,3.1,6,3.1,10.1c0,4.4-1.1,8.5-3.2,12.3c-2.2,3.8-4.7,5.7-7.5,5.7
				c-1.6,0-2.8-0.9-3.7-2.8c2-1.4,4-4.1,6.2-8.1c2.2-4,3.3-7.6,3.3-10.7c0-4.4-2.4-6.5-7.1-6.5H51c-5.6,0-11.6,3.7-18,11.1
				c-6.4,7.4-11.8,16.4-16,27.1c-4.3,10.7-6.4,20.4-6.4,29.3c0,7.3,1.5,13.1,4.5,17.4c3,4.3,6.9,6.5,11.7,6.5c5.9,0,11.3-4,16-12.1
				c4.7-8.1,7.4-16.5,8.1-25.3c-4.6-1.1-8.8-1.6-12.4-1.6c-0.6,0-1.8,0-3.4,0.1c-1.6,0-2.9,0.1-4,0.1c1-4.2,3.7-6.3,8.2-6.3
				c2.7,0,6.6,0.9,11.9,2.8c5.3,1.9,8.1,2.8,8.5,2.9l-0.9,3.9c-5,13.1-7.5,23.1-7.5,30.1c0,1.2,0.1,2.9,0.2,5.1
				c0.2,2.2,0.2,3.7,0.2,4.5c-4.3-1.7-6.4-4.6-6.4-8.8c0-1.9,0.3-3.8,0.8-5.8c-6.9,9.7-14.5,14.5-22.8,14.5h-0.1
				c-6.5,0-12-2.7-16.2-8.2c-4.3-5.5-6.4-12.9-6.4-22.4c0-10.3,2.5-20.8,7.6-31.6c5-10.8,11.5-19.7,19.3-26.7
				C35.5,87,43.1,83.5,50.5,83.5 M50.5,82.7c-7.6,0-15.4,3.6-23.4,10.7c-7.9,7-14.4,16.1-19.5,26.9c-5.1,10.9-7.6,21.6-7.6,32
				c0,9.6,2.2,17.3,6.6,22.9c4.4,5.6,10.1,8.5,16.9,8.5h0.1c4.3,0,8.4-1.3,12.4-3.8c3.1-2,6.1-4.8,9-8.4c-0.1,0.9-0.2,1.7-0.2,2.6
				c0,4.4,2.3,7.6,6.9,9.5l1.1,0.4v-1.2c0-0.8-0.1-2.3-0.2-4.6c-0.2-2.1-0.2-3.8-0.2-5.1c0-6.9,2.5-16.9,7.5-29.8l0-0.1l0-0.1
				l0.9-3.9l0.2-0.8l-0.8-0.2c-0.2,0-1.6-0.5-8.4-2.9c-5.4-1.9-9.4-2.8-12.2-2.8c-4.9,0-7.9,2.3-9,6.9l-0.2,1h1c1.1,0,2.4,0,4-0.1
				c1.6,0,2.7-0.1,3.4-0.1c3.3,0,7.2,0.5,11.5,1.4c-0.7,8.4-3.4,16.5-7.9,24.2c-2.3,3.9-4.8,6.9-7.4,8.8c-2.5,1.9-5.2,2.9-8,2.9
				c-4.5,0-8.1-2-11-6.1c-2.9-4.2-4.4-9.9-4.4-17c0-8.7,2.1-18.5,6.4-29c4.2-10.5,9.6-19.6,15.9-26.8c6.2-7.2,12.1-10.8,17.4-10.8
				h0.1c4.3,0,6.4,1.8,6.4,5.7c0,3-1.1,6.5-3.2,10.3c-2.1,3.9-4.1,6.6-6,7.9l-0.5,0.4l0.3,0.6c1,2.2,2.5,3.3,4.4,3.3
				c3.1,0,5.9-2,8.2-6.1c2.2-3.9,3.4-8.2,3.4-12.7c0-4.2-1.1-7.8-3.3-10.6C58.5,84.1,55.1,82.7,50.5,82.7L50.5,82.7z"/>
		</g>
	</g>
</g>
<g>
</g>
<g>
</g>
<g>
</g>
<g>
</g>
<g>
</g>
<g>
</g>
<g>
</g>
<g>
</g>
<g>
</g>
<g>
</g>
<g>
</g>
<g>
</g>
<g>
</g>
<g>
</g>
<g>
</g>
<g>
</g>
<g>
</g>
<g>
</g>
<g>
</g>
</svg>
