<?xml version="1.0" encoding="utf-8"?>
<!-- Generator: Adobe Illustrator 18.1.1, SVG Export Plug-In . SVG Version: 6.00 Build 0)  -->
<!DOCTYPE svg PUBLIC "-//W3C//DTD SVG 1.1//EN" "http://www.w3.org/Graphics/SVG/1.1/DTD/svg11.dtd">
<svg version="1.1" id="Layer_1" xmlns="http://www.w3.org/2000/svg" xmlns:xlink="http://www.w3.org/1999/xlink" x="0px" y="0px"
	 viewBox="0 0 272.6 9" enable-background="new 0 0 272.6 9" xml:space="preserve">
<path d="M255,9c-3,0-4.5-2-5.8-3.6c-1.2-1.5-1.9-2.4-3.4-2.4c-1.5,0-2.2,0.9-3.4,2.4C241.3,7,239.8,9,236.7,9c-3,0-4.5-2-5.8-3.6
	c-1.2-1.5-1.9-2.4-3.4-2.4c-1.5,0-2.2,0.9-3.4,2.4C223,7,221.5,9,218.5,9c-3,0-4.5-2-5.8-3.6c-1.2-1.5-1.9-2.4-3.4-2.4
	c-1.5,0-2.2,0.9-3.4,2.4C204.7,7,203.2,9,200.2,9s-4.5-2-5.8-3.6c-1.2-1.5-1.9-2.4-3.4-2.4s-2.2,0.9-3.4,2.4C186.5,7,185,9,181.9,9
	s-4.5-2-5.8-3.6C175,3.9,174.3,3,172.8,3c-1.5,0-2.2,0.9-3.4,2.4C168.2,7,166.7,9,163.7,9c-3,0-4.5-2-5.8-3.6
	C156.7,3.9,156,3,154.5,3c-1.5,0-2.2,0.9-3.4,2.4C150,7,148.4,9,145.4,9s-4.5-2-5.8-3.6c-1.2-1.5-1.9-2.4-3.4-2.4
	c-1.5,0-2.2,0.9-3.4,2.4C131.7,7,130.2,9,127.1,9s-4.5-2-5.8-3.6C120.2,3.9,119.5,3,118,3c-1.5,0-2.2,0.9-3.4,2.4
	C113.4,7,111.9,9,108.9,9c-3,0-4.5-2-5.8-3.6C102,3.9,101.2,3,99.8,3c-1.5,0-2.2,0.9-3.4,2.4C95.2,7,93.7,9,90.6,9
	c-3,0-4.5-2-5.8-3.6C83.7,3.9,83,3,81.5,3c-1.5,0-2.2,0.9-3.4,2.4C76.9,7,75.4,9,72.4,9s-4.5-2-5.8-3.6C65.4,3.9,64.7,3,63.2,3
	c-1.5,0-2.2,0.9-3.4,2.4C58.7,7,57.1,9,54.1,9c-3,0-4.5-2-5.8-3.6C47.2,3.9,46.5,3,45,3c-1.5,0-2.2,0.9-3.4,2.4
	C40.4,7,38.9,9,35.9,9c-3,0-4.5-2-5.8-3.6C28.9,3.9,28.2,3,26.7,3s-2.2,0.9-3.4,2.4C22.1,7,20.6,9,17.6,9s-4.5-2-5.8-3.6
	C10.7,3.9,9.9,3,8.5,3C7,3,6.3,3.9,5.1,5.4C4.8,5.9,4.4,6.3,4,6.8C3.8,7,3.6,7.3,3.4,7.5C3.1,7.8,2.9,8.1,2.6,8.5
	C2.1,9.1,1.1,9.1,0.5,8.6c-0.6-0.5-0.7-1.5-0.2-2.1C0.6,6.2,0.8,6,1,5.7C1.3,5.4,1.5,5,1.8,4.8C2.1,4.4,2.4,4,2.7,3.6
	C3.9,2,5.4,0,8.5,0c3,0,4.5,2,5.8,3.6C15.4,5.1,16.1,6,17.6,6s2.2-0.9,3.4-2.4C22.2,2,23.7,0,26.7,0s4.5,2,5.8,3.6
	C33.7,5.1,34.4,6,35.9,6c1.5,0,2.2-0.9,3.4-2.4C40.4,2,42,0,45,0c3,0,4.5,2,5.8,3.6C51.9,5.1,52.6,6,54.1,6c1.5,0,2.2-0.9,3.4-2.4
	C58.7,2,60.2,0,63.2,0c3,0,4.5,2,5.8,3.6C70.2,5.1,70.9,6,72.4,6c1.5,0,2.2-0.9,3.4-2.4C77,2,78.5,0,81.5,0c3,0,4.5,2,5.8,3.6
	C88.4,5.1,89.2,6,90.6,6c1.5,0,2.2-0.9,3.4-2.4C95.2,2,96.7,0,99.8,0c3,0,4.5,2,5.8,3.6c1.2,1.5,1.9,2.4,3.4,2.4
	c1.5,0,2.2-0.9,3.4-2.4C113.5,2,115,0,118,0c3,0,4.5,2,5.8,3.6c1.2,1.5,1.9,2.4,3.4,2.4c1.5,0,2.2-0.9,3.4-2.4
	c1.2-1.6,2.7-3.6,5.8-3.6c3,0,4.5,2,5.8,3.6c1.2,1.5,1.9,2.4,3.4,2.4c1.5,0,2.2-0.9,3.4-2.4C150,2,151.5,0,154.5,0s4.5,2,5.8,3.6
	c1.2,1.5,1.9,2.4,3.4,2.4c1.5,0,2.2-0.9,3.4-2.4c1.2-1.6,2.7-3.6,5.8-3.6c3,0,4.5,2,5.8,3.6c1.2,1.5,1.9,2.4,3.4,2.4
	s2.2-0.9,3.4-2.4c1.2-1.6,2.7-3.6,5.8-3.6c3,0,4.5,2,5.8,3.6c1.2,1.5,1.9,2.4,3.4,2.4c1.5,0,2.2-0.9,3.4-2.4
	c1.2-1.6,2.7-3.6,5.8-3.6c3,0,4.5,2,5.8,3.6c1.2,1.5,1.9,2.4,3.4,2.4c1.5,0,2.2-0.9,3.4-2.4c1.2-1.6,2.7-3.6,5.8-3.6
	c3,0,4.5,2,5.8,3.6c1.2,1.5,1.9,2.4,3.4,2.4c1.5,0,2.2-0.9,3.4-2.4c1.2-1.6,2.7-3.6,5.8-3.6c3,0,4.5,2,5.8,3.6
	c1.2,1.5,1.9,2.4,3.4,2.4c1.5,0,2.2-0.9,3.4-2.4c1.2-1.6,2.7-3.6,5.8-3.6c3,0,4.5,2,5.8,3.6c0.3,0.4,0.6,0.8,0.9,1.2
	c0.3,0.3,0.5,0.6,0.8,0.9c0.2,0.3,0.4,0.5,0.6,0.8c0.5,0.6,0.5,1.6-0.2,2.1c-0.6,0.5-1.6,0.5-2.1-0.2c-0.3-0.3-0.5-0.6-0.7-0.9
	c-0.2-0.3-0.4-0.5-0.6-0.8c-0.4-0.4-0.7-0.9-1.1-1.4c-1.2-1.5-1.9-2.4-3.4-2.4c-1.5,0-2.2,0.9-3.4,2.4C259.6,7,258,9,255,9z"/>
</svg>
